<svg xmlns="http://www.w3.org/2000/svg" width="20" height="33" viewBox="0 0 20 33">
  <path fill="#87C849" d="M1.58193012,32.8133339 C1.02706593,32.8136828 0.529982664,32.4703662 0.33384141,31.9513257 C0.137700156,31.4322853 0.283504352,30.8460266 0.69993012,30.4793333 L16.6319301,16.449 L0.69993012,2.41833333 C0.147185151,1.93158637 0.0936831883,1.08891166 0.58043014,0.536166687 C1.06717709,-0.0165782936 1.9098518,-0.070080274 2.46259679,0.416666667 L19.5309301,15.4483333 C19.8184704,15.7013403 19.9832558,16.0658295 19.9832558,16.4488333 C19.9832558,16.8318371 19.8184704,17.1963264 19.5309301,17.4493333 L2.46259679,32.4803333 C2.20926345,32.7036667 1.89459679,32.8133339 1.58193012,32.8133339 L1.58193012,32.8133339 Z" transform="matrix(-1 0 0 1 20.23 0)"/>
</svg>
