<svg xmlns="http://www.w3.org/2000/svg" width="40" height="66" viewBox="0 0 40 66">
  <path fill="#87C849" d="M3.16386024,65.6266677 C2.05413186,65.6273655 1.05996533,64.9407324 0.667682819,63.9026515 C0.275400311,62.8645705 0.567008703,61.6920533 1.39986024,60.9586667 L33.2638602,32.898 L1.39986024,4.83666667 C0.294370302,3.86317274 0.187366377,2.17782333 1.16086028,1.07233337 C2.13435419,-0.0331565873 3.81970359,-0.140160548 4.92519357,0.833333333 L39.0618602,30.8966667 C39.6369407,31.4026805 39.9665116,32.1316591 39.9665116,32.8976667 C39.9665116,33.6636743 39.6369407,34.3926528 39.0618602,34.8986667 L4.92519357,64.9606667 C4.41852691,65.4073333 3.78919357,65.6266677 3.16386024,65.6266677 L3.16386024,65.6266677 Z" transform="matrix(-1 0 0 1 40.462 0)"/>
</svg>
