<svg height="30" viewBox="0 0 30 30" width="30" xmlns="http://www.w3.org/2000/svg"><g fill="#d3205c" transform="matrix(0 -1 1 0 0 30)"><path d="m9.49 6.365v17.27l14.956-8.635z"/><path d="m14.9470408 29.9295918c-8.23193876 0-14.9292857-6.6971938-14.9292857-14.9295918 0-8.23193878 6.69719388-14.92928571 14.9292857-14.92928571 8.2320919 0 14.9291327 6.69734693 14.9291327 14.92928571 0 8.2322449-6.6971939 14.9295918-14.9291327 14.9295918zm0-28.63438772c-7.5567857 0-13.7047959 6.14801021-13.7047959 13.70479592 0 7.5569388 6.1480102 13.705102 13.7047959 13.705102s13.7047959-6.1480102 13.7047959-13.705102c0-7.55678571-6.1480102-13.70479592-13.7047959-13.70479592z"/></g></svg>