<svg xmlns="http://www.w3.org/2000/svg" width="186" height="20" viewBox="0 0 186 20">
  <path fill="#84898B" d="M158.992763 1.819L141.686763 6.51C139.284763 7.16 135.221763 7.16 132.819763 6.51L120.340763 3.127C117.412763 2.332 112.828763 2.332 109.902763 3.127L97.4257629 6.51C95.0237629 7.16 90.9607629 7.16 88.5587629 6.51L76.0817629 3.127C73.1567629 2.332 68.5727629 2.332 65.6457629 3.127L53.1687629 6.51C50.7667629 7.16 46.7037629 7.16 44.3017629 6.51L26.9997629 1.819C26.2007629 1.602 25.3757629 2.075 25.1597629 2.874 24.9427629 3.674 25.4147629 4.497 26.2147629 4.714L43.5167629 9.405C46.4427629 10.2 51.0287629 10.2 53.9547629 9.405L66.4317629 6.022C68.8337629 5.372 72.8947629 5.372 75.2967629 6.022L87.7737629 9.405C90.6997629 10.2 95.2857629 10.2 98.2117629 9.405L110.688763 6.022C113.090763 5.372 117.153763 5.372 119.555763 6.022L132.034763 9.405C133.498763 9.802 135.375763 10.001 137.253763 10.001 139.131763 10.001 141.009763 9.803 142.472763 9.405L159.778763 4.715C160.578763 4.498 161.049763 3.674 160.833763 2.874 160.616763 2.075 159.797763 1.603 158.992763 1.819zM12 4L1 4C.447 4 1.77635684e-15 4.447 1.77635684e-15 5 1.77635684e-15 5.553.447 6 1 6L12 6 12 8.24 18.477 4.5 12 .76 12 4zM184.993181 4L173.993181 4 173.993181.76 167.516181 4.5 173.993181 8.24 173.993181 6 184.993181 6C185.546181 6 185.993181 5.553 185.993181 5 185.993181 4.447 185.546181 4 184.993181 4z" transform="translate(0 5)"/>
</svg>
