<?xml version="1.0" encoding="utf-8"?>
<!-- Generator: Adobe Illustrator 16.0.0, SVG Export Plug-In . SVG Version: 6.00 Build 0)  -->
<!DOCTYPE svg PUBLIC "-//W3C//DTD SVG 1.1//EN" "http://www.w3.org/Graphics/SVG/1.1/DTD/svg11.dtd">
<svg version="1.1" id="DESIGN" xmlns="http://www.w3.org/2000/svg" xmlns:xlink="http://www.w3.org/1999/xlink" x="0px" y="0px"
	 width="200px" height="200px" viewBox="0 0 200 200" enable-background="new 0 0 200 200" xml:space="preserve">
<g>
</g>
<g>
	<path fill="#84898B" d="M165.995,97.819l-17.306,4.691c-2.402,0.65-6.465,0.65-8.867,0l-12.479-3.383
		c-2.928-0.795-7.512-0.795-10.438,0l-12.477,3.383c-2.402,0.65-6.465,0.65-8.867,0l-12.477-3.383
		c-2.925-0.795-7.509-0.795-10.436,0l-12.477,3.383c-2.402,0.65-6.465,0.65-8.867,0l-17.302-4.691
		c-0.799-0.217-1.624,0.256-1.84,1.055c-0.217,0.8,0.255,1.623,1.055,1.84l17.302,4.691c2.926,0.795,7.512,0.795,10.438,0
		l12.477-3.383c2.402-0.65,6.463-0.65,8.865,0l12.477,3.383c2.926,0.795,7.512,0.795,10.438,0l12.477-3.383
		c2.402-0.65,6.465-0.65,8.867,0l12.479,3.383c1.464,0.397,3.341,0.596,5.219,0.596s3.756-0.198,5.219-0.596l17.306-4.69
		c0.8-0.217,1.271-1.041,1.055-1.841C167.619,98.075,166.8,97.603,165.995,97.819z"/>
	<path fill="#84898B" d="M19,100H8c-0.553,0-1,0.447-1,1s0.447,1,1,1h11v2.24l6.477-3.74L19,96.76V100z"/>
	<path fill="#84898B" d="M192,100h-11v-3.24l-6.477,3.74l6.477,3.74V102h11c0.553,0,1-0.447,1-1S192.553,100,192,100z"/>
</g>
</svg>
