<svg height="196" viewBox="0 0 154 196" width="154" xmlns="http://www.w3.org/2000/svg"><g fill="#d3205c"><path d="m148.698 39.417-31.734-33.832c-3.075-3.285-8.8-5.585-13.273-5.585h-93.445c-5.589 0-10.246 4.188-10.246 9.774v176.453c0 5.586 4.657 9.773 10.246 9.773h133.516c5.579 0 10.238-4.188 10.238-9.773v-133.464c0-4.4-2.314-10.138-5.302-13.346zm-8.005 3.583h-26.693v-29.194zm5.307 143.227c0 1.174-1.07 1.773-2.238 1.773h-133.516c-1.157 0-2.246-.62-2.246-1.773v-176.453c0-1.154 1.089-1.774 2.246-1.774h93.445c.629 0 1.309-.221 2.309-.008v38.635c0 2.209 1.617 4.373 3.826 4.373h35.76c.184 0 .414 1.126.414 1.763z"/><path d="m27 98h100v8h-100z"/><path d="m27 67h100v8h-100z"/><path d="m27 153h100v8h-100z"/><path d="m27 122h100v8h-100z"/></g></svg>