<svg height="30" viewBox="0 0 30 30" width="30" xmlns="http://www.w3.org/2000/svg"><g fill="#fff"><path d="m16.2821667 5.8085s-.2685.10783333-.8063334.31766667c-.8196666.32683333-1.4278333.8265-1.8226666 1.50383333-.4098334.709-.6146667 1.5215-.6146667 2.4411667v2.459h-2.82v.0213333 3.244.0211667h2.82v8.3746666h.02 3.3506667.022v-8.3746666h2.8188333c.0141667-.0996667.1563333-1.1886667.4221667-3.2651667 0-.014-.0053334-.0213333-.0183334-.0213333h-3.2226666v-1.8245c0-.5083334.0191666-.82583337.0621666-.95200003 0-.044.0426667-.1505.1276667-.31633334.1263333-.214.3311667-.37.6155-.46783333.1833333-.0705.5296667-.1065 1.039-.1065h1.5055v-.01966667-2.886-.022c-.7783333-.08383333-1.5966667-.12683333-2.4596667-.12683333h-.0851666z"/><path d="m14.9991667 29.867c-8.19633337 0-14.86450003-6.6688333-14.86450003-14.8658333 0-8.19833337 6.66816666-14.8681667 14.86450003-14.8681667 8.1971666 0 14.866 6.66983333 14.866 14.8681667 0 8.197-6.6688334 14.8658333-14.866 14.8658333zm0-28.40066667c-7.4611667 0-13.5311667 6.07183334-13.5311667 13.53483337 0 7.4618333 6.07 13.5325 13.5311667 13.5325 7.462 0 13.5326666-6.0708334 13.5326666-13.5325 0-7.46300003-6.0705-13.53483337-13.5326666-13.53483337z"/></g></svg>