<svg xmlns="http://www.w3.org/2000/svg" width="24" height="24" viewBox="0 0 24 24">
  <g fill="none">
    <circle cx="12" cy="12" r="12" fill="#FFF"/>
    <path fill="#87C849" d="M13.1431579,3.80367105 C13.1431579,3.80367105 12.9038289,3.90018421 12.4248158,4.08752632 C11.6934474,4.37907895 11.1516711,4.82446053 10.7993684,5.42888158 C10.4333289,6.06006579 10.2513158,6.78551316 10.2513158,7.60522368 L10.2513158,9.79755263 L7.737,9.79755263 L7.737,12.7283553 L10.2513158,12.7283553 L10.2513158,20.1955132 L13.2762632,20.1955132 L13.2762632,12.7283553 L15.78975,12.7283553 C15.8020658,12.6397763 15.9290132,11.6688421 16.1656184,9.81638158 C16.1656184,9.80465789 16.1619474,9.79767105 16.1496316,9.79767105 L13.2762632,9.79767105 L13.2762632,8.17080263 C13.2762632,7.71784211 13.2929605,7.43398684 13.3318026,7.32160526 C13.3318026,7.28276316 13.3689868,7.18826316 13.4448947,7.03964474 C13.55775,6.84827632 13.74,6.70925 13.9938947,6.62232895 C14.1567237,6.55956579 14.4655658,6.52711842 14.9214868,6.52711842 L16.2633158,6.52711842 L16.2633158,3.91605263 C15.5693684,3.84263158 14.8394211,3.80367105 14.0700395,3.80367105 L13.9938947,3.80367105 L13.1431579,3.80367105 Z"/>
  </g>
</svg>
