<svg height="24" viewBox="0 0 24 24" width="24" xmlns="http://www.w3.org/2000/svg"><g fill="none" fill-rule="evenodd"><circle cx="12" cy="12" fill="#0a1418" r="12"/><path d="m5.40615789.09367105s-.23932894.09651316-.7183421.28385527c-.73136842.29155263-1.27314474.73693421-1.62544737 1.34135526-.36603947.63118421-.54805263 1.35663158-.54805263 2.1763421v2.19232895h-2.51431579v2.93080263h2.51431579v7.46715794h3.02494737v-7.46715794h2.51348684c.01231579-.08857894.13926316-1.05951315.37586842-2.91197368 0-.01172369-.00367105-.01871053-.01598684-.01871053h-2.87336842v-1.62686842c0-.45296052.01669737-.73681579.05553947-.84919737 0-.0388421.03718421-.1333421.11309211-.28196052.11285526-.19136842.29510526-.33039474.549-.41731579.16282894-.06276316.47167105-.09521053.9275921-.09521053h1.34182895v-2.61106579c-.69394737-.07342105-1.42389474-.11238158-2.19327632-.11238158h-.07614473z" fill="#3b5999" fill-rule="nonzero" transform="translate(7.737 3.71)"/></g></svg>