<?xml version="1.0" encoding="UTF-8"?>
<svg width="18px" height="18px" viewBox="0 0 18 18" version="1.1" xmlns="http://www.w3.org/2000/svg" xmlns:xlink="http://www.w3.org/1999/xlink">
    <title>fb_icon_header</title>
    <g id="Page-1" stroke="none" stroke-width="1" fill="none" fill-rule="evenodd">
        <g id="fb_icon_header" fill-rule="nonzero">
            <circle id="Oval" fill="#0A1418" cx="9" cy="9" r="9"></circle>
            <path d="M9.85736842,2.85275329 C9.85736842,2.85275329 9.67787171,2.92513816 9.31861184,3.06564474 C8.77008553,3.28430921 8.36375329,3.6183454 8.09952632,4.07166118 C7.82499671,4.54504934 7.68848684,5.08913487 7.68848684,5.70391776 L7.68848684,7.34816447 L5.80275,7.34816447 L5.80275,9.54626645 L7.68848684,9.54626645 L7.68848684,15.1466349 L9.95719737,15.1466349 L9.95719737,9.54626645 L11.8423125,9.54626645 C11.8515493,9.47983224 11.9467599,8.75163158 12.1242138,7.36228618 C12.1242138,7.35349342 12.1214605,7.34825329 12.1122237,7.34825329 L9.95719737,7.34825329 L9.95719737,6.12810197 C9.95719737,5.78838158 9.9697204,5.57549013 9.99885197,5.49120394 C9.99885197,5.46207237 10.0267401,5.39119737 10.0836711,5.27973355 C10.1683125,5.13620724 10.305,5.0319375 10.4954211,4.96674671 C10.6175428,4.91967434 10.8491743,4.89533881 11.1911151,4.89533881 L12.1974868,4.89533881 L12.1974868,2.93703947 C11.6770263,2.88197368 11.1295658,2.85275329 10.5525296,2.85275329 L10.4954211,2.85275329 L9.85736842,2.85275329 Z" id="Path" fill="#87C849"></path>
        </g>
    </g>
</svg>