<?xml version="1.0" encoding="utf-8"?>
<!-- Generator: Adobe Illustrator 16.0.0, SVG Export Plug-In . SVG Version: 6.00 Build 0)  -->
<!DOCTYPE svg PUBLIC "-//W3C//DTD SVG 1.1//EN" "http://www.w3.org/Graphics/SVG/1.1/DTD/svg11.dtd">
<svg version="1.1" id="DESIGN" xmlns="http://www.w3.org/2000/svg" xmlns:xlink="http://www.w3.org/1999/xlink" x="0px" y="0px"
	 width="200px" height="200px" viewBox="0 0 200 200" enable-background="new 0 0 200 200" xml:space="preserve">
<g>
</g>
<g>
	<path fill="#84898B" d="M149.5,168.252h-28v-7h28V168.252z M107.5,168.252h-28v-7h28V168.252z M65.5,168.252h-31v-7h31V168.252z
		 M164.5,162.252h-7v-28h7V162.252z M41.5,149.252h-7v-28h7V149.252z M164.5,120.252h-7v-28h7V120.252z M41.5,107.252h-7v-28h7
		V107.252z M164.5,78.252h-7v-28h7V78.252z M41.5,65.252h-7v-28h7V65.252z M133.5,38.252v-7h31v7H133.5z M119.5,38.252h-28v-7h28
		V38.252z M77.5,38.252h-28v-7h28V38.252z"/>
</g>
</svg>
