<svg height="159" viewBox="0 0 163 159" width="163" xmlns="http://www.w3.org/2000/svg"><path d="m80.667 36.311c9.826 0 17.794-7.965 17.794-17.796 0-9.825-7.968-17.793-17.794-17.793-9.827 0-17.795 7.968-17.795 17.793 0 9.83 7.968 17.796 17.795 17.796zm12.458 8.689h-24.922c-6.115 0-11.203 4.387-11.203 10.673v39.271c0 4.412 2.509 8.982 6.245 11.32-.017.303-.245.607-.245.918v39.271c0 6.285 3.404 12.547 8.101 12.547h19.131c4.701 0 7.769-6.262 7.769-12.549v-39.27c0-.214-.226-.418-.231-.627 3.812-2.23 6.231-7.007 6.231-11.613v-39.27c-.001-6.284-4.755-10.671-10.876-10.671z"/><circle cx="140.986" cy="16.234" r="15.513"/><path d="m151.852 40h-21.728c-5.334 0-10.124 3.15-10.124 8.628v34.235c0 3.576 2.16 7.098 5.189 9.117-.07.498-.189 1.013-.189 1.554v34.235c0 5.479 3.552 11.231 7.646 11.231h16.682c4.096 0 7.673-5.752 7.673-11.231v-34.235c0-.476-.106-.929-.157-1.371 3.049-1.985 5.157-5.614 5.157-9.3v-34.235c-.001-5.478-4.815-8.628-10.149-8.628z"/><circle cx="21.494" cy="16.234" r="15.513"/><path d="m32.358 40h-21.728c-5.334 0-10.63 3.15-10.63 8.628v34.235c0 3.561 2.168 7.063 5.196 9.089-.076.506-.196 1.03-.196 1.581v34.234c0 5.48 4.06 11.232 8.155 11.232h16.682c4.093.001 7.163-5.751 7.163-11.231v-34.234c0-.463-.104-.907-.15-1.338 3.051-1.979 5.15-5.627 5.15-9.334v-34.234c0-5.478-4.309-8.628-9.642-8.628z"/></svg>