<svg height="6" viewBox="0 0 900 6" width="900" xmlns="http://www.w3.org/2000/svg"><g fill="#d3205c" transform="translate(-1 -1)"><path d="m1.212 3.38c-.472.153-.198.499 1.103.431l.923-.588zm8.794 1.079c1.529-.286 3.29-.789 2.29-1.327-1.507.564-1.885.33-3.505 1.005-1.31.069-2.281-.188-2.069-.404-.459.152-2.035-.125-2.723.243 1.705.454 3.857.471 6.098.091.481.131.017.284-.091.392zm127.602.805-.824-.068c.227.036.505.058.824.068zm79.054.251c-.603.017-.855.073-.881.127.557-.039 1.017-.077.881-.127zm13.509.634c-.292-.019-.538-.025-.799-.039.305.055.61.084.799.039zm-92.563-.885 2.116.183c.143-.191-1.09-.142-2.116-.183zm-110.027-2.237c-.438.03-.807.085-1.146.157.365-.026.716-.047 1.082-.063.018-.033.035-.059.064-.094zm75.184 2.744h-.644c-.189.067-.365.149-.532.24zm-26.746.113c.609.02.811-.479 1.039-.694-.34.205-.786.303-1.314.343-.009.094.068.206.275.351zm-42.414-.84-.751.069c.194-.021.521-.043.751-.069zm88.303.816c.043.072.138.139.245.178 0-.062-.098-.122-.245-.178zm747.98-4.408c-.019.036.013.058.009.089.149-.051.198-.086-.009-.089zm31.036 2.442-.441.026c-.039.096-.088.189-.088.282zm-646.046 2.875c-.055-.006-.068-.006-.112-.01-.649.056-.28.047.112.01zm226.748-.57c-2.566-.443 4.184-.576.304-1.067.364.196-3.504.781-.304 1.067zm-453.349-3.106c.361-.006.73-.01 1.094-.007-.5-.016-.828-.014-1.094.007zm453.657 2.039c0-.001 0-.004 0-.004l-.396-.046c.158.022.251.033.396.05zm-170.147 1.286c-.116-.087-.342-.153-.58-.219.022.052.147.114.58.219zm-42.41-.673 1.049.066c-.415-.044-.752-.059-1.049-.066zm64.412-.051c.571.037.769.104 1.546.037-.081-.024-.147-.043-.236-.061-.28.071-.658.102-1.31.024zm22.914-.022c-.121-.039-.279-.065-.422-.103-.222.011-.496.019-.72.029zm443.556-3.918c.495.14.816.293 1.055.447-.353-.353 3.009-.484-1.055-.447zm-772.656 1.555c.134-.125.322-.188.674-.216-.262.006-.518.017-.76.028-.073.073-.081.145.086.188zm307.066-1.549 3.641.071c-1.017-.048-2.331-.073-3.641-.071zm301.206.209.84-.061c-.334-.009-.629.006-.84.061zm-286.76-.222c.657.173 1.341.275 2.057.342.149-.039.324-.071.42-.129zm452.202.459c-.004-.002-.004-.005-.004-.005s0 .002.004.005z"/><path d="m825.286 1.001c-3.468-.011-1.613.643-2.351 1.02-4.132.19-1.917-.48-3.331-.813-2.585.174-4.563.778-6.487.753-.142-.106-.52-.146-.08-.281-2.733.523-8.111.034-11.294.689-.242-.058-.359-.113-.426-.164.522.328.611.662.506.899-1.556.014-2.884.417-3.473-.011.958.013 1.033-.161 1.477-.294l-1.626.187c-1.472-.614 2.223-.215 2.215-.67-3.172.202-6.864.716-9.309.544-.513-.602 5.696-.209 2.436-.741l3.774.226c-2.895-.946 2.29.065-.372-.948-4.959-.17-5.537.312-10.486.14-1.103.337.373.494-.729.832-7.023.609-5.555-1.51-10.714-.702-1.333.401-1.842 1.164-5.529.765l1.243-.683c-4.794-.063-2.72.981-7.765.529.896-.271 3.775-.232 3.051-.312-3.271-.534-2.304.389-4.801.391l-.526-.603c-5.106.098-10.731.54-16.397.654.312-.179 1.279-.368-.043-.552-7.138.309-15.237-.06-22.132-.412l-2.62.522c-.619-.005-1.138-.233-.471-.335-2.693-.195-.14.331-1.428.536-1.523.036-2.021-.298-1.055-.456-4.732.446-13.478.962-18.47.411l.976-.156c-3.89-.208-4.377 1.071-7.982.589l.69-.093c-8.438-.219-17.74.266-24.188-.514-1.217.751-8.345-.326-8.882.719-4.82-.514-3.446-.701-10.226-1.043-1.808-.047-2.703.654-4.932.766l-.066-.547-3.032.577-1.625-.651-2.092.141c.834.032 1.779.246 1.647.403-3.283.25-7.993-.375-8.082-.655l-7.76.47c.166-.219 1.476-.295 2.495-.438-4.136.561-.761-.577-4.544-.061.501.125-.272.327-.36.437-1.899-.329-6.201-.328-9.387-.185l.606-.378c-5.757-.091-12.13.191-18.595.189 2.321.174 1.789.828-.092.893l-.765-.577c-1.222.358 1.978.216-.527.656-2.417-.065-1.63-.656-.246-.846l-2.936.204c-.168-.171.51-.264.686-.484-1.195.361-5.066-.575-6.799.05l-.167-.171c-6.456 0-9.383.201-14.646.234-.098.5-2.155.392-3.719.795-3.859-.156-8.156-.544-12.815-.496-3.273.249-.958.423-2.417.72-.255-.455-4.905-.407-2.496-.736-5.591.079-7.137.098-14.204.474.773.184 1.636.265 1.192.419-1.279.076-2.923-.187-2.738-.406l.334-.047c-7.924.689-18.336-1.308-24.641-.356l.355-.047-6.549.5c-3.023-.075 1.803-.344-.431-.622-7.058.764-11.171-.1-16.989.41-4.527-1.337-15.987.109-22.083-.741l.359.312c-1.573.312-1.899-.181-3.063-.251.162.246 1.713.283.733.456-13.322.392-27.498-.438-41.152-.71-4.995-.08-2.813 1.637-9.121.888l1.781-.587c-10.066.71-20.606-.006-30.461.599.585-.136.6-.311 1.562-.311-2.083-.424-7.704-.012-7.737.334-1.534-.04-.358-.314-1.31-.49-2.087-.249-5.236.548-6.353.125-.193-.069.581-.138.967-.173-1.36.208-6.351-.046-5.041.443-3.702-.231-7.077.225-10.035-.063-1.919.551-6.337-.259-6.941.518.257-.803-6.498-.641-8.838-.263.782-.241-2.039-.248-1.121-.585-2.674.014-5.122.165-4.654.577-4.93-.956-9.881.784-12.671-.445-7.935.437-15.27.734-22.407.928.244-.8 7.889-.085 7.575-.924-6.763.334-10.666 1.025-17.386.838-1.735-.108.987-.349 1.571-.485-6.759.333-13.076-.062-19.095.379.02-.075.661-.155 1.274-.217-1.184.026-2.753-.118-2.619.25l1.151-.102c1.905.527-4.693 1.106-4.904 1.386 2.001-1.044-5.948-.256-2.767-1.576-.784.069-1.76.242-1.575.486-1.163-.071-1.532-.213-.36-.49-4.243.203-2.731.587-6.579.582.009-.176.786-.245 1.177-.452-1.938.344-3.9.69-7.15.543.188-.105-.189-.244.787-.241-5.588.058-9.513.922-15.652.597 1.798-.768-2.087-.25-2.419-.913l-3.289.201 1.314.318c-2.89-.008-5.437.477-7.917.262l2.142-.275-5.409.13 3.064.249c-2.916.344.324.838-3.52.657.775-.069-2.883-.007-4.406-.396 0 0 .016 0 .016-.002-1.433.213-2.89.437-5.033.273-.558-.211.434-.732.069-.874-1.396.556-6.755.159-8.533.75.598-.139.624-.486.427-.558l-1.183.45c-1.338-.141-1.535-.211-1.32-.488-4.026-.08 1.292.838-3.492.481.377-.038.198-.105.978-.175-4.799-.184-9.261.295-13.676.077-1.31-.666 3.852-.167 2.357-.727-6.359.125-13.149.809-19.306.659l1.147.073c-.842.942-4.582-.461-7.691-.015.761-.07.992-.521.789-.418-4.212-.147-8.609.241-14.981.542l.782-.243c-2.478-.213-6.539-.119-9.215-.226-.791.24-2.327.203-1.391.554-8.285-1.37-15.76.751-23.103-.39.873-.003 2.083-.212 1.391-.213l-6.251.229c.503.41.829.247 2.143.564-.789.245-2.549.435-4.1.437 2.808-.275-.036-.657-1.251-.887.207.126-.208.265-.103.393-3.272-.728-.532.824-4.997.336l.23-.215c-1.666.11-3.195.399-5.001.338-.747-.474 1.772-.223 1.885-.613-2.53.029-4.968.902-7.262.432 1.07-.133 2.61-.138 3.68-.27-2.496-.555-2.784-.413-4.634-.498l.185.013-4.284-.247 1.093.15c-3.146 1.24-6.435.231-10.678 1.045 4.126-.771.67-.443.983-.981-1.083-.147-2.74-.314-2.271-.466-2.007.436-3.367-.338-6.196.299-.135-.174-2.156-.016-1.71-.451-2.615.14.62.302.404.52-4.028.593-9.486-.711-15.278.105-5.003.338-5.917.922-10.551 1.217-1.576-.274 1.268-.631 1.268-.631-2.529-.253-4.428-.204-6.803-.003.477-.151-.024-.278-.751-.473-1.906.048-1.265.632-3.791.378.429-.193.978-.503 1.894-.695-2.25.159-4.467.485-6.799.646-.622-.303 1.4-.46 2.222-.659-2.617.138-6.786.279-7.59.757l1.688.17c-.965.023-.506-.41.202-.497 2.25-.376 3.244.162 3.375.334l-1.656.114c1.714 1.014 6.669-.169 10.013-.112l-1.387.74 3.426-.617c.731.192 1.232.604-.42.715 2.409.363 2.125-.265 4.191.141.22.062.12.1-.09.128l2.336-.224c-.455.156.4.521-1.044.416 4.21.422 6.772-.56 8.36 0l-.351.046c5.828-.255.562-.543 4.928-1.183l2.956 1.333.566-.542c.604.019 1.791.059 1.58.274 2.233-.371-.386-.235.905-.586 2.903.491 7.983-.238 8.645.625 1.034-.414-2.769-.313.314-.604.896.927 3.568-.162 6.22.262-.807.479-3.314.229-.664.651 1.595-.81 5.159.176 7.385.019.099-.646 4.852-.273 8.597-.491-.24.217 7.042.349 10.534.575l-.098.108c.661-.648 4.257-.528 6.873-.667-.102.39-.568.544-1.987.72l2.463-.006c.576-.209 1.341-.319 2.938-.396l-.617.485c3.28-.028 6.584-.577 10.806-.256.232-.454-3.367-1.264 1.083-1.569.167.245.339.665-.832.767.378-.032 1.36-.204 2.133-.102l-1.781.416c1.926.18 1.004-.349 2.533-.31-.022.35 1.138.248.923.526-.391.034-1.34-.144-1.927-.006 1.733.062 3.826.266 4.52.531-.153-.199-.009-.472 1.259-.519 3.272-.027 1.125.419 3.032.599.793-.244 2.885.008 2.931-.517.958.002 1.134.244 1.507.388 1.692-.233 7.92-.074 6-.628l-.434-.037c.082-.011.176-.013.275-.024-.013 0 0 0-.013 0h.013c5.54-.524 11.534.286 17.047.062l-.009.174c3.29-.203 7.317-.125 9.658-.504.971-.002 2.302.315 1.89.526 2.511-.134 2.795-.33 6.424-.046-2.522.31.879.271-2.59.226 3.276.148 4.019.43 7.515-.054-1.185.45 2.465.562 4.019.427l-2.296-.317c1.747-.067 3.276-.029 4.83.009l-.833.592c6.695.711 12.037-1.233 17.145-.035 1.765-.414-3.636-.287-2.061-.771 3.074.076 6.291.922 7.253.922 4.217.322 3.92-.866 8.335-.646-.567-.209-1.108-.77 2.182-.972 3.078.075 3.795.879 1.854 1.05-.734.018-1.092-.05-1.061-.121-.996.077-2.296.17-1.077.397l.397-.211c1.529.213 5.763.188 4.769.532 2.327-.203.995-.346-.728-.455 3.946.303 6.164.006 10.229.207-.649-.115-1.247-.361-.604-.36 5.968.256 2.619-.4 6.656-.497 2.295.316-.81.766 3.25.493 2.485.215.531.56-.451.731 3.696-.41 6.921.262 9.038.332l-1.944.172c1.156-.103 2.114-.1 3.091-.102l-1.125-.42c1.146.072 2.116.073 2.092.249 1.184-.274-.908-.699 1.426-1.078 1.532.214 4.649-.232 5.186.324-4.808-.185.534.562-3.529.655.783-.068 1.738-.066 2.89.007.176.063-.163.116-.472.149 4.599.494 2.096-.637 6.858-.627-.598.315 1.117.598 1.894.528-1.925-.005-.927-.524.833-.769 3.057.242 3.317-.185 4.913-.157l-1.826-.112c.618-.315 2.142-.276 4.268-.377.188.244-1.927.171-1.167.277 2.357-.558 5.347.566 8.635.191 1.529.211.158.592 1.499.734 3.688-.411 4.005.429 7.879.088-1.125-.423-1.314-.318 1.413-.734l-6.372.309 4.087-.62c-1.918-.004-4.054.271-5.208.199 1.945-.346 1.747-.242.819-.592 2.646.633 5.221-.375 8.27.052l-.085 1.047c4.586.466 8.133-.545 14.083-.286l-1.914-.181c.797-.417 3.672-.062 5.603-.231-.175.351 1.031.478 1.855.693-.104-.261 4.351.021 4.882-.681l2.659.461c4.806.185 5.465-1.003 10.09-.888-1.387.382.709.626-2.375.902 1.538.002 2.929.063 2.947-.179.905.219 4.27-.476 5.693-.146.652-.152.854-.521 2.586-.491.186.075-.008.176-.008.176.009-.172 2.71-.236 1.194-.623 4.762 1.088 13.265-.092 17.406.842 3.365-.12 7.416-.236 10.471-.263-.194.103-.009.173-.585.136 4.217.322 2.573-1.007 7.376-.647 2.449.564-2.542.31-1.016.521.683 1.151 5.781-.162 9.018.508l-.778.071c2.466.391 6.004-.442 10.032-.364 0 0-.194.103-.018.174 2.744-.588 7.963-.787 11.83-.953-1.197.451-1.759.238-1.017.696 1.736-.066-.514-.735 2.947-.868 1.129.247 3.632.46 3.97.948l-3.271.029c1.687.631 4.23-.024 5.957.084l-.211.276c5.012-.096 5.067-.792 10.455-.746l-.554-.21c2.934-.692 2.466.388 5.403-.128l.896.697c1.945-.17 6.794-.682 10.272-.816-1.971.521-6.038.789-8.55 1.101 1.927.004 6.54-.058 7.535-.403-.776.067-1.751.239-2.517.134 2.354-.552 5.467-.825 9.297-.817-.665 1.357 10.005.334 12.804 1.387 6.777-.511 13.47.202 21.377.114-2.817-1.056 2.312-.032 1.806-1.115 1.842-.07 2.544-.056 2.712.016l5.585.643c1.336.314-1.749.24-1.572.483 4.034.081 1.695.459 4.367.745-.554-.391 1.402-.559 3.696-.411l-3.238-.498c5.615-.581 4.877.906 10.551.33l-1.788.345c2.908-.207 10.754-.004 13.597-.879.519.127 1.204.422-.079.502 6.97.123 15.495-.941 20.918-.41l-.526.266c1.301-.077 2.249-.5 3.88-.232-.083.108-.514.264.093.278.677-.092 3.44-.468 5.167-.313l-1.467.301c6.794.339 10.411-.736 16.111-.923-.009.778 5.348 1.028 8.012 1.151l-.093.111c7.915.089 13.431-.659 20.751-.973 4.562.843 15.417.342 22.738.812-1.125-.142.168-.61 1.468-.688 1.724.156 4.738-.546 4.475.17l-.61-.014c1.3.702 4.82.512 7.57.529l.453-.938c7.217 1.356 18.849-.519 22.796.699 1.73-.236 3.89-.234 5.607-.471l-.088.503c4.816.125 7.224.187 13.176.062l-1.213.358c3.356.03 4.223-1.452 7.321-1.484l.939.747c5.854-.015 11.787.639 17.57-.048-.096.109-.268.328-1.217.358 2.747.018 10.656.499 9.654-.529.08.67 6.038.059 9.202-.238l-.482.496c2.663-.636 2.741-.809 6.469-.987.88.065.773.396-.396.271 2.946.256 2.286-.471 5.863-.211l-1.327.316c3.032.035 2.787-.133 4.448-.502 1.897-.201 5.748.119 6.201.563.399-.271 2.06-.639 3.844-.51.243.169-.412.272-.733.325 5.067.331 7.52-.582 11.01-.098.079.162.303.242.589.292-4.022-.01-7.261-.032-6.953-.069 0 .456 3.252.534.673 1.167 2.602-.348 7.053-1.1 10.229-.889.146.045.295.088.418.158l-.329.053c.729.045 1.394.002 2.004-.076 1.016.074 1.647.129 2.623.136.382.377 3.727.2 5.346.217-.142-.498 1.985-.42-.01-.83.264.036-.303.061-1.38.082-.247.016-.537.021-.695.052.034-.015.07-.03.115-.045-1.063.017-2.457.028-4.034.039 1.278-.256 2.609-.469 4.406-.194.832-.321 1.738-.651 2.251-.808 2.229.694 6.509 1.065 7.106 1.495 4.943-.286 11.654-.194 14.749-1.134 1.405-.123 1.625.266 2.152.414-.809.094-1.775.081-2.219.216 2.812-.242 8.337-.1 9.001-.755 3.55.292-1.982.604 2.886.493l-.653.199c9.592 1.039 15.556-1.683 26.195-.351-.732-.081-1.102-.118-1.251-.229 12.115.582 24.948-.579 36.915.352 3.4.188 3.762-.232 5.836-.553l.737.535 3.544-.62c5.013-.458 8.723 1.305 15.077.446l-.826-.361c2.281.065 7.233-.219 6.854.195.229-.065.748-.375 1.64-.188l.076.279 5.606-.484c4.352.197-.663 1.112 5.688 1.161 2.355-.11 6.714-.821 5.832-1.009-.958-.014-2.444-.173-2.527-.454l2.158-.149c.382-.824 2.034-1.671-3.274-2.245l-3.688.509-1.199-.398 3.106-.028c-1.763-.376-2.878-.041-4.122.19-.304-.213-.831-.363-1.56-.44l-3.62.791c-.439-.322 1.615-.641-.819-.817-1.69.367 1.637.723-1.167.966-1.78-.373-1.262-.68-3.332-.357-.299-.212.146-.348.963-.442-1.842.256-4.883.111-5.828.552-1.85-.461-6.235.126-6.06-.657-.581.188-3.252.617-4.94.65 3.085-.938-6.354-.05-5.545-1.053-2.286.843-8.28.38-12.333.853.23-.067.67-.203 1.028-.161-2.285-.067-2.947-.322-4.415-.48-.287.695-3.847.858-5.762 1.289-2.804-.668 1.696-.819.8-1.461.149.564-4.852.567-3.896 1.035-2.152-.411-1.845-.198-2.956-.773-.366.869-1.991.148-3.766.684-3.104-.425-.81-.813-4.211-.546-1.59-.269 1.429-.581 1.429-.581zm-81.003 1.574c0-.004 0-.008 0-.009.703-.013 1.296-.023 1.67-.031-.347.007-.822.017-1.67.04zm-6.799.014c.826.019 1.854.021 2.944.016.246.172-.009.351-.695.342.371-.115-1.237-.213-2.249-.358zm14.442 3.442c-1.073.073-1.442-.024-1.583-.128.502-.01 1.096-.026 1.882-.062.035-.019.093-.038.119-.062-.093.097-.208.187-.418.252z"/><path d="m753.855 5.377c.158-.012.24-.031.443-.037-.221-.045-.435-.079-.646-.111-.127.055-.268.106-.379.155.195-.001.397-.003.582-.007zm-617.213-.193.143.012c-.117-.021-.229-.041-.301-.072.093.022.093.038.158.06z"/><path d="m643.446 1.717.018.127.589-.11z"/><path d="m99.119 3.504c-.072-.042-.213-.089-.496-.127.024.032.239.078.496.127zm-16.201-.096-2.292-.177c.992.1 1.712.146 2.292.177zm-12.461-.237c-.154.088-.193.154-.24.213.014 0 .018 0 .028.003zm198.016-.76c.172-.004.339-.011.481-.024 1.129-.097.364-.059-.481.024zm-58.911 1.215c.619-.09 1.237-.179 1.89-.236-1.048-.038-1.864-.047-1.89.236zm124.717-1.876c-.009.004 0 .005-.009.01.139-.003.266 0 .399 0zm-120.087 1.645c-1.048-.097-1.92-.075-2.74-.005.863.032 1.876.083 2.74.005zm-197.714-.403-.603-.02c.008.034-.029.06-.068.081zm-.671.06-.666.061c.305-.001.572-.006.666-.061zm-2.065.186 1.399-.125c-.49-.003-1.085-.016-1.399.125zm19.224-.03.189-.181c-.103.037-.176.098-.189.181zm5.008-.058c-1.191-.04-3.001-.382-4.669-.268l-.154.144c.778-.269 3.693.431 4.823.124zm20.944 2.219-4.198-.143c.734.191 1.7.449-.203.497 5.296.573-1.102-.428 4.401-.354zm13.025.267c-2.255.092.031.279-.095.389 1.435-.176 1.778-.221.095-.389zm94.075-.082-.22.454c1.736-.068.013-.176.22-.454z"/><path d="m183.97 3.193-1.697-.279-.797.416z"/><path d="m194.633 6.415-.756.064 2.899-.166z"/><path d="m352.64 6.115-.536-.555c-1.172.098-1.414.726.536.555zm68.194-.632c.747.281 2.67.459 3.843.184-1.533-.037-3.06-.254-3.843-.184z"/><path d="m625.416 6.215-1.372.188 2.589-.157z"/></g></svg>