<svg height="30" viewBox="0 0 30 30" width="30" xmlns="http://www.w3.org/2000/svg"><g fill="#fff"><path d="m15.0033333 29.867c-8.19916663 0-14.8698333-6.6688333-14.8698333-14.8658333 0-8.19833337 6.6705-14.8681667 14.8698333-14.8681667 8.1955 0 14.8633334 6.66983333 14.8633334 14.8681667 0 8.197-6.6678334 14.8658333-14.8633334 14.8658333zm0-28.40066667c-7.46399997 0-13.53649997 6.07183334-13.53649997 13.53483337 0 7.4618333 6.0725 13.5325 13.53649997 13.5325 7.4605 0 13.53-6.0708334 13.53-13.5325 0-7.46300003-6.0696666-13.53483337-13.53-13.53483337z"/><path d="m21.7411667 15.0366667c-.0106667 0-.0221667 0-.0341667-.0025 0-.646.0146667-1.292-.0026667-1.937-.0163333-.6216667-.0406666-1.2443334-.1031666-1.8616667-.1403334-1.3845-.9645-2.34033333-2.3271667-2.59966667-.7183333-.1345-1.4618333-.156-2.1946667-.16883333-1.387-.0245-2.7758333-.02333333-4.1646666-.0025-.6906667.01033333-1.3886667.038-2.072.14316667-1.18433337.18783333-1.99400003.86266666-2.32083337 2.03666663-.104.3763334-.16583333.7758334-.17466666 1.1648334-.03683334 1.4845-.05766667 2.9698333-.0535 4.4521666.00433333.941.02433333 1.8886667.10833333 2.8273334.12316667 1.409.97916667 2.3715 2.3666667 2.621.7118333.1285 1.4496666.1475 2.1785.1591666 1.3691666.0228334 2.7381666.0173334 4.111.002.6246666-.0086666 1.2536666-.0423333 1.877-.1035.5833333-.059 1.1311666-.2483333 1.5991666-.6191666.7611667-.6063334 1.0555-1.441 1.1005-2.3671667.0608334-1.2455.0721667-2.4963333.1063334-3.7443333zm-6.7281667-8.07600003c1.1008333.01766666 2.202.0295 3.3015.05983333.9556667.027 1.8811667.1965 2.71.703 1.0878333.66566667 1.7541667 1.64283333 1.9686667 2.8871667.1276666.744.1705 1.5063333.1845 2.2643333.0243333 1.6263333.0145588 3.2556667-.0035 4.8811667-.0105.8535-.0388334 1.71-.3218334 2.5321666-.5485 1.5908334-1.6658333 2.5605-3.3048333 2.8708334-.7395.1416666-1.5083333.1736666-2.2638333.1848333-1.6216667.0255-3.243.0143333-4.865-.0013333-.8531667-.0101667-1.7096667-.0385-2.53283337-.3193334-1.59433333-.5451666-2.56166666-1.6626666-2.87816666-3.3015-.14233334-.7386666-.174-1.5058333-.18533334-2.2631666-.02516666-1.625-.01509185-3.255.0025-4.8818334.009-.8523333.0375-1.7088333.321-2.533.55-1.59016663 1.66666667-2.55849997 3.30483337-2.8693333.741-.13883333 1.509-.15616667 2.2671666-.18616667.7621667-.02983333 1.53-.00716666 2.2948334-.00716666z"/><path d="m14.9983333 17.8953366c1.4951667.0023301 2.7303372-1.2286699 2.7303372-2.7256699.0024962-1.4965-1.2320038-2.7305-2.7278372-2.7305-1.4983333 0-2.7278333 1.228-2.7295017 2.7261666-.0016649 1.4965 1.2286684 2.7286667 2.7270017 2.7300033m4.2066667-2.7251699c0 2.3353333-1.8721667 4.2031666-4.209 4.2031666-2.3485-.0013333-4.2026667-1.8733333-4.2010011-4.2466666 0-2.3096667 1.8925011-4.1676667 4.2448344-4.1640055 2.2995 0 4.1651667 1.8875055 4.1651667 4.2075055m1.1498333-4.3788334c0 .5508334-.442.9973334-.984.9956714-.5451666-.0050047-.9935-.4565047-.99035-.9966714.00635-.5396666.44285-.9753333.9825167-.9765125.5596667-.00265413.9895.4206792.9918333.9775125"/></g></svg>