<svg height="182" viewBox="0 0 182 182" width="182" xmlns="http://www.w3.org/2000/svg"><g fill="#d3205c"><path d="m106.675 136.08-.155.009c-2.378.137-4.838.279-7.51.279-6.968 0-13.016-1.043-19.046-3.287-.539-.199-1.118-.299-1.721-.299-1.518 0-3.208.67-4.306 1.708-.039.035-.074.072-.111.109l-9.525 9.731c-3.883 3.781-8.825 5.863-13.922 5.863-5.303 0-10.188-2.229-13.758-6.281-6.898-7.814-6.357-18.653 1.317-26.358 9.717-9.761 31.504-31.284 33.393-33.149 4.505-3.682 9.628-5.79 14.08-5.79 7.076 0 12.434 5.229 15.925 15.543.44 1.301 1.519 2.286 2.854 2.607 1.34.32 2.744-.065 3.728-1.025l16-15.593c1.358-1.311 3.271-4.064.842-7.74-9.638-14.861-23.525-22.601-41.283-23.006-13.421-.287-25.118 4.297-34.743 13.635l-33.514 33.452c-11.953 12.306-16.581 27.624-13.383 44.297 4.46 23.385 26.037 41.019 50.188 41.019 11.582 0 22.333-4.323 30.253-12.151l27.419-26.713c1.196-1.165 1.543-2.951.869-4.479-.673-1.53-2.225-2.478-3.891-2.381zm-30 27.862c-6.527 6.451-15.051 9.861-24.65 9.861-17.328 0-38.054-12.098-42.332-34.521-2.723-14.2 1.067-26.722 11.222-37.176l33.43-33.368c7.763-7.531 17.177-11.35 27.979-11.35.327 0 .653.004.977.01 14.44.329 25.842 6.422 33.911 18.112l-10.641 10.37c-3.557-7.246-10.01-15.267-21.159-15.267-8.66 0-15.815 4.844-19.31 7.733-.091.074-.178.153-.262.236-.233.231-23.436 23.145-33.57 33.325-10.62 10.663-11.312 26.349-1.647 37.295 5.108 5.796 12.124 8.989 19.757 8.989 7.194 0 14.121-2.889 19.571-8.201l8.699-8.885c5.802 1.998 11.654 3.041 18.148 3.23z"/><path d="m180.115 41.527c-4.462-23.385-26.039-41.019-50.189-41.019-11.582 0-22.333 4.323-30.253 12.151l-27.421 26.715c-1.195 1.166-1.542 2.952-.868 4.479s2.217 2.476 3.892 2.379l.148-.008c2.38-.138 4.842-.281 7.519-.281 6.966 0 13.013 1.044 19.043 3.288.539.198 1.118.299 1.721.299 1.52 0 3.211-.672 4.31-1.711.036-.035.071-.071.106-.105l9.527-9.73c3.881-3.781 8.825-5.863 13.922-5.863 5.302 0 10.187 2.229 13.758 6.282 6.898 7.813 6.357 18.652-1.317 26.357-9.717 9.759-31.502 31.281-33.393 33.15-4.504 3.681-9.627 5.789-14.079 5.789-7.076 0-12.435-5.229-15.926-15.544-.44-1.302-1.519-2.286-2.854-2.607-1.339-.321-2.743.066-3.728 1.025l-15.998 15.591c-2.316 2.233-2.617 5.066-.844 7.742 9.636 14.861 23.523 22.64 41.283 23.044.384.009.764.051 1.145.051h.004c12.957 0 24.246-4.617 33.594-13.686l33.514-33.47c11.954-12.306 16.581-27.645 13.384-44.318zm-19.08 38.68-33.429 33.406c-7.764 7.53-17.179 11.388-27.983 11.388h-.004c-.324 0-.648-.042-.969-.049-14.441-.33-25.843-6.44-33.911-18.132l10.641-10.381c3.556 7.247 10.011 15.264 21.16 15.264 8.659 0 15.813-4.847 19.308-7.734.091-.075.179-.155.263-.238.233-.23 23.436-23.147 33.57-33.326 10.62-10.663 11.312-26.349 1.647-37.295-5.108-5.797-12.125-8.99-19.757-8.99-7.194 0-14.121 2.888-19.57 8.2l-8.702 8.885c-5.803-1.999-11.652-3.041-18.146-3.229l20.123-19.606c6.527-6.45 15.051-9.861 24.65-9.861 17.328 0 38.054 12.098 42.332 34.522 2.722 14.198-1.068 26.72-11.223 37.176z"/></g></svg>