<svg height="30" viewBox="0 0 30 30" width="30" xmlns="http://www.w3.org/2000/svg"><g fill="#fff"><path d="m14.9991667 29.867c-8.19650003 0-14.86483337-6.6688333-14.86483337-14.8658333 0-8.19833337 6.66833334-14.8681667 14.86483337-14.8681667 8.1978333 0 14.8666666 6.66983333 14.8666666 14.8681667 0 8.197-6.6691666 14.8658333-14.8666666 14.8658333zm0-28.40066667c-7.46133337 0-13.53150003 6.07183334-13.53150003 13.53483337 0 7.4618333 6.07016666 13.5325 13.53150003 13.5325 7.4623333 0 13.5333333-6.0708334 13.5333333-13.5325 0-7.46300003-6.0708333-13.53483337-13.5333333-13.53483337z"/><path d="m8.77566667 5.98733333c1.07183333 0 1.94200003.8705 1.94200003 1.943 0 1.072-.87033337 1.945-1.94200003 1.945-1.07416667 0-1.94366667-.873-1.94366667-1.945 0-1.0725.86933333-1.943 1.94366667-1.943zm-1.6765 5.36133337h3.35266663v10.7831666h-3.35266663zm5.45483333 0h3.2155v1.472h.0455c.447-.8473334 1.5405-1.7411667 3.1703333-1.7411667 3.3918334 0 4.018 2.2336667 4.018 5.1375v5.915h-3.347v-5.243c0-1.2511667-.0248333-2.8611667-1.7421666-2.8611667-1.7438334 0-2.0095 1.3626667-2.0095 2.7691667v5.335h-3.3506667z"/></g></svg>