<svg xmlns="http://www.w3.org/2000/svg" width="30" height="38" viewBox="0 0 30 38">
  <path fill="none" stroke="#FFF" stroke-width="2" d="M25.1019802,15.779802 L22.8813861,15.779802 L22.8813861,9.1178218 C22.8813861,4.21306931 18.9049505,0.23683168 13.9992079,0.23683168 C9.0948515,0.23683168 5.1180198,4.21326733 5.1180198,9.1178218 L5.1180198,15.779802 L2.89742574,15.779802 C1.67623762,15.779802 0.67762376,16.7786139 0.67762376,18 L0.67762376,33.5433663 C0.67762376,34.7645545 1.67623762,35.7631683 2.89742574,35.7631683 L25.1021782,35.7631683 C26.3223762,35.7631683 27.3225743,34.7645545 27.3225743,33.5433663 L27.3225743,18 C27.3225743,16.7788119 26.3223762,15.779802 25.1019802,15.779802 Z M11.1805941,31.0308911 L13.0233663,26.229901 C12.089505,25.8176238 11.4376238,24.8843564 11.4376238,23.7982178 C11.4376238,22.3306931 12.6283168,21.139604 14.0960396,21.139604 C15.5641584,21.139604 16.7540594,22.3306931 16.7540594,23.7982178 C16.7540594,24.890297 16.0934653,25.8229703 15.1512871,26.230495 L16.9928713,31.0308911 L11.1805941,31.0308911 Z M18.4405941,15.779802 L9.5590099,15.779802 L9.5590099,9.1178218 C9.5590099,6.66891089 11.550099,4.67722772 13.9992079,4.67722772 C16.4487129,4.67722772 18.4405941,6.66910891 18.4405941,9.1178218 L18.4405941,15.779802 Z" transform="translate(1 1)"/>
</svg>
