<svg xmlns="http://www.w3.org/2000/svg" width="28" height="36" viewBox="0 0 28 36">
  <path fill="#FFF" fill-rule="evenodd" d="M31.1019802,17.779802 L28.8813861,17.779802 L28.8813861,11.1178218 C28.8813861,6.21306931 24.9049505,2.23683168 19.9992079,2.23683168 C15.0948515,2.23683168 11.1180198,6.21326733 11.1180198,11.1178218 L11.1180198,17.779802 L8.89742574,17.779802 C7.67623762,17.779802 6.67762376,18.7786139 6.67762376,20 L6.67762376,35.5433663 C6.67762376,36.7645545 7.67623762,37.7631683 8.89742574,37.7631683 L31.1021782,37.7631683 C32.3223762,37.7631683 33.3225743,36.7645545 33.3225743,35.5433663 L33.3225743,20 C33.3225743,18.7788119 32.3223762,17.779802 31.1019802,17.779802 Z M17.1805941,33.0308911 L19.0233663,28.229901 C18.089505,27.8176238 17.4376238,26.8843564 17.4376238,25.7982178 C17.4376238,24.3306931 18.6283168,23.139604 20.0960396,23.139604 C21.5641584,23.139604 22.7540594,24.3306931 22.7540594,25.7982178 C22.7540594,26.890297 22.0934653,27.8229703 21.1512871,28.230495 L22.9928713,33.0308911 L17.1805941,33.0308911 Z M24.4405941,17.779802 L15.5590099,17.779802 L15.5590099,11.1178218 C15.5590099,8.66891089 17.550099,6.67722772 19.9992079,6.67722772 C22.4487129,6.67722772 24.4405941,8.66910891 24.4405941,11.1178218 L24.4405941,17.779802 Z" transform="translate(-6 -2)"/>
</svg>
