<?xml version="1.0" encoding="utf-8"?>
<!-- Generator: Adobe Illustrator 16.0.0, SVG Export Plug-In . SVG Version: 6.00 Build 0)  -->
<!DOCTYPE svg PUBLIC "-//W3C//DTD SVG 1.1//EN" "http://www.w3.org/Graphics/SVG/1.1/DTD/svg11.dtd">
<svg version="1.1" id="Layer_1" xmlns="http://www.w3.org/2000/svg" xmlns:xlink="http://www.w3.org/1999/xlink" x="0px" y="0px"
	 width="200px" height="200px" viewBox="0 0 200 200" enable-background="new 0 0 200 200" xml:space="preserve">
<g id="GRID_GUIDE" display="none">
	<g display="inline">
		<line fill="none" stroke="#E1E1E1" stroke-miterlimit="10" x1="-0.5" y1="0" x2="-0.5" y2="200"/>
		<line fill="none" stroke="#E1E1E1" stroke-miterlimit="10" x1="9.5" y1="0" x2="9.5" y2="200"/>
		<line fill="none" stroke="#E1E1E1" stroke-miterlimit="10" x1="19.5" y1="0" x2="19.5" y2="200"/>
		<line fill="none" stroke="#E1E1E1" stroke-miterlimit="10" x1="29.5" y1="0" x2="29.5" y2="200"/>
		<line fill="none" stroke="#E1E1E1" stroke-miterlimit="10" x1="39.5" y1="0" x2="39.5" y2="200"/>
		<line fill="none" stroke="#E1E1E1" stroke-miterlimit="10" x1="49.5" y1="0" x2="49.5" y2="200"/>
		<line fill="none" stroke="#E1E1E1" stroke-miterlimit="10" x1="59.5" y1="0" x2="59.5" y2="200"/>
		<line fill="none" stroke="#E1E1E1" stroke-miterlimit="10" x1="69.5" y1="0" x2="69.5" y2="200"/>
		<line fill="none" stroke="#E1E1E1" stroke-miterlimit="10" x1="79.5" y1="0" x2="79.5" y2="200"/>
		<line fill="none" stroke="#E1E1E1" stroke-miterlimit="10" x1="89.5" y1="0" x2="89.5" y2="200"/>
		<line fill="none" stroke="#E1E1E1" stroke-miterlimit="10" x1="99.5" y1="0" x2="99.5" y2="200"/>
		<line fill="none" stroke="#E1E1E1" stroke-miterlimit="10" x1="110.5" y1="0" x2="110.5" y2="200"/>
		<line fill="none" stroke="#E1E1E1" stroke-miterlimit="10" x1="120.5" y1="0" x2="120.5" y2="200"/>
		<line fill="none" stroke="#E1E1E1" stroke-miterlimit="10" x1="130.5" y1="0" x2="130.5" y2="200"/>
		<line fill="none" stroke="#E1E1E1" stroke-miterlimit="10" x1="140.5" y1="0" x2="140.5" y2="200"/>
		<line fill="none" stroke="#E1E1E1" stroke-miterlimit="10" x1="150.5" y1="0" x2="150.5" y2="200"/>
		<line fill="none" stroke="#E1E1E1" stroke-miterlimit="10" x1="160.5" y1="0" x2="160.5" y2="200"/>
		<line fill="none" stroke="#E1E1E1" stroke-miterlimit="10" x1="170.5" y1="0" x2="170.5" y2="200"/>
		<line fill="none" stroke="#E1E1E1" stroke-miterlimit="10" x1="180.5" y1="0" x2="180.5" y2="200"/>
		<line fill="none" stroke="#E1E1E1" stroke-miterlimit="10" x1="190.5" y1="0" x2="190.5" y2="200"/>
		<line fill="none" stroke="#E1E1E1" stroke-miterlimit="10" x1="200.5" y1="0" x2="200.5" y2="200"/>
	</g>
	<g display="inline">
		<line fill="none" stroke="#E1E1E1" stroke-miterlimit="10" x1="200" y1="-0.5" x2="1" y2="-0.5"/>
		<line fill="none" stroke="#E1E1E1" stroke-miterlimit="10" x1="200" y1="9.5" x2="1" y2="9.5"/>
		<line fill="none" stroke="#E1E1E1" stroke-miterlimit="10" x1="200" y1="19.5" x2="1" y2="19.5"/>
		<line fill="none" stroke="#E1E1E1" stroke-miterlimit="10" x1="200" y1="29.5" x2="1" y2="29.5"/>
		<line fill="none" stroke="#E1E1E1" stroke-miterlimit="10" x1="200" y1="39.5" x2="1" y2="39.5"/>
		<line fill="none" stroke="#E1E1E1" stroke-miterlimit="10" x1="200" y1="49.5" x2="1" y2="49.5"/>
		<line fill="none" stroke="#E1E1E1" stroke-miterlimit="10" x1="200" y1="59.5" x2="1" y2="59.5"/>
		<line fill="none" stroke="#E1E1E1" stroke-miterlimit="10" x1="200" y1="69.5" x2="1" y2="69.5"/>
		<line fill="none" stroke="#E1E1E1" stroke-miterlimit="10" x1="200" y1="79.5" x2="1" y2="79.5"/>
		<line fill="none" stroke="#E1E1E1" stroke-miterlimit="10" x1="200" y1="89.5" x2="1" y2="89.5"/>
		<line fill="none" stroke="#E1E1E1" stroke-miterlimit="10" x1="200" y1="100.5" x2="1" y2="100.5"/>
		<line fill="none" stroke="#E1E1E1" stroke-miterlimit="10" x1="200" y1="110.5" x2="1" y2="110.5"/>
		<line fill="none" stroke="#E1E1E1" stroke-miterlimit="10" x1="200" y1="120.5" x2="1" y2="120.5"/>
		<line fill="none" stroke="#E1E1E1" stroke-miterlimit="10" x1="200" y1="130.5" x2="1" y2="130.5"/>
		<line fill="none" stroke="#E1E1E1" stroke-miterlimit="10" x1="200" y1="140.5" x2="1" y2="140.5"/>
		<line fill="none" stroke="#E1E1E1" stroke-miterlimit="10" x1="200" y1="150.5" x2="1" y2="150.5"/>
		<line fill="none" stroke="#E1E1E1" stroke-miterlimit="10" x1="200" y1="160.5" x2="1" y2="160.5"/>
		<line fill="none" stroke="#E1E1E1" stroke-miterlimit="10" x1="200" y1="170.5" x2="1" y2="170.5"/>
		<line fill="none" stroke="#E1E1E1" stroke-miterlimit="10" x1="200" y1="180.5" x2="1" y2="180.5"/>
		<line fill="none" stroke="#E1E1E1" stroke-miterlimit="10" x1="200" y1="190.5" x2="1" y2="190.5"/>
		<line fill="none" stroke="#E1E1E1" stroke-miterlimit="10" x1="200" y1="200.5" x2="1" y2="200.5"/>
	</g>
</g>
<path fill="none" stroke="#000000" stroke-width="3" stroke-linecap="round" stroke-linejoin="round" stroke-miterlimit="10" d="
	M156.065,88.788h-11.214V55.145c0-24.769-20.081-44.849-44.855-44.849c-24.767,0-44.85,20.081-44.85,44.849v33.643H43.932
	c-6.167,0-11.21,5.044-11.21,11.212v78.494c0,6.167,5.043,11.21,11.21,11.21h112.134c6.162,0,11.213-5.043,11.213-11.21V100
	C167.278,93.833,162.228,88.788,156.065,88.788z M85.762,165.806l9.306-24.245c-4.716-2.082-8.008-6.795-8.008-12.28
	c0-7.411,6.013-13.426,13.425-13.426c7.414,0,13.423,6.015,13.423,13.426c0,5.515-3.336,10.225-8.094,12.283l9.3,24.242H85.762z
	 M122.425,88.788H77.573V55.145c0-12.367,10.055-22.425,22.423-22.425c12.37,0,22.429,10.059,22.429,22.425V88.788z"/>
</svg>
