<svg height="92" viewBox="0 0 186 92" width="186" xmlns="http://www.w3.org/2000/svg"><path d="m112.75.654c-.611 0-1.87 1.77-1.87 1.77-.114-.062-.22-.089-.315-.089-.898 0-.975 2.485-.975 2.485-.646 1.198-3.779 4.146-3.779 4.146-5.031 5.325-9.916 5.785-9.916 5.785-.607-.019.02-.608.02-.608 1.29-2.395.146-4.865.146-4.865-.691-1.239-1.705-1.612-2.668-1.612-1.447 0-2.787.836-2.787.836-1.861 1.161-.185 6.082-.185 6.082-.379.176-.754.237-1.092.237-.765 0-1.341-.311-1.341-.311l-5.363-3.816c-4.772-3.189-7.112-6.304-7.112-6.304-.534-2.452-1.124-3.078-1.124-3.078-.123-.131-.277-.184-.441-.184-.619 0-1.401.736-1.401.736-.627.59-.074 2.434-.074 2.434.571 1.234 3.501 4.976 3.501 4.976 3.574 2.544 10.061 9.438 10.061 9.438 1.77 1.881 1.361 15.261 1.361 15.261l-1.047 16.115c-36.558 1.752-68.237 17.836-86.21 41.26 21.801-19.686 61.208-31.486 98.776-31.486 37.566 0 65.148 11.801 86.949 31.486-18.266-23.806-50.688-40.029-88-41.334l.164-5.369c.057-1.824.021-20.696.021-20.696.111-3.65.775-5.455.775-5.455 3.723-2.322 11.279-10.614 11.279-10.614 3.152-3.558 3.228-5.99 3.228-5.99.036-1.217-.571-1.235-.571-1.235-.003-.001-.006-.001-.01-.001m-22.707 49.306.815-9.795c.055-1.824 1.291-2.395 1.291-2.395.128-.059.25-.086.363-.086.977 0 1.405 1.966 1.405 1.966.401 1.345.345 7.209.283 10.284-.4-.002-.8-.008-1.2-.008-.989 0-1.974.013-2.957.034" fill="#fff"/></svg>