<?xml version="1.0" encoding="utf-8"?>
<!-- Generator: Adobe Illustrator 16.0.0, SVG Export Plug-In . SVG Version: 6.00 Build 0)  -->
<!DOCTYPE svg PUBLIC "-//W3C//DTD SVG 1.1//EN" "http://www.w3.org/Graphics/SVG/1.1/DTD/svg11.dtd">
<svg version="1.1" id="Layer_1" xmlns="http://www.w3.org/2000/svg" xmlns:xlink="http://www.w3.org/1999/xlink" x="0px" y="0px"
	 width="345px" height="110px" viewBox="0 0 345 110" enable-background="new 0 0 345 110" xml:space="preserve">
<g>
	<g>
		<path fill="#00733B" d="M3.516,71.175v-18.33c0-1.497-0.108-2.743-0.321-3.74c-0.106-0.462-0.249-0.874-0.427-1.23
			C2.589,47.519,2.5,47.323,2.5,47.287c0-0.106,0.089-0.23,0.268-0.374l2.298-1.282c0.25-0.142,0.41-0.215,0.481-0.215
			c0.677,0,1.157,1.052,1.443,3.153c0.783-0.712,1.833-1.406,3.153-2.083c1.495-0.714,2.76-1.07,3.793-1.07
			c3.1,0,4.988,1.07,5.666,3.208c2.92-2.137,5.272-3.208,7.054-3.208c2.637,0,4.436,0.855,5.396,2.566
			c0.642,1.141,0.963,2.959,0.963,5.451v17.743c0,0.427-0.215,0.641-0.642,0.641h-2.78c-0.426,0-0.639-0.214-0.639-0.643V53.281
			c0-2.892-1.143-4.337-3.422-4.337c-1.389,0-3.136,0.73-5.238,2.196v20.033c0,0.429-0.213,0.643-0.639,0.643h-2.781
			c-0.428,0-0.641-0.214-0.641-0.643V53.281c0-2.892-1.157-4.337-3.473-4.337c-1.641,0-3.368,0.75-5.185,2.249v19.98
			c0,0.429-0.213,0.643-0.642,0.643H4.158C3.729,71.815,3.516,71.602,3.516,71.175"/>
	</g>
	<g>
		<path fill="#00733B" d="M47.338,69.251c4.132,0,6.198-3.491,6.198-10.474c0-6.699-2.084-10.049-6.251-10.049
			c-4.169,0-6.254,3.297-6.254,9.888C41.031,65.707,43.133,69.251,47.338,69.251 M57.919,58.83c0,4.024-0.855,7.25-2.566,9.673
			c-1.887,2.707-4.684,4.062-8.388,4.062c-3.458,0-6.076-1.283-7.857-3.848c-1.639-2.352-2.458-5.56-2.458-9.62
			c0-3.991,0.836-7.196,2.511-9.618c1.889-2.708,4.667-4.062,8.339-4.062c3.49,0,6.146,1.301,7.961,3.901
			C57.1,51.634,57.919,54.805,57.919,58.83"/>
	</g>
	<g>
		<path fill="#00733B" d="M71.601,69.251c4.132,0,6.198-3.491,6.198-10.474c0-6.699-2.084-10.049-6.253-10.049
			c-4.167,0-6.252,3.297-6.252,9.888C65.294,65.707,67.396,69.251,71.601,69.251 M82.182,58.83c0,4.024-0.854,7.25-2.566,9.673
			c-1.888,2.707-4.684,4.062-8.389,4.062c-3.458,0-6.076-1.283-7.857-3.848c-1.639-2.352-2.458-5.56-2.458-9.62
			c0-3.991,0.836-7.196,2.511-9.618c1.889-2.708,4.667-4.062,8.339-4.062c3.491,0,6.146,1.301,7.961,3.901
			C81.362,51.634,82.182,54.805,82.182,58.83"/>
	</g>
	<g>
		<path fill="#00733B" d="M88.916,53.54v17.634c0,0.429-0.213,0.643-0.642,0.643h-2.778c-0.429,0-0.642-0.214-0.642-0.643V52.845
			c0-1.639-0.304-2.993-0.908-4.061c-0.393-0.677-0.587-1.122-0.587-1.337c0.034-0.247,0.159-0.427,0.374-0.535l1.977-1.229
			c0.25-0.177,0.427-0.267,0.535-0.267c0.427,0,0.873,0.606,1.334,1.816c0.321,0.891,0.571,1.783,0.75,2.671
			c0.854-0.925,1.708-1.869,2.564-2.832c1.249-1.103,2.53-1.656,3.848-1.656c0.643,0,1.238,0.089,1.79,0.267
			c0.554,0.179,0.829,0.393,0.829,0.641c0,0.036-0.053,0.18-0.161,0.429l-1.176,2.725c-0.105,0.25-0.213,0.374-0.319,0.374
			c-0.036,0-0.242-0.079-0.616-0.24s-0.757-0.242-1.15-0.242c-0.783,0-1.691,0.518-2.724,1.55
			C90.429,51.812,89.663,52.684,88.916,53.54"/>
	</g>
	<g>
		<path fill="#00733B" d="M109.276,68.876l0.695,1.977c0.071,0.145,0.107,0.269,0.107,0.376c0,0.286-0.508,0.578-1.524,0.881
			c-1.015,0.302-2.021,0.455-3.019,0.455c-2.637,0-4.312-0.856-5.024-2.566c-0.498-1.175-0.748-3.758-0.748-7.749V34.515
			c0-0.357,0.124-0.571,0.374-0.642l2.671-0.64c0.108-0.035,0.321-0.072,0.642-0.108c0.25,0,0.374,0.233,0.374,0.695v28.537
			c0,2.743,0.053,4.419,0.161,5.024c0.213,1.246,0.925,1.869,2.137,1.869c0.534,0,1.122-0.114,1.764-0.348
			c0.641-0.229,0.98-0.347,1.015-0.347C109.079,68.556,109.205,68.664,109.276,68.876"/>
	</g>
	<g>
		<path fill="#00733B" d="M125.789,65.937v-6.893c-6.663,0.143-9.993,2.029-9.993,5.664c0,1.212,0.301,2.229,0.908,3.045
			c0.711,1,1.71,1.498,2.993,1.498C121.227,69.251,123.259,68.146,125.789,65.937 M129.851,52.897v10.474
			c0,2.245,0.213,4.027,0.642,5.346c0.07,0.213,0.247,0.569,0.534,1.068c0.283,0.498,0.427,0.801,0.427,0.909
			c0,0.106-0.16,0.248-0.48,0.428l-2.083,1.281c-0.215,0.106-0.356,0.161-0.429,0.161c-0.499,0-1.176-1.192-2.03-3.582
			c-2.601,2.39-5.167,3.582-7.696,3.582c-2.137,0-3.831-0.668-5.077-2.006c-1.248-1.334-1.871-3.18-1.871-5.529
			c0-5.914,4.668-9.015,14.002-9.299v-1.938c0-1.653-0.34-2.874-1.015-3.664c-0.678-0.789-1.924-1.184-3.74-1.184
			c-1.461,0-2.94,0.293-4.436,0.88c-1.497,0.588-2.192,0.882-2.084,0.882c-0.179,0-0.303-0.087-0.374-0.267l-0.694-1.872
			c-0.108-0.283-0.161-0.515-0.161-0.694c0-0.463,0.97-0.988,2.911-1.577c1.943-0.586,3.75-0.881,5.425-0.881
			C127.107,45.416,129.851,47.911,129.851,52.897"/>
	</g>
	<g>
		<path fill="#00733B" d="M153.845,53.432v17.743c0,0.427-0.213,0.641-0.641,0.641h-2.778c-0.429,0-0.642-0.214-0.642-0.643V53.281
			c0-2.892-1.159-4.339-3.474-4.339c-2.246,0-4.596,1.09-7.055,3.269v18.962c0,0.429-0.212,0.643-0.641,0.643h-2.778
			c-0.429,0-0.642-0.214-0.642-0.641V52.738c0-1.567-0.081-2.636-0.24-3.206c-0.16-0.57-0.34-1.069-0.534-1.497
			c-0.197-0.427-0.296-0.659-0.296-0.695c0-0.105,0.089-0.23,0.269-0.374l2.404-1.334c0.249-0.144,0.391-0.215,0.428-0.215
			c0.391,0,0.782,0.553,1.175,1.658c0.25,0.748,0.41,1.407,0.48,1.977c3.064-2.422,5.933-3.634,8.605-3.634
			c2.637,0,4.435,0.856,5.398,2.566C153.524,49.122,153.845,50.938,153.845,53.432"/>
	</g>
	<g>
		<path fill="#00733B" d="M172.978,65.866v-15.15c-2.208-1.182-4.241-1.773-6.093-1.773c-2.066,0-3.472,1.094-4.222,3.278
			c-0.535,1.504-0.801,3.905-0.801,7.2c0,2.936,0.25,5.104,0.748,6.498c0.713,2.079,2.033,3.118,3.955,3.118
			c1.141,0,2.406-0.429,3.795-1.29C171.213,67.14,172.087,66.512,172.978,65.866 M177.039,33.82v29.552
			c0,2.672,0.196,4.454,0.587,5.344c0.071,0.144,0.269,0.518,0.59,1.124c0.249,0.462,0.374,0.747,0.374,0.853
			c0,0.107-0.161,0.251-0.481,0.429l-2.085,1.282c-0.213,0.108-0.357,0.161-0.427,0.161c-0.321,0-0.714-0.427-1.177-1.283
			c-0.356-0.675-0.606-1.301-0.747-1.871c-1.425,0.999-2.405,1.64-2.94,1.925c-1.603,0.819-3.242,1.229-4.917,1.229
			c-2.708,0-4.809-1.354-6.306-4.062c-1.354-2.386-2.03-5.379-2.03-8.978c0-4.132,0.713-7.444,2.137-9.939
			c1.567-2.78,3.829-4.169,6.786-4.169c2.461,0,4.65,0.606,6.575,1.816V34.514c0-0.356,0.125-0.57,0.374-0.641l2.619-0.64
			c0.107-0.036,0.32-0.073,0.64-0.108C176.896,33.125,177.039,33.356,177.039,33.82"/>
	</g>
	<g>
		<path fill="#00733B" d="M197.561,49.478v21.696c0,0.429-0.214,0.643-0.643,0.643h-2.777c-0.429,0-0.642-0.214-0.642-0.643V49.478
			h-3.74c-0.25,0-0.374-0.212-0.374-0.641v-2.031c0-0.429,0.124-0.642,0.374-0.642h3.74v-4.169c0-5.913,2.475-8.87,7.428-8.87
			c1.246,0,2.538,0.213,3.874,0.643c1.338,0.427,2.004,0.836,2.004,1.229c0-0.142-0.089,0.105-0.266,0.748l-0.748,1.763
			c-0.144,0.213-0.269,0.321-0.374,0.321c-0.18,0-0.785-0.197-1.818-0.589c-1.033-0.391-1.977-0.587-2.832-0.587
			c-1.354,0-2.262,0.503-2.726,1.505c-0.32,0.715-0.48,2.007-0.48,3.868v4.139h7.695c0.392,0,0.588,0.127,0.588,0.374v0.161
			c-0.036,0.072-0.053,0.144-0.053,0.213l-0.694,2.085c-0.108,0.32-0.341,0.48-0.695,0.48H197.561z"/>
	</g>
	<g>
		<path fill="#00733B" d="M222.997,66.306V46.809c0-0.356,0.126-0.572,0.374-0.643l2.672-0.642c0.108-0.035,0.321-0.072,0.643-0.108
			c0.249,0,0.373,0.232,0.373,0.695v19.024c0,1.533,0.196,2.709,0.588,3.527c0.678,1.39,1.016,2.067,1.016,2.032
			c0,0.105-0.16,0.248-0.481,0.427l-2.085,1.281c-0.213,0.108-0.355,0.161-0.427,0.161c-0.321,0-0.65-0.355-0.988-1.069
			c-0.338-0.712-0.667-1.407-0.988-2.083c-2.565,2.103-5.041,3.152-7.428,3.152c-3.244,0-5.453-0.854-6.627-2.564
			c-0.783-1.141-1.177-2.957-1.177-5.451V46.806c0-0.355,0.125-0.569,0.376-0.64l2.671-0.642c0.106-0.035,0.319-0.072,0.641-0.108
			c0.249,0,0.374,0.232,0.374,0.697v18.585c0,2.892,1.462,4.34,4.382,4.34c0.784,0,1.889-0.34,3.314-1.02
			C221.5,67.412,222.428,66.842,222.997,66.306"/>
	</g>
	<g>
		<path fill="#00733B" d="M235.45,56.532h11.544c0-1.923-0.34-3.58-1.017-4.971c-0.962-1.887-2.477-2.833-4.543-2.833
			c-2.173,0-3.776,0.963-4.809,2.887C235.841,53.042,235.45,54.68,235.45,56.532 M249.719,67.113l0.908,2.244
			c0.107,0.25,0.16,0.393,0.16,0.427c0,0.357-0.908,0.893-2.724,1.604c-2.033,0.784-3.94,1.177-5.72,1.177
			c-3.526,0-6.288-1.237-8.284-3.715c-1.995-2.475-2.993-5.762-2.993-9.859c0-3.99,0.952-7.25,2.859-9.78
			c1.907-2.528,4.48-3.794,7.723-3.794c6.484,0,9.726,4.418,9.726,13.253c0,0.783-0.193,1.176-0.587,1.176H235.45
			c0,2.256,0.462,4.193,1.389,5.805c1.283,2.258,3.278,3.388,5.986,3.388c1.424,0,2.912-0.374,4.462-1.124
			c1.55-0.748,2.252-1.122,2.11-1.122C249.469,66.792,249.574,66.899,249.719,67.113"/>
	</g>
	<g>
		<path fill="#00733B" d="M264.629,68.876l0.695,1.977c0.069,0.145,0.107,0.269,0.107,0.376c0,0.286-0.509,0.578-1.523,0.881
			c-1.017,0.302-2.022,0.455-3.02,0.455c-2.639,0-4.311-0.856-5.024-2.566c-0.499-1.175-0.748-3.758-0.748-7.749V34.515
			c0-0.357,0.124-0.571,0.374-0.642l2.672-0.64c0.106-0.035,0.32-0.072,0.642-0.108c0.249,0,0.374,0.233,0.374,0.695v28.537
			c0,2.743,0.053,4.419,0.16,5.024c0.213,1.246,0.925,1.869,2.137,1.869c0.535,0,1.122-0.114,1.764-0.348
			c0.643-0.229,0.981-0.347,1.017-0.347C264.433,68.556,264.557,68.664,264.629,68.876"/>
	</g>
	<g>
		<path fill="#00733B" d="M283.119,48.249l-0.695,1.442c-0.214,0.428-0.427,0.642-0.643,0.642c0.072,0-0.524-0.232-1.789-0.694
			c-1.266-0.463-2.468-0.695-3.606-0.695c-2.639,0-3.956,1.173-3.956,3.52c0,1.6,1.033,2.932,3.101,3.999
			c1.889,0.96,3.776,1.92,5.665,2.879c2.065,1.422,3.101,3.307,3.101,5.651c0,2.383-0.855,4.265-2.567,5.653
			c-1.568,1.278-3.562,1.919-5.984,1.919c-1.354,0-3.046-0.303-5.078-0.909c-2.029-0.604-3.045-1.157-3.045-1.656
			c0-0.107,0.07-0.321,0.213-0.642l0.748-1.658c0.142-0.318,0.302-0.479,0.481-0.479c-0.105,0,0.649,0.302,2.271,0.907
			c1.619,0.606,3.16,0.909,4.622,0.909c1.21,0,2.227-0.338,3.046-1.013c0.819-0.676,1.23-1.618,1.23-2.826
			c0-1.494-1.034-2.791-3.101-3.895c-1.89-0.958-3.776-1.935-5.664-2.932c-2.067-1.42-3.101-3.27-3.101-5.545
			c0-2.168,0.758-3.944,2.271-5.33c1.515-1.388,3.448-2.082,5.798-2.082c2.174,0,4.276,0.535,6.308,1.604
			c0.391,0.214,0.587,0.446,0.587,0.695C283.332,47.501,283.261,47.678,283.119,48.249"/>
	</g>
	<g>
		<path fill="#FFFFFF" d="M6.106,91.076v8.134c1.145,0.613,2.189,0.92,3.131,0.92c1.07,0,1.802-0.567,2.188-1.701
			c0.277-0.777,0.415-2.023,0.415-3.733c0-1.521-0.128-2.645-0.387-3.369c-0.37-1.078-1.054-1.617-2.05-1.617
			C8.331,89.709,7.232,90.164,6.106,91.076 M4,107.028V92.647c0-1.182-0.111-2.106-0.332-2.771c-0.039-0.112-0.13-0.295-0.278-0.554
			c-0.147-0.259-0.22-0.416-0.22-0.471c0-0.075,0.082-0.148,0.249-0.223l1.08-0.664c0.111-0.057,0.185-0.083,0.223-0.083
			c0.166,0,0.368,0.211,0.608,0.636c0.185,0.37,0.315,0.702,0.389,0.999c0.738-0.518,1.247-0.849,1.524-0.999
			c0.83-0.425,1.68-0.636,2.548-0.636c1.405,0,2.495,0.692,3.27,2.078c0.703,1.256,1.054,2.815,1.054,4.683
			c0,2.144-0.37,3.861-1.108,5.155c-0.813,1.44-1.986,2.159-3.52,2.159c-1.257,0-2.382-0.313-3.38-0.941v5.652
			c0,0.187-0.065,0.295-0.194,0.333l-1.386,0.332c-0.055,0.019-0.167,0.038-0.332,0.057C4.064,107.39,4,107.27,4,107.028"/>
	</g>
	<g>
		<path fill="#FFFFFF" d="M22.816,98.521v-3.574c-3.456,0.074-5.183,1.054-5.183,2.937c0,0.629,0.157,1.156,0.472,1.581
			c0.368,0.517,0.886,0.775,1.552,0.775C20.45,100.24,21.503,99.668,22.816,98.521 M24.921,91.761v5.431
			c0,1.165,0.112,2.088,0.332,2.771c0.038,0.11,0.13,0.297,0.278,0.555c0.147,0.259,0.22,0.415,0.22,0.471
			c0,0.057-0.082,0.13-0.249,0.223l-1.08,0.664c-0.112,0.055-0.186,0.083-0.222,0.083c-0.26,0-0.61-0.619-1.053-1.857
			c-1.348,1.238-2.679,1.857-3.99,1.857c-1.11,0-1.986-0.348-2.634-1.039c-0.646-0.692-0.969-1.649-0.969-2.869
			c0-3.064,2.419-4.673,7.261-4.821v-1.005c0-0.855-0.176-1.49-0.528-1.9c-0.35-0.409-0.997-0.614-1.938-0.614
			c-0.759,0-1.525,0.154-2.302,0.457c-0.774,0.307-1.135,0.458-1.08,0.458c-0.093,0-0.157-0.045-0.195-0.139l-0.358-0.97
			c-0.057-0.147-0.085-0.269-0.085-0.36c0-0.24,0.504-0.512,1.511-0.816c1.008-0.306,1.944-0.458,2.813-0.458
			C23.5,87.881,24.921,89.176,24.921,91.761"/>
	</g>
	<g>
		<path fill="#FFFFFF" d="M29.881,92.094v9.144c0,0.222-0.111,0.332-0.332,0.332h-1.44c-0.223,0-0.335-0.11-0.335-0.332v-9.504
			c0-0.851-0.157-1.552-0.47-2.105C27.101,89.276,27,89.045,27,88.935c0.018-0.13,0.083-0.223,0.193-0.276l1.025-0.639
			c0.131-0.091,0.223-0.139,0.278-0.139c0.222,0,0.453,0.313,0.693,0.942c0.166,0.463,0.294,0.923,0.387,1.386
			c0.444-0.479,0.887-0.971,1.332-1.469c0.646-0.572,1.31-0.859,1.996-0.859c0.332,0,0.64,0.048,0.927,0.139
			c0.287,0.092,0.431,0.203,0.431,0.332c0,0.019-0.029,0.094-0.083,0.222l-0.61,1.413c-0.055,0.13-0.112,0.195-0.167,0.195
			c-0.019,0-0.124-0.043-0.319-0.126c-0.194-0.083-0.393-0.124-0.596-0.124c-0.407,0-0.876,0.269-1.413,0.804
			C30.667,91.196,30.269,91.649,29.881,92.094"/>
	</g>
	<g>
		<path fill="#FFFFFF" d="M44.623,99.52l0.306,1.025c0.036,0.131,0.055,0.221,0.055,0.277c0,0.186-0.415,0.419-1.248,0.706
			c-0.83,0.286-1.606,0.429-2.326,0.429c-1.165,0-2.025-0.313-2.577-0.941c-0.555-0.627-0.831-1.681-0.831-3.16v-7.869h-2.079
			c-0.131,0-0.195-0.111-0.195-0.332v-1.054c0-0.221,0.064-0.332,0.195-0.332h2.079v-3.795c0-0.167,0.1-0.278,0.305-0.333
			l1.468-0.415c0.037,0,0.074-0.012,0.112-0.028h0.082c0.091,0,0.138,0.102,0.138,0.304v4.268h4.101
			c0.204,0,0.305,0.066,0.305,0.194v0.083c-0.018,0.037-0.026,0.073-0.026,0.111l-0.361,1.079c-0.054,0.167-0.175,0.25-0.36,0.25
			h-3.658v7.891c0,0.741,0.075,1.252,0.221,1.53c0.222,0.48,0.702,0.722,1.44,0.722c0.518,0,1.405-0.258,2.661-0.775
			C44.559,99.354,44.623,99.409,44.623,99.52"/>
	</g>
	<g>
		<path fill="#FFFFFF" d="M57.291,100.24c2.144,0,3.215-1.811,3.215-5.432c0-3.472-1.082-5.21-3.244-5.21
			c-2.16,0-3.241,1.708-3.241,5.126C54.021,98.401,55.112,100.24,57.291,100.24 M62.778,94.837c0,2.088-0.443,3.758-1.331,5.017
			c-0.978,1.402-2.429,2.105-4.35,2.105c-1.793,0-3.151-0.666-4.073-1.996c-0.85-1.22-1.274-2.882-1.274-4.988
			c0-2.067,0.434-3.731,1.302-4.987c0.979-1.404,2.419-2.106,4.323-2.106c1.81,0,3.187,0.675,4.128,2.024
			C62.353,91.105,62.778,92.75,62.778,94.837"/>
	</g>
	<g>
		<path fill="#FFFFFF" d="M68.016,89.986v11.252c0,0.221-0.111,0.332-0.333,0.332h-1.44c-0.223,0-0.333-0.111-0.333-0.332V89.986
			h-1.94c-0.128,0-0.195-0.11-0.195-0.332v-1.054c0-0.221,0.067-0.332,0.195-0.332h1.94v-2.16c0-3.068,1.285-4.602,3.852-4.602
			c0.646,0,1.317,0.111,2.009,0.333c0.691,0.222,1.039,0.434,1.039,0.638c0-0.074-0.047,0.057-0.138,0.389l-0.389,0.914
			c-0.073,0.111-0.138,0.166-0.194,0.166c-0.092,0-0.406-0.102-0.942-0.305c-0.535-0.203-1.025-0.305-1.467-0.305
			c-0.703,0-1.175,0.26-1.415,0.78c-0.167,0.371-0.249,1.039-0.249,2.007v2.145h3.99c0.204,0,0.306,0.066,0.306,0.194v0.083
			c-0.019,0.037-0.029,0.073-0.029,0.112l-0.36,1.079c-0.055,0.166-0.176,0.249-0.359,0.249H68.016z"/>
	</g>
	<g>
		<path fill="#FFFFFF" d="M90.765,89.267l-3.159,10.587c-0.406,1.383-0.674,2.271-0.805,2.658c-0.387,1.146-0.757,2.098-1.108,2.854
			c-0.645,1.349-1.737,2.022-3.27,2.022c-0.738,0-1.504-0.176-2.3-0.524c-0.793-0.352-1.191-0.639-1.191-0.861
			c0-0.035,0.019-0.093,0.057-0.166l0.553-1.109c0.037-0.092,0.102-0.137,0.194-0.137c0.019,0,0.333,0.181,0.943,0.539
			c0.61,0.361,1.182,0.541,1.718,0.541c0.887,0,1.588-0.785,2.105-2.354l0.582-1.747h-0.997c-0.185,0-0.305-0.083-0.361-0.248
			l-4.295-12.055c-0.036-0.221-0.055-0.352-0.055-0.388c0-0.092,0.073-0.166,0.221-0.222l1.165-0.472
			c0.185-0.072,0.313-0.11,0.387-0.11c0.149,0,0.249,0.073,0.305,0.221l3.491,10.476c0.185,0.553,0.37,1.22,0.555,1.995h0.055
			c0.111-0.647,0.25-1.293,0.416-1.94l2.771-10.53c0.036-0.147,0.138-0.221,0.305-0.221c0.073,0,0.205,0.038,0.389,0.11l1.163,0.472
			c0.148,0.056,0.221,0.13,0.221,0.222C90.82,88.953,90.801,89.081,90.765,89.267"/>
	</g>
	<g>
		<path fill="#FFFFFF" d="M97.608,100.24c2.144,0,3.216-1.811,3.216-5.432c0-3.472-1.082-5.21-3.245-5.21
			c-2.16,0-3.242,1.708-3.242,5.126C94.338,98.401,95.43,100.24,97.608,100.24 M103.096,94.837c0,2.088-0.443,3.758-1.332,5.017
			c-0.978,1.402-2.428,2.105-4.35,2.105c-1.792,0-3.149-0.666-4.073-1.996c-0.85-1.22-1.274-2.882-1.274-4.988
			c0-2.067,0.435-3.731,1.303-4.987c0.978-1.404,2.418-2.106,4.322-2.106c1.811,0,3.188,0.675,4.129,2.024
			C102.671,91.105,103.096,92.75,103.096,94.837"/>
	</g>
	<g>
		<path fill="#FFFFFF" d="M112.961,98.713V88.604c0-0.185,0.064-0.296,0.195-0.333l1.384-0.335c0.056-0.017,0.167-0.035,0.334-0.055
			c0.128,0,0.193,0.121,0.193,0.36v9.866c0,0.793,0.102,1.402,0.306,1.827c0.352,0.722,0.527,1.073,0.527,1.054
			c0,0.055-0.083,0.131-0.252,0.221l-1.08,0.665c-0.111,0.057-0.184,0.085-0.221,0.085c-0.167,0-0.337-0.185-0.514-0.555
			c-0.175-0.37-0.345-0.729-0.511-1.082c-1.332,1.091-2.616,1.637-3.853,1.637c-1.682,0-2.827-0.444-3.437-1.331
			c-0.405-0.592-0.61-1.533-0.61-2.827v-9.199c0-0.185,0.064-0.296,0.195-0.331l1.385-0.335c0.056-0.017,0.167-0.035,0.333-0.055
			c0.128,0,0.193,0.121,0.193,0.36v9.638c0,1.5,0.757,2.25,2.273,2.25c0.405,0,0.978-0.175,1.718-0.528
			C112.185,99.287,112.665,98.99,112.961,98.713"/>
	</g>
	<g>
		<path fill="#FFFFFF" d="M120.609,92.094v9.144c0,0.222-0.112,0.332-0.333,0.332h-1.44c-0.223,0-0.335-0.11-0.335-0.332v-9.504
			c0-0.851-0.156-1.552-0.47-2.105c-0.204-0.352-0.304-0.583-0.304-0.693c0.017-0.13,0.083-0.223,0.193-0.276l1.025-0.639
			c0.13-0.091,0.222-0.139,0.277-0.139c0.223,0,0.453,0.313,0.693,0.942c0.167,0.463,0.295,0.923,0.388,1.386
			c0.444-0.479,0.887-0.971,1.331-1.469c0.646-0.572,1.31-0.859,1.996-0.859c0.333,0,0.64,0.048,0.928,0.139
			c0.286,0.092,0.43,0.203,0.43,0.332c0,0.019-0.028,0.094-0.083,0.222l-0.61,1.413c-0.056,0.13-0.11,0.195-0.166,0.195
			c-0.02,0-0.125-0.043-0.319-0.126c-0.195-0.083-0.393-0.124-0.597-0.124c-0.405,0-0.875,0.269-1.412,0.804
			C121.395,91.196,120.996,91.649,120.609,92.094"/>
	</g>
	<g>
		<path fill="#FFFFFF" d="M137.872,100.046l0.361,1.025c0.035,0.075,0.054,0.14,0.054,0.194c0,0.147-0.261,0.3-0.789,0.457
			c-0.527,0.156-1.048,0.235-1.564,0.235c-1.368,0-2.236-0.443-2.606-1.33c-0.258-0.609-0.387-1.949-0.387-4.017V82.228
			c0-0.185,0.063-0.295,0.193-0.333l1.385-0.332c0.057-0.017,0.167-0.036,0.333-0.055c0.13,0,0.194,0.12,0.194,0.36v14.798
			c0,1.422,0.028,2.29,0.083,2.604c0.111,0.647,0.479,0.971,1.108,0.971c0.277,0,0.582-0.061,0.914-0.18
			c0.335-0.12,0.508-0.181,0.528-0.181C137.77,99.88,137.834,99.935,137.872,100.046"/>
	</g>
	<g>
		<path fill="#FFFFFF" d="M146.601,98.521v-3.574c-3.455,0.074-5.183,1.054-5.183,2.937c0,0.629,0.157,1.156,0.473,1.581
			c0.368,0.517,0.885,0.775,1.552,0.775C144.235,100.24,145.289,99.668,146.601,98.521 M148.707,91.761v5.431
			c0,1.165,0.111,2.088,0.332,2.771c0.038,0.11,0.128,0.297,0.277,0.555c0.148,0.259,0.221,0.415,0.221,0.471
			c0,0.057-0.083,0.13-0.249,0.223l-1.081,0.664c-0.112,0.055-0.185,0.083-0.223,0.083c-0.259,0-0.608-0.619-1.052-1.857
			c-1.347,1.238-2.679,1.857-3.991,1.857c-1.108,0-1.984-0.348-2.633-1.039c-0.645-0.692-0.968-1.649-0.968-2.869
			c0-3.064,2.418-4.673,7.259-4.821v-1.005c0-0.855-0.175-1.49-0.527-1.9c-0.351-0.409-0.999-0.614-1.939-0.614
			c-0.759,0-1.525,0.154-2.301,0.457c-0.776,0.307-1.136,0.458-1.081,0.458c-0.092,0-0.157-0.045-0.194-0.139l-0.36-0.97
			c-0.055-0.147-0.084-0.269-0.084-0.36c0-0.24,0.505-0.512,1.51-0.816c1.008-0.306,1.946-0.458,2.814-0.458
			C147.285,87.881,148.707,89.176,148.707,91.761"/>
	</g>
	<g>
		<path fill="#FFFFFF" d="M161.869,92.037v9.199c0,0.224-0.111,0.335-0.332,0.335h-1.441c-0.223,0-0.332-0.111-0.332-0.335V91.96
			c0-1.501-0.6-2.251-1.802-2.251c-1.165,0-2.385,0.567-3.657,1.696v9.831c0,0.224-0.111,0.335-0.334,0.335h-1.44
			c-0.221,0-0.333-0.111-0.333-0.335v-9.56c0-0.812-0.041-1.366-0.124-1.661c-0.083-0.295-0.176-0.555-0.278-0.776
			c-0.102-0.221-0.15-0.342-0.15-0.36c0-0.057,0.045-0.121,0.138-0.194l1.247-0.692c0.13-0.074,0.204-0.109,0.222-0.109
			c0.203,0,0.406,0.286,0.61,0.858c0.129,0.387,0.211,0.729,0.25,1.022c1.588-1.255,3.075-1.881,4.462-1.881
			c1.365,0,2.3,0.441,2.798,1.328C161.703,89.803,161.869,90.744,161.869,92.037"/>
	</g>
	<g>
		<path fill="#FFFFFF" d="M172.51,98.486V90.63c-1.146-0.614-2.198-0.921-3.158-0.921c-1.073,0-1.802,0.567-2.191,1.7
			c-0.277,0.78-0.415,2.024-0.415,3.732c0,1.524,0.129,2.647,0.39,3.373c0.368,1.076,1.052,1.613,2.05,1.613
			c0.591,0,1.246-0.222,1.968-0.667C171.594,99.146,172.048,98.82,172.51,98.486 M174.615,81.868v15.323
			c0,1.385,0.103,2.311,0.306,2.771c0.036,0.073,0.139,0.268,0.305,0.581c0.128,0.242,0.194,0.389,0.194,0.444
			c0,0.057-0.084,0.13-0.251,0.223l-1.081,0.664c-0.11,0.055-0.184,0.083-0.22,0.083c-0.167,0-0.37-0.222-0.61-0.665
			c-0.186-0.35-0.313-0.673-0.388-0.97c-0.74,0.518-1.247,0.85-1.523,0.997c-0.832,0.425-1.682,0.638-2.55,0.638
			c-1.403,0-2.495-0.702-3.269-2.104c-0.702-1.239-1.054-2.791-1.054-4.656c0-2.144,0.368-3.861,1.108-5.155
			c0.812-1.44,1.986-2.161,3.52-2.161c1.275,0,2.412,0.314,3.408,0.941v-6.595c0-0.184,0.064-0.295,0.195-0.333l1.357-0.332
			c0.056-0.017,0.167-0.036,0.333-0.055C174.541,81.508,174.615,81.628,174.615,81.868"/>
	</g>
	<g>
		<path fill="#FFFFFF" d="M185.367,89.35l-0.36,0.748c-0.111,0.223-0.221,0.332-0.332,0.332c0.038,0-0.272-0.12-0.93-0.36
			c-0.654-0.237-1.278-0.361-1.869-0.361c-1.369,0-2.051,0.61-2.051,1.826c0,0.829,0.534,1.521,1.607,2.075
			c0.978,0.497,1.958,0.993,2.936,1.492c1.073,0.736,1.609,1.715,1.609,2.93c0,1.235-0.444,2.214-1.331,2.932
			c-0.812,0.661-1.847,0.994-3.104,0.994c-0.701,0-1.58-0.156-2.633-0.47c-1.052-0.313-1.578-0.602-1.578-0.859
			c0-0.055,0.035-0.167,0.11-0.332l0.388-0.858c0.073-0.167,0.156-0.25,0.248-0.25c-0.054,0,0.339,0.156,1.18,0.47
			c0.84,0.315,1.639,0.472,2.396,0.472c0.628,0,1.156-0.175,1.58-0.526c0.425-0.35,0.637-0.836,0.637-1.466
			c0-0.773-0.536-1.446-1.607-2.016c-0.978-0.498-1.958-1.007-2.936-1.522c-1.072-0.736-1.608-1.695-1.608-2.875
			c0-1.123,0.393-2.046,1.179-2.765c0.785-0.72,1.787-1.077,3.005-1.077c1.127,0,2.217,0.276,3.271,0.83
			c0.204,0.111,0.306,0.231,0.306,0.361C185.479,88.963,185.441,89.054,185.367,89.35"/>
	</g>
	<g>
		<path fill="#FFFFFF" d="M196.562,99.132l0.471,1.163c0.057,0.131,0.082,0.203,0.082,0.223c0,0.184-0.47,0.461-1.412,0.831
			c-1.053,0.406-2.041,0.609-2.964,0.609c-1.646,0-2.924-0.596-3.839-1.787c-0.914-1.192-1.373-2.803-1.373-4.836
			c0-2.31,0.51-4.13,1.526-5.459c1.016-1.331,2.382-1.995,4.101-1.995c0.85,0,1.746,0.231,2.687,0.692
			c0.869,0.425,1.303,0.769,1.303,1.025c0-0.017-0.028,0.055-0.083,0.222l-0.637,1.164c-0.057,0.111-0.11,0.166-0.165,0.166
			c0.09,0-0.21-0.239-0.901-0.719c-0.692-0.481-1.372-0.722-2.037-0.722c-1.293,0-2.217,0.475-2.771,1.422
			c-0.498,0.815-0.748,2.078-0.748,3.788c0,3.474,1.063,5.208,3.187,5.208c0.738,0,1.512-0.193,2.313-0.581
			c0.805-0.389,1.169-0.582,1.096-0.582C196.432,98.965,196.488,99.021,196.562,99.132"/>
	</g>
	<g>
		<path fill="#FFFFFF" d="M205.816,98.521v-3.574c-3.453,0.074-5.182,1.054-5.182,2.937c0,0.629,0.158,1.156,0.472,1.581
			c0.369,0.517,0.887,0.775,1.552,0.775C203.451,100.24,204.505,99.668,205.816,98.521 M207.924,91.761v5.431
			c0,1.165,0.11,2.088,0.332,2.771c0.038,0.11,0.128,0.297,0.277,0.555c0.147,0.259,0.221,0.415,0.221,0.471
			c0,0.057-0.083,0.13-0.248,0.223l-1.081,0.664c-0.111,0.055-0.186,0.083-0.223,0.083c-0.258,0-0.607-0.619-1.052-1.857
			c-1.35,1.238-2.679,1.857-3.991,1.857c-1.108,0-1.984-0.348-2.633-1.039c-0.645-0.692-0.97-1.649-0.97-2.869
			c0-3.064,2.42-4.673,7.26-4.821v-1.005c0-0.855-0.174-1.49-0.525-1.9c-0.352-0.409-0.998-0.614-1.939-0.614
			c-0.759,0-1.525,0.154-2.301,0.457c-0.776,0.307-1.136,0.458-1.08,0.458c-0.093,0-0.157-0.045-0.194-0.139l-0.359-0.97
			c-0.056-0.147-0.083-0.269-0.083-0.36c0-0.24,0.503-0.512,1.509-0.816c1.008-0.306,1.945-0.458,2.813-0.458
			C206.501,87.881,207.924,89.176,207.924,91.761"/>
	</g>
	<g>
		<path fill="#FFFFFF" d="M213.021,91.076v8.134c1.146,0.613,2.19,0.92,3.133,0.92c1.07,0,1.801-0.567,2.188-1.701
			c0.277-0.777,0.415-2.023,0.415-3.733c0-1.521-0.128-2.645-0.388-3.369c-0.37-1.078-1.053-1.617-2.05-1.617
			C215.247,89.709,214.148,90.164,213.021,91.076 M210.916,107.028V92.647c0-1.182-0.111-2.106-0.332-2.771
			c-0.038-0.112-0.13-0.295-0.277-0.554s-0.223-0.416-0.223-0.471c0-0.075,0.084-0.148,0.25-0.223l1.081-0.664
			c0.112-0.057,0.185-0.083,0.223-0.083c0.166,0,0.368,0.211,0.607,0.636c0.186,0.37,0.313,0.702,0.389,0.999
			c0.739-0.518,1.247-0.849,1.524-0.999c0.831-0.425,1.681-0.636,2.55-0.636c1.404,0,2.493,0.692,3.271,2.078
			c0.701,1.256,1.053,2.815,1.053,4.683c0,2.144-0.37,3.861-1.11,5.155c-0.812,1.44-1.984,2.159-3.518,2.159
			c-1.258,0-2.383-0.313-3.382-0.941v5.652c0,0.187-0.064,0.295-0.194,0.333l-1.385,0.332c-0.057,0.019-0.165,0.038-0.332,0.057
			C210.98,107.39,210.916,107.27,210.916,107.028"/>
	</g>
	<g>
		<path fill="#FFFFFF" d="M225.16,93.646h5.985c0-0.997-0.176-1.856-0.527-2.578c-0.5-0.979-1.285-1.469-2.355-1.469
			c-1.128,0-1.958,0.498-2.494,1.497C225.363,91.834,225.16,92.684,225.16,93.646 M232.558,99.132l0.47,1.163
			c0.058,0.131,0.084,0.203,0.084,0.223c0,0.184-0.471,0.461-1.412,0.831c-1.053,0.406-2.041,0.609-2.965,0.609
			c-1.829,0-3.261-0.641-4.296-1.926c-1.035-1.283-1.552-2.989-1.552-5.112c0-2.068,0.494-3.76,1.482-5.071s2.324-1.968,4.005-1.968
			c3.362,0,5.044,2.292,5.044,6.872c0,0.405-0.104,0.61-0.307,0.61h-7.951c0,1.17,0.238,2.174,0.72,3.01
			c0.664,1.171,1.698,1.755,3.104,1.755c0.738,0,1.511-0.193,2.313-0.581c0.804-0.389,1.169-0.582,1.095-0.582
			C232.428,98.965,232.484,99.021,232.558,99.132"/>
	</g>
	<g>
		<path fill="#00733B" d="M313.305,37.41c-0.661,0.456-1.533,0.329-1.931-0.277l-18.52-28.299c-0.396-0.606-0.492-1.262-0.209-1.454
			c0.279-0.193,0.859,0.13,1.284,0.719l19.812,27.417C314.167,36.104,313.973,36.955,313.305,37.41"/>
	</g>
	<g>
		<path fill="#00733B" d="M318.894,34.166c-0.353,0.723-1.172,1.042-1.816,0.711l-30.074-15.473c-0.645-0.333-1.05-0.856-0.9-1.161
			c0.149-0.307,0.813-0.312,1.472-0.01L318.336,32.3C318.997,32.604,319.249,33.44,318.894,34.166"/>
	</g>
	<g>
		<path fill="#00733B" d="M309.678,28.713c0.354-0.723,1.172-1.042,1.816-0.711l30.074,15.474c0.645,0.332,1.05,0.855,0.9,1.161
			c-0.15,0.306-0.813,0.312-1.473,0.01l-30.762-14.067C309.573,30.274,309.322,29.438,309.678,28.713"/>
	</g>
	<g>
		<path fill="#00733B" d="M305.341,36.125c-0.738-0.319-1.095-1.122-0.795-1.781l14.068-30.756c0.303-0.661,0.806-1.089,1.119-0.953
			c0.312,0.136,0.348,0.797,0.076,1.47l-12.632,31.377C306.906,36.158,306.081,36.446,305.341,36.125"/>
	</g>
	<g>
		<path fill="#00733B" d="M310.252,30.163c0.738,0.319,1.095,1.121,0.795,1.781l-14.068,30.755c-0.302,0.661-0.807,1.088-1.12,0.954
			c-0.312-0.137-0.345-0.798-0.075-1.471l12.632-31.377C308.687,30.131,309.512,29.842,310.252,30.163"/>
	</g>
	<g>
		<path fill="#00733B" d="M303.077,39.712l-8.972-13.711c-0.396-0.609-0.959-0.958-1.25-0.778c-0.289,0.179-0.224,0.836,0.145,1.464
			l8.068,13.677L303.077,39.712z"/>
	</g>
	<g>
		<path fill="#00733B" d="M318.862,33.607l16.057-3.268c0.71-0.144,1.244-0.539,1.185-0.873c-0.059-0.339-0.695-0.521-1.413-0.41
			l-15.693,2.445L318.862,33.607z"/>
	</g>
	<g>
		<path fill="#00733B" d="M302.18,34.132L286.123,37.4c-0.709,0.144-1.244,0.539-1.183,0.873c0.058,0.337,0.693,0.521,1.411,0.41
			l15.692-2.446L302.18,34.132z"/>
	</g>
	<g>
		<path fill="#00733B" d="M311.99,41.09l8.612,13.939c0.381,0.618,0.935,0.982,1.229,0.811c0.294-0.17,0.247-0.831-0.106-1.465
			l-7.713-13.884L311.99,41.09z"/>
	</g>
	<g>
		<path fill="#00733B" d="M300.702,40.012l8.97,13.711c0.396,0.608,0.961,0.958,1.25,0.777c0.289-0.178,0.228-0.838-0.143-1.462
			l-8.07-13.678L300.702,40.012z"/>
	</g>
	<g>
		<defs>
			<path id="SVGID_1_" d="M308.093,19.891c-2.902,6.383-1.964,13.05,2.09,14.893c4.059,1.846,9.695-1.832,12.598-8.213
				c2.901-6.378,1.964-13.048-2.091-14.89c-0.709-0.323-1.468-0.476-2.249-0.476C314.744,11.204,310.487,14.626,308.093,19.891"/>
		</defs>
		<clipPath id="SVGID_2_">
			<use xlink:href="#SVGID_1_"  overflow="visible"/>
		</clipPath>
		<g clip-path="url(#SVGID_2_)">
			<g>
				<defs>
					
						<rect id="SVGID_3_" x="299.151" y="7.753" transform="matrix(-0.682 -0.7314 0.7314 -0.682 513.073 270.9229)" width="32.572" height="32.328"/>
				</defs>
				<clipPath id="SVGID_4_">
					<use xlink:href="#SVGID_3_"  overflow="visible"/>
				</clipPath>
				<polygon clip-path="url(#SVGID_4_)" fill="#F9EC00" points="333.871,0.984 334.117,1.25 292.508,40.051 292.508,0.984 				"/>
				<polygon clip-path="url(#SVGID_4_)" fill="#F9EC00" points="334.117,1.25 336.727,4.051 294.133,43.77 292.508,42.027 
					292.508,40.051 				"/>
				
					<rect x="315.403" y="-5.147" transform="matrix(-0.6839 -0.7295 0.7295 -0.6839 513.7748 270.529)" clip-path="url(#SVGID_4_)" fill="#F9EC00" width="0.171" height="58.239"/>
				
					<rect x="315.52" y="-5.022" transform="matrix(-0.6839 -0.7295 0.7295 -0.6839 513.8809 270.825)" clip-path="url(#SVGID_4_)" fill="#F9EB01" width="0.171" height="58.239"/>
				
					<rect x="315.636" y="-4.898" transform="matrix(-0.6727 -0.7399 0.7399 -0.6727 510.1774 274.1324)" clip-path="url(#SVGID_4_)" fill="#F9EA02" width="0.174" height="58.242"/>
				
					<rect x="315.754" y="-4.771" transform="matrix(-0.6839 -0.7295 0.7295 -0.6839 514.0918 271.4202)" clip-path="url(#SVGID_4_)" fill="#F9E902" width="0.171" height="58.242"/>
				
					<rect x="315.871" y="-4.646" transform="matrix(-0.6839 -0.7295 0.7295 -0.6839 514.1979 271.7162)" clip-path="url(#SVGID_4_)" fill="#F9E803" width="0.171" height="58.242"/>
				
					<rect x="315.989" y="-4.518" transform="matrix(-0.6839 -0.7295 0.7295 -0.6839 514.3026 272.0155)" clip-path="url(#SVGID_4_)" fill="#F9E604" width="0.171" height="58.239"/>
				
					<rect x="316.106" y="-4.393" transform="matrix(-0.6839 -0.7295 0.7295 -0.6839 514.4088 272.3115)" clip-path="url(#SVGID_4_)" fill="#FAE505" width="0.171" height="58.239"/>
				
					<rect x="316.223" y="-4.268" transform="matrix(-0.6839 -0.7295 0.7295 -0.6839 514.5149 272.6075)" clip-path="url(#SVGID_4_)" fill="#FAE406" width="0.171" height="58.239"/>
				
					<rect x="316.34" y="-4.143" transform="matrix(-0.6839 -0.7295 0.7295 -0.6839 514.6211 272.9034)" clip-path="url(#SVGID_4_)" fill="#FAE307" width="0.171" height="58.239"/>
				
					<rect x="316.457" y="-4.018" transform="matrix(-0.6839 -0.7295 0.7295 -0.6839 514.7272 273.1994)" clip-path="url(#SVGID_4_)" fill="#FAE207" width="0.171" height="58.239"/>
				
					<rect x="316.574" y="-3.893" transform="matrix(-0.6839 -0.7295 0.7295 -0.6839 514.8334 273.4954)" clip-path="url(#SVGID_4_)" fill="#FAE108" width="0.171" height="58.239"/>
				
					<rect x="316.692" y="-3.768" transform="matrix(-0.6839 -0.7295 0.7295 -0.6839 514.9395 273.7914)" clip-path="url(#SVGID_4_)" fill="#FAE009" width="0.171" height="58.239"/>
				
					<rect x="316.807" y="-3.644" transform="matrix(-0.6727 -0.7399 0.7399 -0.6727 511.2097 277.0969)" clip-path="url(#SVGID_4_)" fill="#FADF0A" width="0.174" height="58.242"/>
				
					<rect x="316.926" y="-3.517" transform="matrix(-0.6839 -0.7295 0.7295 -0.6839 515.1504 274.3867)" clip-path="url(#SVGID_4_)" fill="#FADE0B" width="0.171" height="58.242"/>
				<polygon clip-path="url(#SVGID_4_)" fill="#FADC0B" points="338.367,5.805 338.367,5.805 338.367,6.039 295.891,45.652 
					295.773,45.527 				"/>
				<polygon clip-path="url(#SVGID_4_)" fill="#FADB0C" points="338.367,6.277 296.004,45.777 295.891,45.652 338.367,6.039 				"/>
				<polygon clip-path="url(#SVGID_4_)" fill="#FADA0D" points="338.367,6.512 296.121,45.902 296.004,45.777 338.367,6.277 				"/>
				<polygon clip-path="url(#SVGID_4_)" fill="#FBD90E" points="338.367,6.742 296.238,46.027 296.121,45.902 338.367,6.512 				"/>
				<polygon clip-path="url(#SVGID_4_)" fill="#FBD80F" points="338.367,6.98 296.355,46.152 296.238,46.027 338.367,6.742 				"/>
				<polygon clip-path="url(#SVGID_4_)" fill="#FBD70F" points="338.367,7.215 296.473,46.277 296.355,46.152 338.367,6.98 				"/>
				<polygon clip-path="url(#SVGID_4_)" fill="#FBD610" points="338.367,7.449 296.59,46.406 296.473,46.277 338.367,7.215 				"/>
				<polygon clip-path="url(#SVGID_4_)" fill="#FBD511" points="338.367,7.684 296.707,46.531 296.59,46.406 338.367,7.449 				"/>
				<polygon clip-path="url(#SVGID_4_)" fill="#FBD412" points="338.367,7.918 296.824,46.656 296.707,46.531 338.367,7.684 				"/>
				<polygon clip-path="url(#SVGID_4_)" fill="#FBD312" points="338.367,8.152 296.941,46.781 296.824,46.656 338.367,7.918 				"/>
				<polygon clip-path="url(#SVGID_4_)" fill="#FBD213" points="338.367,8.387 297.117,46.852 297.008,46.852 296.941,46.781 
					338.367,8.152 				"/>
				<polygon clip-path="url(#SVGID_4_)" fill="#FBD114" points="338.367,8.621 297.367,46.852 297.117,46.852 338.367,8.387 				"/>
				<polygon clip-path="url(#SVGID_4_)" fill="#FBD015" points="338.367,8.855 297.621,46.852 297.367,46.852 338.367,8.621 				"/>
				<polygon clip-path="url(#SVGID_4_)" fill="#FBCF16" points="338.367,9.09 297.871,46.852 297.621,46.852 338.367,8.855 				"/>
				<polygon clip-path="url(#SVGID_4_)" fill="#FBCE16" points="338.367,9.324 298.125,46.852 297.871,46.852 338.367,9.09 				"/>
				<polygon clip-path="url(#SVGID_4_)" fill="#FCCD17" points="338.367,9.559 298.375,46.852 298.125,46.852 338.367,9.324 				"/>
				<polygon clip-path="url(#SVGID_4_)" fill="#FCCC18" points="338.367,9.793 298.625,46.852 298.375,46.852 338.367,9.559 				"/>
				<polygon clip-path="url(#SVGID_4_)" fill="#FCCB19" points="338.367,10.027 298.879,46.852 298.625,46.852 338.367,9.793 				
					"/>
				<polygon clip-path="url(#SVGID_4_)" fill="#FCCA19" points="338.367,10.262 299.129,46.852 298.879,46.852 338.367,10.027 				
					"/>
				<polygon clip-path="url(#SVGID_4_)" fill="#FCC91A" points="338.367,10.496 299.383,46.852 299.129,46.852 338.367,10.262 				
					"/>
				<polygon clip-path="url(#SVGID_4_)" fill="#FCC81B" points="338.367,10.73 299.633,46.852 299.383,46.852 338.367,10.496 				
					"/>
				<polygon clip-path="url(#SVGID_4_)" fill="#FCC71C" points="338.367,10.965 299.883,46.852 299.633,46.852 338.367,10.73 				
					"/>
				<polygon clip-path="url(#SVGID_4_)" fill="#FCC61C" points="338.367,11.199 300.133,46.852 299.883,46.852 338.367,10.965 				
					"/>
				<polygon clip-path="url(#SVGID_4_)" fill="#FCC51D" points="338.367,11.434 300.387,46.852 300.133,46.852 338.367,11.199 				
					"/>
				<polygon clip-path="url(#SVGID_4_)" fill="#FCC41E" points="338.367,11.672 300.637,46.852 300.387,46.852 338.367,11.434 				
					"/>
				<polygon clip-path="url(#SVGID_4_)" fill="#FCC31E" points="338.367,11.906 300.891,46.852 300.637,46.852 338.367,11.672 				
					"/>
				<polygon clip-path="url(#SVGID_4_)" fill="#FCC21F" points="338.367,12.137 301.141,46.852 300.891,46.852 338.367,11.906 				
					"/>
				<polygon clip-path="url(#SVGID_4_)" fill="#FDC120" points="338.367,12.371 301.391,46.852 301.141,46.852 338.367,12.137 				
					"/>
				<polygon clip-path="url(#SVGID_4_)" fill="#FDC020" points="338.367,12.609 301.645,46.852 301.391,46.852 338.367,12.371 				
					"/>
				<polygon clip-path="url(#SVGID_4_)" fill="#FDBF21" points="338.367,12.844 301.895,46.852 301.645,46.852 338.367,12.609 				
					"/>
				<polygon clip-path="url(#SVGID_4_)" fill="#FDBE22" points="338.367,13.078 302.148,46.852 301.895,46.852 338.367,12.844 				
					"/>
				<polygon clip-path="url(#SVGID_4_)" fill="#FDBD22" points="338.367,13.312 302.398,46.852 302.148,46.852 338.367,13.078 				
					"/>
				<polygon clip-path="url(#SVGID_4_)" fill="#FDBC23" points="338.367,13.547 302.648,46.852 302.398,46.852 338.367,13.312 				
					"/>
				<polygon clip-path="url(#SVGID_4_)" fill="#FDBC24" points="338.367,13.781 302.898,46.852 302.648,46.852 338.367,13.547 				
					"/>
				<polygon clip-path="url(#SVGID_4_)" fill="#FDBB24" points="338.367,14.016 303.152,46.852 302.898,46.852 338.367,13.781 				
					"/>
				<polygon clip-path="url(#SVGID_4_)" fill="#FDBB24" points="303.152,46.852 338.367,14.016 338.367,46.852 				"/>
			</g>
		</g>
	</g>
	<g>
		<defs>
			<path id="SVGID_5_" d="M310.583,31.517c-5.787,2.077-9.408,6.744-8.089,10.422c1.32,3.678,7.081,4.978,12.866,2.901
				c5.789-2.076,9.408-6.74,8.089-10.419c-0.894-2.491-3.825-3.892-7.421-3.892C314.316,30.529,312.451,30.848,310.583,31.517"/>
		</defs>
		<clipPath id="SVGID_6_">
			<use xlink:href="#SVGID_5_"  overflow="visible"/>
		</clipPath>
		<g clip-path="url(#SVGID_6_)">
			<g>
				<defs>
					
						<rect id="SVGID_7_" x="303.59" y="26.133" transform="matrix(0.1045 -0.9945 0.9945 0.1045 241.7526 345.9339)" width="18.763" height="25.179"/>
				</defs>
				<clipPath id="SVGID_8_">
					<use xlink:href="#SVGID_7_"  overflow="visible"/>
				</clipPath>
				<polygon clip-path="url(#SVGID_8_)" fill="#F9EC00" points="326.473,36.594 299.469,33.754 299.469,28.078 326.473,28.078 				
					"/>
				<polygon clip-path="url(#SVGID_8_)" fill="#F9EC00" points="326.473,40.055 299.469,37.215 299.469,33.758 326.473,36.594 				
					"/>
				<polygon clip-path="url(#SVGID_8_)" fill="#F9EC00" points="326.473,40.211 299.469,37.371 299.469,37.215 326.473,40.055 				
					"/>
				<polygon clip-path="url(#SVGID_8_)" fill="#F9EB01" points="326.473,40.363 299.469,37.527 299.469,37.371 326.473,40.211 				
					"/>
				<polygon clip-path="url(#SVGID_8_)" fill="#F9EA02" points="326.473,40.52 299.469,37.68 299.469,37.527 326.473,40.363 				"/>
				<polygon clip-path="url(#SVGID_8_)" fill="#F9E902" points="326.473,40.676 299.469,37.836 299.469,37.68 326.473,40.52 				"/>
				<polygon clip-path="url(#SVGID_8_)" fill="#F9E803" points="326.473,40.828 299.469,37.992 299.469,37.836 326.473,40.676 				
					"/>
				<polygon clip-path="url(#SVGID_8_)" fill="#F9E604" points="326.473,40.984 299.469,38.145 299.469,37.992 326.473,40.828 				
					"/>
				<polygon clip-path="url(#SVGID_8_)" fill="#FAE505" points="326.473,41.141 299.469,38.301 299.469,38.145 326.473,40.984 				
					"/>
				<polygon clip-path="url(#SVGID_8_)" fill="#FAE406" points="326.473,41.293 299.469,38.457 299.469,38.301 326.473,41.141 				
					"/>
				<polygon clip-path="url(#SVGID_8_)" fill="#FAE307" points="326.473,41.449 299.469,38.609 299.469,38.457 326.473,41.293 				
					"/>
				<polygon clip-path="url(#SVGID_8_)" fill="#FAE207" points="326.473,41.605 299.469,38.766 299.469,38.609 326.473,41.449 				
					"/>
				<polygon clip-path="url(#SVGID_8_)" fill="#FAE108" points="326.473,41.758 299.469,38.922 299.469,38.766 326.473,41.605 				
					"/>
				<polygon clip-path="url(#SVGID_8_)" fill="#FAE009" points="326.473,41.914 299.469,39.078 299.469,38.922 326.473,41.758 				
					"/>
				<polygon clip-path="url(#SVGID_8_)" fill="#FADF0A" points="326.473,42.07 299.469,39.23 299.469,39.078 326.473,41.914 				"/>
				<polygon clip-path="url(#SVGID_8_)" fill="#FADE0B" points="326.473,42.227 299.469,39.387 299.469,39.23 326.473,42.07 				"/>
				<polygon clip-path="url(#SVGID_8_)" fill="#FADC0B" points="326.473,42.379 299.469,39.543 299.469,39.387 326.473,42.227 				
					"/>
				<polygon clip-path="url(#SVGID_8_)" fill="#FADB0C" points="326.473,42.535 299.469,39.695 299.469,39.543 326.473,42.379 				
					"/>
				<polygon clip-path="url(#SVGID_8_)" fill="#FADA0D" points="326.473,42.691 299.469,39.852 299.469,39.695 326.473,42.535 				
					"/>
				<polygon clip-path="url(#SVGID_8_)" fill="#FBD90E" points="326.473,42.844 299.469,40.008 299.469,39.852 326.473,42.691 				
					"/>
				<polygon clip-path="url(#SVGID_8_)" fill="#FBD80F" points="326.473,43 299.469,40.16 299.469,40.008 326.473,42.844 				"/>
				<polygon clip-path="url(#SVGID_8_)" fill="#FBD70F" points="326.473,43.156 299.469,40.316 299.469,40.16 326.473,43 				"/>
				<polygon clip-path="url(#SVGID_8_)" fill="#FBD610" points="326.473,43.309 299.469,40.473 299.469,40.316 326.473,43.156 				
					"/>
				<polygon clip-path="url(#SVGID_8_)" fill="#FBD511" points="326.473,43.465 299.469,40.625 299.469,40.473 326.473,43.309 				
					"/>
				<polygon clip-path="url(#SVGID_8_)" fill="#FBD412" points="326.473,43.621 299.469,40.781 299.469,40.625 326.473,43.465 				
					"/>
				<polygon clip-path="url(#SVGID_8_)" fill="#FBD312" points="326.473,43.773 299.469,40.938 299.469,40.781 326.473,43.621 				
					"/>
				<polygon clip-path="url(#SVGID_8_)" fill="#FBD213" points="326.473,43.93 299.469,41.094 299.469,40.938 326.473,43.773 				
					"/>
				<polygon clip-path="url(#SVGID_8_)" fill="#FBD114" points="326.473,44.086 299.469,41.246 299.469,41.094 326.473,43.93 				
					"/>
				<polygon clip-path="url(#SVGID_8_)" fill="#FBD015" points="326.473,44.238 299.469,41.402 299.469,41.246 326.473,44.086 				
					"/>
				<polygon clip-path="url(#SVGID_8_)" fill="#FBCF16" points="326.473,44.395 299.469,41.559 299.469,41.402 326.473,44.238 				
					"/>
				<polygon clip-path="url(#SVGID_8_)" fill="#FBCE16" points="326.473,44.551 299.469,41.711 299.469,41.559 326.473,44.395 				
					"/>
				<polygon clip-path="url(#SVGID_8_)" fill="#FCCD17" points="326.473,44.707 299.469,41.867 299.469,41.711 326.473,44.551 				
					"/>
				<polygon clip-path="url(#SVGID_8_)" fill="#FCCC18" points="326.473,44.859 299.469,42.023 299.469,41.867 326.473,44.707 				
					"/>
				<polygon clip-path="url(#SVGID_8_)" fill="#FCCB19" points="326.473,45.016 299.469,42.176 299.469,42.023 326.473,44.859 				
					"/>
				<polygon clip-path="url(#SVGID_8_)" fill="#FCCA19" points="326.473,45.172 299.469,42.332 299.469,42.176 326.473,45.016 				
					"/>
				<polygon clip-path="url(#SVGID_8_)" fill="#FCC91A" points="326.473,45.324 299.469,42.488 299.469,42.332 326.473,45.172 				
					"/>
				<polygon clip-path="url(#SVGID_8_)" fill="#FCC81B" points="326.473,45.48 299.469,42.641 299.469,42.488 326.473,45.324 				
					"/>
				<polygon clip-path="url(#SVGID_8_)" fill="#FCC71C" points="326.473,45.637 299.469,42.797 299.469,42.641 326.473,45.48 				
					"/>
				<polygon clip-path="url(#SVGID_8_)" fill="#FCC61C" points="326.473,45.789 299.469,42.953 299.469,42.797 326.473,45.637 				
					"/>
				<polygon clip-path="url(#SVGID_8_)" fill="#FCC51D" points="326.473,45.945 299.469,43.109 299.469,42.953 326.473,45.789 				
					"/>
				<polygon clip-path="url(#SVGID_8_)" fill="#FCC41E" points="326.473,46.102 299.469,43.262 299.469,43.109 326.473,45.945 				
					"/>
				<polygon clip-path="url(#SVGID_8_)" fill="#FCC31E" points="326.473,46.258 299.469,43.418 299.469,43.262 326.473,46.102 				
					"/>
				<polygon clip-path="url(#SVGID_8_)" fill="#FCC21F" points="326.473,46.41 299.469,43.574 299.469,43.418 326.473,46.258 				
					"/>
				<polygon clip-path="url(#SVGID_8_)" fill="#FDC120" points="326.473,46.566 299.469,43.727 299.469,43.574 326.473,46.41 				
					"/>
				<polygon clip-path="url(#SVGID_8_)" fill="#FDC020" points="326.473,46.719 299.469,43.883 299.469,43.727 326.473,46.566 				
					"/>
				<polygon clip-path="url(#SVGID_8_)" fill="#FDBF21" points="326.473,46.875 299.469,44.039 299.469,43.883 326.473,46.719 				
					"/>
				<polygon clip-path="url(#SVGID_8_)" fill="#FDBE22" points="326.473,47.031 299.469,44.191 299.469,44.039 326.473,46.875 				
					"/>
				<polygon clip-path="url(#SVGID_8_)" fill="#FDBD22" points="326.473,47.188 299.469,44.348 299.469,44.191 326.473,47.031 				
					"/>
				<polygon clip-path="url(#SVGID_8_)" fill="#FDBC23" points="326.473,47.34 299.469,44.504 299.469,44.348 326.473,47.188 				
					"/>
				<polygon clip-path="url(#SVGID_8_)" fill="#FDBC24" points="326.473,47.496 299.469,44.656 299.469,44.504 326.473,47.34 				
					"/>
				<polygon clip-path="url(#SVGID_8_)" fill="#FDBB24" points="326.473,47.652 299.469,44.812 299.469,44.656 326.473,47.496 				
					"/>
				<polygon clip-path="url(#SVGID_8_)" fill="#FDBB24" points="299.469,44.812 326.473,47.652 326.473,49.367 299.469,49.367 				
					"/>
			</g>
		</g>
	</g>
	<g>
		<defs>
			<path id="SVGID_9_" d="M297.559,29.494c-1.232,6.834,1.288,13.01,5.633,13.793c4.345,0.785,8.866-4.118,10.1-10.952
				c1.236-6.834-1.286-13.009-5.63-13.793c-0.309-0.057-0.616-0.082-0.924-0.082C302.692,18.46,298.705,23.142,297.559,29.494"/>
		</defs>
		<clipPath id="SVGID_10_">
			<use xlink:href="#SVGID_9_"  overflow="visible"/>
		</clipPath>
		<g clip-path="url(#SVGID_10_)">
			<g>
				<defs>
					<rect id="SVGID_11_" x="296.326" y="18.46" width="18.201" height="25.612"/>
				</defs>
				<clipPath id="SVGID_12_">
					<use xlink:href="#SVGID_11_"  overflow="visible"/>
				</clipPath>
				<rect x="296.328" y="18.461" clip-path="url(#SVGID_12_)" fill="#F9EC00" width="0.918" height="25.609"/>
				<rect x="297.246" y="18.461" clip-path="url(#SVGID_12_)" fill="#F9EC00" width="5.117" height="25.609"/>
				<rect x="302.363" y="18.461" clip-path="url(#SVGID_12_)" fill="#F9EC00" width="0.23" height="25.609"/>
				<rect x="302.594" y="18.461" clip-path="url(#SVGID_12_)" fill="#F9EB01" width="0.23" height="25.609"/>
				<rect x="302.824" y="18.461" clip-path="url(#SVGID_12_)" fill="#F9EA02" width="0.23" height="25.609"/>
				<rect x="303.055" y="18.461" clip-path="url(#SVGID_12_)" fill="#F9E902" width="0.227" height="25.609"/>
				<rect x="303.281" y="18.461" clip-path="url(#SVGID_12_)" fill="#F9E803" width="0.23" height="25.609"/>
				<rect x="303.512" y="18.461" clip-path="url(#SVGID_12_)" fill="#F9E604" width="0.23" height="25.609"/>
				<rect x="303.742" y="18.461" clip-path="url(#SVGID_12_)" fill="#FAE505" width="0.227" height="25.609"/>
				<rect x="303.969" y="18.461" clip-path="url(#SVGID_12_)" fill="#FAE406" width="0.23" height="25.609"/>
				<rect x="304.199" y="18.461" clip-path="url(#SVGID_12_)" fill="#FAE307" width="0.23" height="25.609"/>
				<rect x="304.43" y="18.461" clip-path="url(#SVGID_12_)" fill="#FAE207" width="0.227" height="25.609"/>
				<rect x="304.656" y="18.461" clip-path="url(#SVGID_12_)" fill="#FAE108" width="0.23" height="25.609"/>
				<rect x="304.887" y="18.461" clip-path="url(#SVGID_12_)" fill="#FAE009" width="0.23" height="25.609"/>
				<rect x="305.117" y="18.461" clip-path="url(#SVGID_12_)" fill="#FADF0A" width="0.227" height="25.609"/>
				<rect x="305.344" y="18.461" clip-path="url(#SVGID_12_)" fill="#FADE0B" width="0.23" height="25.609"/>
				<rect x="305.574" y="18.461" clip-path="url(#SVGID_12_)" fill="#FADC0B" width="0.23" height="25.609"/>
				<rect x="305.805" y="18.461" clip-path="url(#SVGID_12_)" fill="#FADB0C" width="0.23" height="25.609"/>
				<rect x="306.035" y="18.461" clip-path="url(#SVGID_12_)" fill="#FADA0D" width="0.23" height="25.609"/>
				<rect x="306.266" y="18.461" clip-path="url(#SVGID_12_)" fill="#FBD90E" width="0.227" height="25.609"/>
				<rect x="306.492" y="18.461" clip-path="url(#SVGID_12_)" fill="#FBD80F" width="0.23" height="25.609"/>
				<rect x="306.723" y="18.461" clip-path="url(#SVGID_12_)" fill="#FBD70F" width="0.23" height="25.609"/>
				<rect x="306.953" y="18.461" clip-path="url(#SVGID_12_)" fill="#FBD610" width="0.227" height="25.609"/>
				<rect x="307.18" y="18.461" clip-path="url(#SVGID_12_)" fill="#FBD511" width="0.23" height="25.609"/>
				<rect x="307.41" y="18.461" clip-path="url(#SVGID_12_)" fill="#FBD412" width="0.23" height="25.609"/>
				<rect x="307.641" y="18.461" clip-path="url(#SVGID_12_)" fill="#FBD312" width="0.227" height="25.609"/>
				<rect x="307.867" y="18.461" clip-path="url(#SVGID_12_)" fill="#FBD213" width="0.23" height="25.609"/>
				<rect x="308.098" y="18.461" clip-path="url(#SVGID_12_)" fill="#FBD114" width="0.23" height="25.609"/>
				<rect x="308.328" y="18.461" clip-path="url(#SVGID_12_)" fill="#FBD015" width="0.23" height="25.609"/>
				<rect x="308.559" y="18.461" clip-path="url(#SVGID_12_)" fill="#FBCF16" width="0.23" height="25.609"/>
				<rect x="308.789" y="18.461" clip-path="url(#SVGID_12_)" fill="#FBCE16" width="0.227" height="25.609"/>
				<rect x="309.016" y="18.461" clip-path="url(#SVGID_12_)" fill="#FCCD17" width="0.23" height="25.609"/>
				<rect x="309.246" y="18.461" clip-path="url(#SVGID_12_)" fill="#FCCC18" width="0.23" height="25.609"/>
				<rect x="309.477" y="18.461" clip-path="url(#SVGID_12_)" fill="#FCCB19" width="0.227" height="25.609"/>
				<rect x="309.703" y="18.461" clip-path="url(#SVGID_12_)" fill="#FCCA19" width="0.23" height="25.609"/>
				<rect x="309.934" y="18.461" clip-path="url(#SVGID_12_)" fill="#FCC91A" width="0.23" height="25.609"/>
				<rect x="310.164" y="18.461" clip-path="url(#SVGID_12_)" fill="#FCC81B" width="0.227" height="25.609"/>
				<rect x="310.391" y="18.461" clip-path="url(#SVGID_12_)" fill="#FCC71C" width="0.23" height="25.609"/>
				<rect x="310.621" y="18.461" clip-path="url(#SVGID_12_)" fill="#FCC61C" width="0.23" height="25.609"/>
				<rect x="310.852" y="18.461" clip-path="url(#SVGID_12_)" fill="#FCC51D" width="0.227" height="25.609"/>
				<rect x="311.078" y="18.461" clip-path="url(#SVGID_12_)" fill="#FCC41E" width="0.23" height="25.609"/>
				<rect x="311.309" y="18.461" clip-path="url(#SVGID_12_)" fill="#FCC31E" width="0.23" height="25.609"/>
				<rect x="311.539" y="18.461" clip-path="url(#SVGID_12_)" fill="#FCC21F" width="0.23" height="25.609"/>
				<rect x="311.77" y="18.461" clip-path="url(#SVGID_12_)" fill="#FDC120" width="0.23" height="25.609"/>
				<rect x="312" y="18.461" clip-path="url(#SVGID_12_)" fill="#FDC020" width="0.227" height="25.609"/>
				<rect x="312.227" y="18.461" clip-path="url(#SVGID_12_)" fill="#FDBF21" width="0.23" height="25.609"/>
				<rect x="312.457" y="18.461" clip-path="url(#SVGID_12_)" fill="#FDBE22" width="0.23" height="25.609"/>
				<rect x="312.688" y="18.461" clip-path="url(#SVGID_12_)" fill="#FDBD22" width="0.227" height="25.609"/>
				<rect x="312.914" y="18.461" clip-path="url(#SVGID_12_)" fill="#FDBC23" width="0.23" height="25.609"/>
				<rect x="313.145" y="18.461" clip-path="url(#SVGID_12_)" fill="#FDBC24" width="0.23" height="25.609"/>
				<rect x="313.375" y="18.461" clip-path="url(#SVGID_12_)" fill="#FDBB24" width="0.227" height="25.609"/>
				<rect x="313.602" y="18.461" clip-path="url(#SVGID_12_)" fill="#FDBB24" width="0.926" height="25.609"/>
			</g>
		</g>
	</g>
	<g>
		<defs>
			<path id="SVGID_13_" d="M297.559,29.494c-1.232,6.834,1.288,13.01,5.633,13.793c4.345,0.785,8.866-4.118,10.1-10.952
				c1.236-6.834-1.286-13.009-5.63-13.793c-0.309-0.057-0.616-0.082-0.924-0.082C302.692,18.462,298.706,23.142,297.559,29.494"/>
		</defs>
		<clipPath id="SVGID_14_">
			<use xlink:href="#SVGID_13_"  overflow="visible"/>
		</clipPath>
		<g clip-path="url(#SVGID_14_)">
			<g>
				<defs>
					
						<rect id="SVGID_15_" x="291.257" y="15.653" transform="matrix(-0.8746 -0.4848 0.4848 -0.8746 557.4045 206.6796)" width="28.338" height="31.227"/>
				</defs>
				<clipPath id="SVGID_16_">
					<use xlink:href="#SVGID_15_"  overflow="visible"/>
				</clipPath>
				<polygon clip-path="url(#SVGID_16_)" fill="#F9EC00" points="312.934,10.742 290.18,51.789 285.465,51.789 285.465,10.742 				
					"/>
				<polygon clip-path="url(#SVGID_16_)" fill="#F9EC00" points="317.148,10.742 294.398,51.789 290.18,51.789 312.93,10.742 				
					"/>
				<polygon clip-path="url(#SVGID_16_)" fill="#F9EC00" points="317.34,10.742 294.586,51.789 294.398,51.789 317.148,10.742 				
					"/>
				<polygon clip-path="url(#SVGID_16_)" fill="#F9EB01" points="317.527,10.742 294.773,51.789 294.586,51.789 317.34,10.742 				
					"/>
				<polygon clip-path="url(#SVGID_16_)" fill="#F9EA02" points="294.965,51.789 317.719,10.742 317.527,10.742 294.773,51.789 				
					"/>
				<polygon clip-path="url(#SVGID_16_)" fill="#F9E902" points="317.906,10.742 295.152,51.789 294.965,51.789 317.719,10.742 				
					"/>
				<polygon clip-path="url(#SVGID_16_)" fill="#F9E803" points="318.098,10.742 295.344,51.789 295.152,51.789 317.906,10.742 				
					"/>
				<polygon clip-path="url(#SVGID_16_)" fill="#F9E604" points="318.285,10.742 295.531,51.789 295.344,51.789 318.098,10.742 				
					"/>
				<polygon clip-path="url(#SVGID_16_)" fill="#FAE505" points="318.473,10.742 295.719,51.789 295.531,51.789 318.285,10.742 				
					"/>
				<polygon clip-path="url(#SVGID_16_)" fill="#FAE406" points="318.664,10.742 295.91,51.789 295.719,51.789 318.473,10.742 				
					"/>
				<polygon clip-path="url(#SVGID_16_)" fill="#FAE307" points="318.852,10.742 296.098,51.789 295.91,51.789 318.664,10.742 				
					"/>
				<polygon clip-path="url(#SVGID_16_)" fill="#FAE207" points="319.039,10.742 296.289,51.789 296.098,51.789 318.852,10.742 				
					"/>
				<polygon clip-path="url(#SVGID_16_)" fill="#FAE108" points="319.23,10.742 296.477,51.789 296.289,51.789 319.039,10.742 				
					"/>
				<polygon clip-path="url(#SVGID_16_)" fill="#FAE009" points="319.422,10.742 296.664,51.789 296.477,51.789 319.23,10.742 				
					"/>
				<polygon clip-path="url(#SVGID_16_)" fill="#FADF0A" points="319.609,10.742 296.855,51.789 296.664,51.789 319.422,10.742 				
					"/>
				<polygon clip-path="url(#SVGID_16_)" fill="#FADE0B" points="319.797,10.742 297.043,51.789 296.855,51.789 319.609,10.742 				
					"/>
				<polygon clip-path="url(#SVGID_16_)" fill="#FADC0B" points="319.988,10.742 297.234,51.789 297.043,51.789 319.797,10.742 				
					"/>
				<polygon clip-path="url(#SVGID_16_)" fill="#FADB0C" points="320.176,10.742 297.422,51.789 297.234,51.789 319.988,10.742 				
					"/>
				<polygon clip-path="url(#SVGID_16_)" fill="#FADA0D" points="320.367,10.742 297.609,51.789 297.422,51.789 320.176,10.742 				
					"/>
				<polygon clip-path="url(#SVGID_16_)" fill="#FBD90E" points="320.555,10.742 297.801,51.789 297.609,51.789 320.367,10.742 				
					"/>
				<polygon clip-path="url(#SVGID_16_)" fill="#FBD80F" points="320.742,10.742 297.988,51.789 297.801,51.789 320.555,10.742 				
					"/>
				<polygon clip-path="url(#SVGID_16_)" fill="#FBD70F" points="320.934,10.742 298.18,51.789 297.988,51.789 320.742,10.742 				
					"/>
				<polygon clip-path="url(#SVGID_16_)" fill="#FBD610" points="321.121,10.742 298.367,51.789 298.18,51.789 320.934,10.742 				
					"/>
				<polygon clip-path="url(#SVGID_16_)" fill="#FBD511" points="321.312,10.742 298.555,51.789 298.367,51.789 321.121,10.742 				
					"/>
				<polygon clip-path="url(#SVGID_16_)" fill="#FBD412" points="321.5,10.742 298.746,51.789 298.555,51.789 321.312,10.742 				
					"/>
				<polygon clip-path="url(#SVGID_16_)" fill="#FBD312" points="321.688,10.742 298.934,51.789 298.746,51.789 321.5,10.742 				
					"/>
				<polygon clip-path="url(#SVGID_16_)" fill="#FBD213" points="321.879,10.742 299.125,51.789 298.934,51.789 321.688,10.742 				
					"/>
				<polygon clip-path="url(#SVGID_16_)" fill="#FBD114" points="322.066,10.742 299.312,51.789 299.125,51.789 321.879,10.742 				
					"/>
				<polygon clip-path="url(#SVGID_16_)" fill="#FBD015" points="322.258,10.742 299.5,51.789 299.312,51.789 322.066,10.742 				
					"/>
				<polygon clip-path="url(#SVGID_16_)" fill="#FBCF16" points="322.445,10.742 299.691,51.789 299.5,51.789 322.258,10.742 				
					"/>
				<polygon clip-path="url(#SVGID_16_)" fill="#FBCE16" points="322.633,10.742 299.883,51.789 299.691,51.789 322.445,10.742 				
					"/>
				<polygon clip-path="url(#SVGID_16_)" fill="#FCCD17" points="322.824,10.742 300.07,51.789 299.883,51.789 322.633,10.742 				
					"/>
				<polygon clip-path="url(#SVGID_16_)" fill="#FCCC18" points="323.012,10.742 300.258,51.789 300.07,51.789 322.824,10.742 				
					"/>
				<polygon clip-path="url(#SVGID_16_)" fill="#FCCB19" points="323.203,10.742 300.449,51.789 300.258,51.789 323.012,10.742 				
					"/>
				<polygon clip-path="url(#SVGID_16_)" fill="#FCCA19" points="323.391,10.742 300.637,51.789 300.449,51.789 323.203,10.742 				
					"/>
				<polygon clip-path="url(#SVGID_16_)" fill="#FCC91A" points="323.578,10.742 300.824,51.789 300.637,51.789 323.391,10.742 				
					"/>
				<polygon clip-path="url(#SVGID_16_)" fill="#FCC81B" points="323.77,10.742 301.016,51.789 300.824,51.789 323.578,10.742 				
					"/>
				<polygon clip-path="url(#SVGID_16_)" fill="#FCC71C" points="323.961,10.742 301.203,51.789 301.016,51.789 323.77,10.742 				
					"/>
				<polygon clip-path="url(#SVGID_16_)" fill="#FCC61C" points="324.148,10.742 301.395,51.789 301.203,51.789 323.961,10.742 				
					"/>
				<polygon clip-path="url(#SVGID_16_)" fill="#FCC51D" points="324.336,10.742 301.582,51.789 301.395,51.789 324.148,10.742 				
					"/>
				<polygon clip-path="url(#SVGID_16_)" fill="#FCC41E" points="324.523,10.742 301.773,51.789 301.582,51.789 324.336,10.742 				
					"/>
				<polygon clip-path="url(#SVGID_16_)" fill="#FCC31E" points="324.715,10.742 301.961,51.789 301.773,51.789 324.523,10.742 				
					"/>
				<polygon clip-path="url(#SVGID_16_)" fill="#FCC21F" points="324.902,10.742 302.148,51.789 301.961,51.789 324.715,10.742 				
					"/>
				<polygon clip-path="url(#SVGID_16_)" fill="#FDC120" points="325.094,10.742 302.34,51.789 302.148,51.789 324.902,10.742 				
					"/>
				<polygon clip-path="url(#SVGID_16_)" fill="#FDC020" points="302.527,51.789 325.281,10.742 325.094,10.742 302.34,51.789 				
					"/>
				<polygon clip-path="url(#SVGID_16_)" fill="#FDBF21" points="325.391,10.891 302.719,51.789 302.527,51.789 325.281,10.742 
					325.391,10.742 				"/>
				<polygon clip-path="url(#SVGID_16_)" fill="#FDBE22" points="325.391,11.23 302.906,51.789 302.719,51.789 325.391,10.891 				
					"/>
				<polygon clip-path="url(#SVGID_16_)" fill="#FDBD22" points="303.094,51.789 325.391,11.574 325.391,11.23 302.906,51.789 				
					"/>
				<polygon clip-path="url(#SVGID_16_)" fill="#FDBC23" points="325.391,11.914 303.285,51.789 303.094,51.789 325.391,11.574 				
					"/>
				<polygon clip-path="url(#SVGID_16_)" fill="#FDBC24" points="325.391,12.254 303.473,51.789 303.285,51.789 325.391,11.914 				
					"/>
				<polygon clip-path="url(#SVGID_16_)" fill="#FDBB24" points="325.391,12.594 303.664,51.789 303.473,51.789 325.391,12.254 				
					"/>
				<polygon clip-path="url(#SVGID_16_)" fill="#FDBB24" points="303.664,51.789 325.391,12.594 325.391,51.789 				"/>
			</g>
		</g>
	</g>
</g>
</svg>
