<svg enable-background="new 0 0 345 65" height="65" viewBox="0 0 345 65" width="345" xmlns="http://www.w3.org/2000/svg" xmlns:xlink="http://www.w3.org/1999/xlink"><clipPath id="a"><path d="m24.859 19.705c-2.802 6.161-1.896 12.598 2.018 14.377 3.917 1.782 9.36-1.768 12.163-7.929 2.801-6.159 1.896-12.597-2.02-14.377-.684-.311-1.418-.459-2.171-.459-3.568-.001-7.679 3.306-9.99 8.388"/></clipPath><linearGradient id="b"><stop offset="0" stop-color="#f9ec00"/><stop offset=".3129" stop-color="#f9ec00"/><stop offset=".5974" stop-color="#fbd610"/><stop offset="1" stop-color="#fdbb24"/></linearGradient><linearGradient id="c" gradientTransform="matrix(4.418 4.7377 4.7377 -4.418 -957.9639 2207.4399)" gradientUnits="userSpaceOnUse" x1="-142.9053" x2="-141.0824" xlink:href="#b" y1="341.6738" y2="341.6738"/><clipPath id="d"><path d="m27.263 30.928c-5.587 2.006-9.083 6.512-7.809 10.063 1.273 3.551 6.835 4.806 12.421 2.8 5.589-2.003 9.083-6.507 7.81-10.06-.862-2.404-3.694-3.757-7.165-3.757-1.653 0-3.455.309-5.257.954"/></clipPath><linearGradient id="e" gradientTransform="matrix(-.6087 5.7911 5.7911 .6087 -2146.7917 364.2834)" gradientUnits="userSpaceOnUse" x1="-95.4009" x2="-93.5781" xlink:href="#b" y1="365.8457" y2="365.8457"/><clipPath id="f"><path d="m14.689 28.977c-1.19 6.596 1.242 12.559 5.438 13.315 4.194.758 8.561-3.976 9.75-10.573 1.195-6.598-1.241-12.56-5.435-13.316-.297-.055-.594-.08-.892-.08-3.904 0-7.756 4.521-8.861 10.654"/></clipPath><linearGradient id="g" gradientTransform="matrix(8.6641 0 0 -8.6641 1577.3628 3206.9182)" gradientUnits="userSpaceOnUse" x1="-180.3975" x2="-178.5745" xlink:href="#b" y1="366.5977" y2="366.5977"/><clipPath id="h"><path d="m14.689 28.977c-1.19 6.596 1.242 12.559 5.438 13.315 4.194.758 8.561-3.976 9.75-10.573 1.195-6.598-1.241-12.56-5.435-13.316-.297-.055-.594-.08-.892-.08-3.904.001-7.753 4.521-8.861 10.654"/></clipPath><linearGradient id="i" gradientTransform="matrix(5.4636 3.0285 3.0285 -5.4636 -119.9368 2369.5029)" gradientUnits="userSpaceOnUse" x1="-162.1221" x2="-160.299" xlink:href="#b" y1="338.4971" y2="338.4971"/><path d="m29.892 36.617c-.641.44-1.482.317-1.866-.268l-17.88-27.321c-.382-.585-.475-1.218-.201-1.403.27-.186.829.126 1.239.694l19.129 26.469c.41.569.222 1.392-.421 1.829" fill="#00733b"/><path d="m35.287 33.486c-.341.698-1.132 1.006-1.754.688l-29.037-14.941c-.621-.32-1.013-.825-.868-1.121.143-.295.785-.301 1.42-.01l29.7 13.582c.639.295.881 1.103.539 1.802" fill="#00733b"/><path d="m26.389 28.221c.339-.697 1.13-1.005 1.753-.687l29.036 14.939c.622.321 1.013.825.869 1.122-.146.294-.785.3-1.422.009l-29.7-13.582c-.636-.293-.879-1.1-.536-1.801" fill="#00733b"/><path d="m22.201 35.379c-.712-.309-1.057-1.084-.767-1.721l13.583-29.694c.291-.637.778-1.05 1.081-.919.301.131.335.768.073 1.419l-12.196 30.294c-.263.65-1.058.929-1.774.621" fill="#00733b"/><path d="m26.944 29.622c.712.308 1.056 1.083.767 1.719l-13.583 29.693c-.291.638-.778 1.051-1.081.921-.301-.132-.334-.77-.073-1.421l12.196-30.293c.263-.649 1.059-.929 1.774-.619" fill="#00733b"/><path d="m20.015 38.842-8.661-13.239c-.382-.588-.925-.925-1.206-.751-.278.173-.217.808.139 1.414l7.792 13.204z" fill="#00733b"/><path d="m35.257 32.946 15.501-3.155c.685-.139 1.201-.52 1.144-.842-.057-.326-.671-.502-1.365-.396l-15.15 2.36z" fill="#00733b"/><path d="m19.151 33.453-15.503 3.156c-.687.139-1.202.52-1.144.842.056.324.671.503 1.363.396l15.15-2.361z" fill="#00733b"/><path d="m28.622 40.171 8.314 13.459c.368.595.902.947 1.188.782.284-.164.238-.803-.103-1.415l-7.446-13.404z" fill="#00733b"/><path d="m17.723 39.13 8.661 13.239c.382.587.928.924 1.208.751.278-.175.219-.811-.138-1.413l-7.792-13.205z" fill="#00733b"/><path clip-path="url(#a)" d="m32.639 1.449 21.447 22.998-22.826 21.285-21.448-22.997z" fill="url(#c)"/><path clip-path="url(#d)" d="m42.603 30.148-1.893 18.015-24.175-2.541 1.893-18.015z" fill="url(#e)"/><path clip-path="url(#f)" d="m13.499 18.323h17.573v24.727h-17.573z" fill="url(#g)"/><path clip-path="url(#h)" d="m17.628 10.871 23.929 13.265-14.616 26.366-23.929-13.264z" fill="url(#i)"/><g fill="#fff"><path d="m68.474 49.297v-17.89c0-1.461-.105-2.678-.312-3.65-.104-.453-.244-.854-.417-1.202-.176-.347-.263-.538-.263-.572 0-.103.087-.226.263-.366l2.241-1.25c.244-.138.401-.211.471-.211.659 0 1.129 1.028 1.407 3.078.765-.694 1.791-1.374 3.078-2.033 1.459-.697 2.693-1.045 3.702-1.045 3.026 0 4.869 1.045 5.53 3.132 2.849-2.087 5.145-3.132 6.885-3.132 2.572 0 4.328.836 5.266 2.505.627 1.112.939 2.888.939 5.321v17.315c0 .417-.21.624-.627.624h-2.712c-.417 0-.624-.207-.624-.627v-17.461c0-2.824-1.115-4.233-3.339-4.233-1.356 0-3.061.714-5.114 2.143v19.551c0 .42-.207.627-.624.627h-2.712c-.418 0-.627-.207-.627-.627v-17.461c0-2.824-1.13-4.233-3.389-4.233-1.602 0-3.288.732-5.059 2.194v19.5c0 .42-.208.627-.628.627h-2.709c-.417 0-.626-.207-.626-.624"/><path d="m111.242 47.418c4.034 0 6.05-3.407 6.05-10.221 0-6.538-2.034-9.807-6.102-9.807s-6.104 3.218-6.104 9.65c0 6.919 2.051 10.378 6.156 10.378m10.326-10.169c0 3.928-.835 7.074-2.504 9.439-1.843 2.643-4.572 3.965-8.188 3.965-3.373 0-5.93-1.252-7.667-3.756-1.599-2.294-2.398-5.426-2.398-9.389 0-3.895.815-7.023 2.45-9.388 1.843-2.642 4.555-3.963 8.138-3.963 3.408 0 5.997 1.269 7.77 3.806 1.6 2.263 2.399 5.357 2.399 9.286"/><path d="m134.921 47.418c4.033 0 6.05-3.407 6.05-10.221 0-6.538-2.036-9.807-6.104-9.807-4.065 0-6.101 3.218-6.101 9.65 0 6.919 2.051 10.378 6.155 10.378m10.327-10.169c0 3.928-.835 7.074-2.504 9.439-1.844 2.643-4.572 3.965-8.188 3.965-3.375 0-5.93-1.252-7.667-3.756-1.6-2.294-2.399-5.426-2.399-9.389 0-3.895.816-7.023 2.451-9.388 1.843-2.642 4.555-3.963 8.139-3.963 3.406 0 5.997 1.269 7.77 3.806 1.599 2.263 2.398 5.357 2.398 9.286"/><path d="m151.819 32.084v17.212c0 .418-.208.626-.627.626h-2.711c-.418 0-.626-.208-.626-.626v-17.889c0-1.6-.297-2.92-.887-3.964-.382-.66-.572-1.095-.572-1.305.033-.241.154-.417.365-.521l1.929-1.199c.244-.174.417-.26.522-.26.416 0 .851.591 1.302 1.772.314.869.557 1.74.732 2.608.833-.904 1.667-1.824 2.501-2.764 1.219-1.076 2.47-1.616 3.757-1.616.625 0 1.207.086 1.746.26.541.174.809.382.809.625 0 .036-.051.176-.157.418l-1.148 2.659c-.103.243-.208.366-.311.366-.036 0-.237-.079-.601-.234-.364-.157-.739-.237-1.124-.237-.764 0-1.65.505-2.658 1.513-.763.871-1.511 1.722-2.241 2.556"/><path d="m171.69 47.053.678 1.931c.07.14.105.261.105.366 0 .278-.497.564-1.487.858-.992.295-1.975.445-2.947.445-2.574 0-4.209-.837-4.903-2.506-.487-1.146-.729-3.667-.729-7.562v-27.067c0-.348.121-.557.365-.626l2.607-.624c.104-.036.312-.071.626-.105.243 0 .364.227.364.678v27.849c0 2.677.051 4.312.157 4.903.208 1.217.902 1.824 2.086 1.824.521 0 1.095-.112 1.722-.339.626-.225.956-.339.992-.339.173.001.295.106.364.314"/><path d="m187.806 44.185v-6.728c-6.503.14-9.753 1.981-9.753 5.527 0 1.184.294 2.176.885 2.973.695.976 1.671 1.461 2.921 1.461 1.495 0 3.477-1.077 5.947-3.233m3.964-12.726v10.221c0 2.192.209 3.932.627 5.218.068.208.241.557.521 1.043.276.485.416.781.416.886s-.156.244-.469.42l-2.033 1.25c-.21.103-.349.157-.42.157-.485 0-1.147-1.165-1.979-3.496-2.54 2.331-5.044 3.496-7.511 3.496-2.087 0-3.74-.652-4.956-1.957-1.217-1.304-1.824-3.104-1.824-5.397 0-5.771 4.554-8.798 13.664-9.076v-1.894c0-1.612-.331-2.804-.991-3.575-.662-.769-1.878-1.155-3.651-1.155-1.426 0-2.868.286-4.328.859-1.462.575-2.139.861-2.034.861-.174 0-.296-.085-.364-.26l-.68-1.827c-.104-.277-.155-.502-.155-.678 0-.451.946-.963 2.841-1.538 1.897-.574 3.66-.862 5.295-.862 5.354.001 8.031 2.437 8.031 7.304"/><path d="m215.188 31.981v17.315c0 .417-.207.625-.626.625h-2.711c-.418 0-.626-.208-.626-.628v-17.46c0-2.822-1.133-4.234-3.391-4.234-2.191 0-4.485 1.063-6.885 3.189v18.506c0 .42-.209.628-.627.628h-2.711c-.418 0-.627-.208-.627-.625v-17.995c0-1.529-.078-2.572-.232-3.128-.157-.557-.333-1.043-.522-1.461-.191-.417-.287-.644-.287-.678 0-.103.086-.226.262-.365l2.345-1.302c.244-.14.383-.211.42-.211.38 0 .763.541 1.146 1.619.243.729.399 1.373.471 1.93 2.99-2.364 5.79-3.549 8.396-3.549 2.572 0 4.328.836 5.268 2.505.623 1.111.937 2.884.937 5.319"/><path d="m233.861 44.115v-14.786c-2.157-1.154-4.141-1.73-5.948-1.73-2.016 0-3.389 1.068-4.119 3.201-.522 1.467-.782 3.81-.782 7.026 0 2.865.242 4.979.729 6.343.695 2.028 1.982 3.042 3.858 3.042 1.113 0 2.349-.418 3.704-1.259.837-.595 1.687-1.206 2.558-1.837m3.962-31.277v28.843c0 2.608.191 4.348.574 5.215.068.141.262.506.574 1.097.242.452.365.73.365.834 0 .105-.157.245-.471.418l-2.033 1.252c-.208.104-.349.155-.417.155-.313 0-.696-.415-1.147-1.25-.349-.661-.593-1.27-.729-1.826-1.392.974-2.349 1.599-2.871 1.877-1.562.8-3.163 1.199-4.798 1.199-2.643 0-4.693-1.32-6.154-3.964-1.322-2.328-1.981-5.249-1.981-8.763 0-4.032.694-7.266 2.087-9.698 1.529-2.712 3.736-4.07 6.621-4.07 2.401 0 4.54.593 6.419 1.773v-12.412c0-.348.121-.557.363-.626l2.557-.625c.104-.034.312-.07.624-.104.278-.001.417.224.417.675"/><path d="m257.851 28.121v21.175c0 .418-.207.626-.625.626h-2.711c-.419 0-.627-.208-.627-.626v-21.175h-3.65c-.244 0-.365-.208-.365-.626v-1.98c0-.42.121-.628.365-.628h3.65v-4.068c0-5.771 2.415-8.656 7.249-8.656 1.217 0 2.477.208 3.781.626 1.305.416 1.956.815 1.956 1.199 0-.139-.087.104-.26.729l-.731 1.722c-.14.208-.261.312-.363.312-.176 0-.767-.191-1.774-.575-1.008-.38-1.931-.573-2.764-.573-1.322 0-2.209.49-2.66 1.469-.313.698-.471 1.958-.471 3.776v4.038h7.512c.381 0 .572.125.572.366v.157c-.034.07-.052.14-.052.208l-.678 2.034c-.104.313-.331.47-.678.47z"/><path d="m282.677 44.545v-19.027c0-.349.121-.56.365-.63l2.606-.626c.106-.034.314-.068.627-.104.244 0 .365.227.365.678v18.566c0 1.497.191 2.646.573 3.443.662 1.355.99 2.017.99 1.982 0 .103-.155.243-.468.416l-2.034 1.252c-.209.104-.348.156-.419.156-.311 0-.635-.347-.965-1.043-.33-.694-.649-1.373-.964-2.033-2.504 2.052-4.92 3.076-7.249 3.076-3.166 0-5.321-.833-6.468-2.502-.765-1.113-1.147-2.887-1.147-5.32v-17.316c0-.347.121-.555.366-.625l2.607-.626c.104-.034.312-.068.625-.104.244 0 .365.227.365.68v18.139c0 2.821 1.426 4.234 4.275 4.234.766 0 1.845-.331 3.235-.993 1.253-.593 2.158-1.15 2.715-1.673"/><path d="m294.829 35.006h11.268c0-1.877-.332-3.494-.992-4.852-.94-1.841-2.417-2.764-4.433-2.764-2.121 0-3.686.939-4.694 2.818-.767 1.391-1.149 2.99-1.149 4.798m13.926 10.327.887 2.191c.104.242.157.382.157.416 0 .349-.887.868-2.66 1.565-1.982.764-3.843 1.147-5.581 1.147-3.442 0-6.136-1.208-8.084-3.626-1.947-2.415-2.921-5.625-2.921-9.622 0-3.894.929-7.076 2.789-9.545 1.863-2.468 4.374-3.702 7.537-3.702 6.328 0 9.492 4.312 9.492 12.934 0 .765-.19 1.147-.572 1.147h-14.97c0 2.203.453 4.093 1.356 5.664 1.252 2.204 3.199 3.307 5.843 3.307 1.389 0 2.841-.365 4.353-1.097 1.515-.729 2.2-1.093 2.062-1.093.07.002.172.105.312.314"/><path d="m323.308 47.053.678 1.931c.067.14.104.261.104.366 0 .278-.496.564-1.488.858-.99.295-1.973.445-2.946.445-2.573 0-4.205-.837-4.901-2.506-.487-1.146-.731-3.667-.731-7.562v-27.067c0-.348.123-.557.365-.626l2.607-.624c.105-.036.313-.071.628-.105.242 0 .363.227.363.678v27.849c0 2.677.052 4.312.157 4.903.209 1.217.902 1.824 2.086 1.824.521 0 1.095-.112 1.722-.339.625-.225.956-.339.99-.339.172.001.294.106.366.314"/><path d="m341.353 26.922-.678 1.408c-.209.417-.417.625-.627.625.07 0-.513-.226-1.747-.677-1.235-.453-2.408-.68-3.52-.68-2.575 0-3.859 1.145-3.859 3.435 0 1.562 1.006 2.863 3.024 3.902 1.844.939 3.685 1.876 5.529 2.812 2.016 1.388 3.024 3.228 3.024 5.516 0 2.325-.835 4.163-2.505 5.518-1.53 1.248-3.476 1.871-5.842 1.871-1.32 0-2.972-.295-4.953-.886-1.981-.59-2.974-1.13-2.974-1.616 0-.105.068-.314.21-.627l.728-1.617c.139-.312.296-.469.472-.469-.103 0 .634.295 2.217.887 1.58.591 3.083.887 4.51.887 1.182 0 2.173-.33 2.974-.988.799-.659 1.2-1.578 1.2-2.758 0-1.459-1.009-2.724-3.025-3.8-1.846-.937-3.686-1.89-5.528-2.862-2.019-1.386-3.026-3.192-3.026-5.412 0-2.115.739-3.85 2.219-5.202 1.476-1.355 3.363-2.032 5.658-2.032 2.121 0 4.171.521 6.155 1.565.382.208.571.435.571.678 0-.209-.069-.035-.207.522"/></g></svg>