<svg enable-background="new 0 0 345 110" height="110" viewBox="0 0 345 110" width="345" xmlns="http://www.w3.org/2000/svg" xmlns:xlink="http://www.w3.org/1999/xlink"><clipPath id="a"><path d="m308.093 19.891c-2.902 6.383-1.964 13.05 2.09 14.893 4.059 1.846 9.695-1.832 12.598-8.213 2.901-6.378 1.964-13.048-2.091-14.89-.709-.323-1.468-.476-2.249-.476-3.697-.001-7.954 3.421-10.348 8.686"/></clipPath><clipPath id="b"><path d="m299.151 7.753h32.572v32.328h-32.572z" transform="matrix(-.682 -.7314 .7314 -.682 513.073 270.9229)"/></clipPath><clipPath id="c"><path d="m310.583 31.517c-5.787 2.077-9.408 6.744-8.089 10.422 1.32 3.678 7.081 4.978 12.866 2.901 5.789-2.076 9.408-6.74 8.089-10.419-.894-2.491-3.825-3.892-7.421-3.892-1.712 0-3.577.319-5.445.988"/></clipPath><clipPath id="d"><path d="m303.59 26.133h18.763v25.179h-18.763z" transform="matrix(.1045 -.9945 .9945 .1045 241.7526 345.9339)"/></clipPath><clipPath id="e"><path d="m297.559 29.494c-1.232 6.834 1.288 13.01 5.633 13.793 4.345.785 8.866-4.118 10.1-10.952 1.236-6.834-1.286-13.009-5.63-13.793-.309-.057-.616-.082-.924-.082-4.046 0-8.033 4.682-9.179 11.034"/></clipPath><clipPath id="f"><path d="m296.326 18.46h18.201v25.612h-18.201z"/></clipPath><clipPath id="g"><path d="m297.559 29.494c-1.232 6.834 1.288 13.01 5.633 13.793 4.345.785 8.866-4.118 10.1-10.952 1.236-6.834-1.286-13.009-5.63-13.793-.309-.057-.616-.082-.924-.082-4.046.002-8.032 4.682-9.179 11.034"/></clipPath><clipPath id="h"><path d="m291.257 15.653h28.338v31.227h-28.338z" transform="matrix(-.8746 -.4848 .4848 -.8746 557.4045 206.6796)"/></clipPath><path d="m3.516 71.175v-18.33c0-1.497-.108-2.743-.321-3.74-.106-.462-.249-.874-.427-1.23-.179-.356-.268-.552-.268-.588 0-.106.089-.23.268-.374l2.298-1.282c.25-.142.41-.215.481-.215.677 0 1.157 1.052 1.443 3.153.783-.712 1.833-1.406 3.153-2.083 1.495-.714 2.76-1.07 3.793-1.07 3.1 0 4.988 1.07 5.666 3.208 2.92-2.137 5.272-3.208 7.054-3.208 2.637 0 4.436.855 5.396 2.566.642 1.141.963 2.959.963 5.451v17.743c0 .427-.215.641-.642.641h-2.78c-.426 0-.639-.214-.639-.643v-17.893c0-2.892-1.143-4.337-3.422-4.337-1.389 0-3.136.73-5.238 2.196v20.033c0 .429-.213.643-.639.643h-2.781c-.428 0-.641-.214-.641-.643v-17.892c0-2.892-1.157-4.337-3.473-4.337-1.641 0-3.368.75-5.185 2.249v19.98c0 .429-.213.643-.642.643h-2.775c-.429-.001-.642-.214-.642-.641" fill="#00733b"/><path d="m47.338 69.251c4.132 0 6.198-3.491 6.198-10.474 0-6.699-2.084-10.049-6.251-10.049-4.169 0-6.254 3.297-6.254 9.888 0 7.091 2.102 10.635 6.307 10.635m10.581-10.421c0 4.024-.855 7.25-2.566 9.673-1.887 2.707-4.684 4.062-8.388 4.062-3.458 0-6.076-1.283-7.857-3.848-1.639-2.352-2.458-5.56-2.458-9.62 0-3.991.836-7.196 2.511-9.618 1.889-2.708 4.667-4.062 8.339-4.062 3.49 0 6.146 1.301 7.961 3.901 1.639 2.316 2.458 5.487 2.458 9.512" fill="#00733b"/><path d="m71.601 69.251c4.132 0 6.198-3.491 6.198-10.474 0-6.699-2.084-10.049-6.253-10.049-4.167 0-6.252 3.297-6.252 9.888 0 7.091 2.102 10.635 6.307 10.635m10.581-10.421c0 4.024-.854 7.25-2.566 9.673-1.888 2.707-4.684 4.062-8.389 4.062-3.458 0-6.076-1.283-7.857-3.848-1.639-2.352-2.458-5.56-2.458-9.62 0-3.991.836-7.196 2.511-9.618 1.889-2.708 4.667-4.062 8.339-4.062 3.491 0 6.146 1.301 7.961 3.901 1.639 2.316 2.459 5.487 2.459 9.512" fill="#00733b"/><path d="m88.916 53.54v17.634c0 .429-.213.643-.642.643h-2.778c-.429 0-.642-.214-.642-.643v-18.329c0-1.639-.304-2.993-.908-4.061-.393-.677-.587-1.122-.587-1.337.034-.247.159-.427.374-.535l1.977-1.229c.25-.177.427-.267.535-.267.427 0 .873.606 1.334 1.816.321.891.571 1.783.75 2.671.854-.925 1.708-1.869 2.564-2.832 1.249-1.103 2.53-1.656 3.848-1.656.643 0 1.238.089 1.79.267.554.179.829.393.829.641 0 .036-.053.18-.161.429l-1.176 2.725c-.105.25-.213.374-.319.374-.036 0-.242-.079-.616-.24s-.757-.242-1.15-.242c-.783 0-1.691.518-2.724 1.55-.785.893-1.551 1.765-2.298 2.621" fill="#00733b"/><path d="m109.276 68.876.695 1.977c.071.145.107.269.107.376 0 .286-.508.578-1.524.881-1.015.302-2.021.455-3.019.455-2.637 0-4.312-.856-5.024-2.566-.498-1.175-.748-3.758-.748-7.749v-27.735c0-.357.124-.571.374-.642l2.671-.64c.108-.035.321-.072.642-.108.25 0 .374.233.374.695v28.537c0 2.743.053 4.419.161 5.024.213 1.246.925 1.869 2.137 1.869.534 0 1.122-.114 1.764-.348.641-.229.98-.347 1.015-.347.178.001.304.109.375.321" fill="#00733b"/><path d="m125.789 65.937v-6.893c-6.663.143-9.993 2.029-9.993 5.664 0 1.212.301 2.229.908 3.045.711 1 1.71 1.498 2.993 1.498 1.53 0 3.562-1.105 6.092-3.314m4.062-13.04v10.474c0 2.245.213 4.027.642 5.346.07.213.247.569.534 1.068.283.498.427.801.427.909 0 .106-.16.248-.48.428l-2.083 1.281c-.215.106-.356.161-.429.161-.499 0-1.176-1.192-2.03-3.582-2.601 2.39-5.167 3.582-7.696 3.582-2.137 0-3.831-.668-5.077-2.006-1.248-1.334-1.871-3.18-1.871-5.529 0-5.914 4.668-9.015 14.002-9.299v-1.938c0-1.653-.34-2.874-1.015-3.664-.678-.789-1.924-1.184-3.74-1.184-1.461 0-2.94.293-4.436.88-1.497.588-2.192.882-2.084.882-.179 0-.303-.087-.374-.267l-.694-1.872c-.108-.283-.161-.515-.161-.694 0-.463.97-.988 2.911-1.577 1.943-.586 3.75-.881 5.425-.881 5.485.001 8.229 2.496 8.229 7.482" fill="#00733b"/><path d="m153.845 53.432v17.743c0 .427-.213.641-.641.641h-2.778c-.429 0-.642-.214-.642-.643v-17.892c0-2.892-1.159-4.339-3.474-4.339-2.246 0-4.596 1.09-7.055 3.269v18.962c0 .429-.212.643-.641.643h-2.778c-.429 0-.642-.214-.642-.641v-18.437c0-1.567-.081-2.636-.24-3.206-.16-.57-.34-1.069-.534-1.497-.197-.427-.296-.659-.296-.695 0-.105.089-.23.269-.374l2.404-1.334c.249-.144.391-.215.428-.215.391 0 .782.553 1.175 1.658.25.748.41 1.407.48 1.977 3.064-2.422 5.933-3.634 8.605-3.634 2.637 0 4.435.856 5.398 2.566.641 1.138.962 2.954.962 5.448" fill="#00733b"/><path d="m172.978 65.866v-15.15c-2.208-1.182-4.241-1.773-6.093-1.773-2.066 0-3.472 1.094-4.222 3.278-.535 1.504-.801 3.905-.801 7.2 0 2.936.25 5.104.748 6.498.713 2.079 2.033 3.118 3.955 3.118 1.141 0 2.406-.429 3.795-1.29.853-.607 1.727-1.235 2.618-1.881m4.061-32.046v29.552c0 2.672.196 4.454.587 5.344.071.144.269.518.59 1.124.249.462.374.747.374.853 0 .107-.161.251-.481.429l-2.085 1.282c-.213.108-.357.161-.427.161-.321 0-.714-.427-1.177-1.283-.356-.675-.606-1.301-.747-1.871-1.425.999-2.405 1.64-2.94 1.925-1.603.819-3.242 1.229-4.917 1.229-2.708 0-4.809-1.354-6.306-4.062-1.354-2.386-2.03-5.379-2.03-8.978 0-4.132.713-7.444 2.137-9.939 1.567-2.78 3.829-4.169 6.786-4.169 2.461 0 4.65.606 6.575 1.816v-12.719c0-.356.125-.57.374-.641l2.619-.64c.107-.036.32-.073.64-.108.285 0 .428.231.428.695" fill="#00733b"/><path d="m197.561 49.478v21.696c0 .429-.214.643-.643.643h-2.777c-.429 0-.642-.214-.642-.643v-21.696h-3.74c-.25 0-.374-.212-.374-.641v-2.031c0-.429.124-.642.374-.642h3.74v-4.169c0-5.913 2.475-8.87 7.428-8.87 1.246 0 2.538.213 3.874.643 1.338.427 2.004.836 2.004 1.229 0-.142-.089.105-.266.748l-.748 1.763c-.144.213-.269.321-.374.321-.18 0-.785-.197-1.818-.589-1.033-.391-1.977-.587-2.832-.587-1.354 0-2.262.503-2.726 1.505-.32.715-.48 2.007-.48 3.868v4.139h7.695c.392 0 .588.127.588.374v.161c-.036.072-.053.144-.053.213l-.694 2.085c-.108.32-.341.48-.695.48z" fill="#00733b"/><path d="m222.997 66.306v-19.497c0-.356.126-.572.374-.643l2.672-.642c.108-.035.321-.072.643-.108.249 0 .373.232.373.695v19.024c0 1.533.196 2.709.588 3.527.678 1.39 1.016 2.067 1.016 2.032 0 .105-.16.248-.481.427l-2.085 1.281c-.213.108-.355.161-.427.161-.321 0-.65-.355-.988-1.069-.338-.712-.667-1.407-.988-2.083-2.565 2.103-5.041 3.152-7.428 3.152-3.244 0-5.453-.854-6.627-2.564-.783-1.141-1.177-2.957-1.177-5.451v-17.742c0-.355.125-.569.376-.64l2.671-.642c.106-.035.319-.072.641-.108.249 0 .374.232.374.697v18.585c0 2.892 1.462 4.34 4.382 4.34.784 0 1.889-.34 3.314-1.02 1.28-.606 2.208-1.176 2.777-1.712" fill="#00733b"/><path d="m235.45 56.532h11.544c0-1.923-.34-3.58-1.017-4.971-.962-1.887-2.477-2.833-4.543-2.833-2.173 0-3.776.963-4.809 2.887-.784 1.427-1.175 3.065-1.175 4.917m14.269 10.581.908 2.244c.107.25.16.393.16.427 0 .357-.908.893-2.724 1.604-2.033.784-3.94 1.177-5.72 1.177-3.526 0-6.288-1.237-8.284-3.715-1.995-2.475-2.993-5.762-2.993-9.859 0-3.99.952-7.25 2.859-9.78 1.907-2.528 4.48-3.794 7.723-3.794 6.484 0 9.726 4.418 9.726 13.253 0 .783-.193 1.176-.587 1.176h-15.337c0 2.256.462 4.193 1.389 5.805 1.283 2.258 3.278 3.388 5.986 3.388 1.424 0 2.912-.374 4.462-1.124 1.55-.748 2.252-1.122 2.11-1.122.072-.001.177.106.322.32" fill="#00733b"/><path d="m264.629 68.876.695 1.977c.069.145.107.269.107.376 0 .286-.509.578-1.523.881-1.017.302-2.022.455-3.02.455-2.639 0-4.311-.856-5.024-2.566-.499-1.175-.748-3.758-.748-7.749v-27.735c0-.357.124-.571.374-.642l2.672-.64c.106-.035.32-.072.642-.108.249 0 .374.233.374.695v28.537c0 2.743.053 4.419.16 5.024.213 1.246.925 1.869 2.137 1.869.535 0 1.122-.114 1.764-.348.643-.229.981-.347 1.017-.347.177.001.301.109.373.321" fill="#00733b"/><path d="m283.119 48.249-.695 1.442c-.214.428-.427.642-.643.642.072 0-.524-.232-1.789-.694-1.266-.463-2.468-.695-3.606-.695-2.639 0-3.956 1.173-3.956 3.52 0 1.6 1.033 2.932 3.101 3.999 1.889.96 3.776 1.92 5.665 2.879 2.065 1.422 3.101 3.307 3.101 5.651 0 2.383-.855 4.265-2.567 5.653-1.568 1.278-3.562 1.919-5.984 1.919-1.354 0-3.046-.303-5.078-.909-2.029-.604-3.045-1.157-3.045-1.656 0-.107.07-.321.213-.642l.748-1.658c.142-.318.302-.479.481-.479-.105 0 .649.302 2.271.907 1.619.606 3.16.909 4.622.909 1.21 0 2.227-.338 3.046-1.013.819-.676 1.23-1.618 1.23-2.826 0-1.494-1.034-2.791-3.101-3.895-1.89-.958-3.776-1.935-5.664-2.932-2.067-1.42-3.101-3.27-3.101-5.545 0-2.168.758-3.944 2.271-5.33 1.515-1.388 3.448-2.082 5.798-2.082 2.174 0 4.276.535 6.308 1.604.391.214.587.446.587.695 0-.212-.071-.035-.213.536" fill="#00733b"/><g fill="#fff"><path d="m6.106 91.076v8.134c1.145.613 2.189.92 3.131.92 1.07 0 1.802-.567 2.188-1.701.277-.777.415-2.023.415-3.733 0-1.521-.128-2.645-.387-3.369-.37-1.078-1.054-1.617-2.05-1.617-1.072-.001-2.171.454-3.297 1.366m-2.106 15.952v-14.381c0-1.182-.111-2.106-.332-2.771-.039-.112-.13-.295-.278-.554-.147-.259-.22-.416-.22-.471 0-.075.082-.148.249-.223l1.08-.664c.111-.057.185-.083.223-.083.166 0 .368.211.608.636.185.37.315.702.389.999.738-.518 1.247-.849 1.524-.999.83-.425 1.68-.636 2.548-.636 1.405 0 2.495.692 3.27 2.078.703 1.256 1.054 2.815 1.054 4.683 0 2.144-.37 3.861-1.108 5.155-.813 1.44-1.986 2.159-3.52 2.159-1.257 0-2.382-.313-3.38-.941v5.652c0 .187-.065.295-.194.333l-1.386.332c-.055.019-.167.038-.332.057-.131.001-.195-.119-.195-.361"/><path d="m22.816 98.521v-3.574c-3.456.074-5.183 1.054-5.183 2.937 0 .629.157 1.156.472 1.581.368.517.886.775 1.552.775.793 0 1.846-.572 3.159-1.719m2.105-6.76v5.431c0 1.165.112 2.088.332 2.771.038.11.13.297.278.555.147.259.22.415.22.471 0 .057-.082.13-.249.223l-1.08.664c-.112.055-.186.083-.222.083-.26 0-.61-.619-1.053-1.857-1.348 1.238-2.679 1.857-3.99 1.857-1.11 0-1.986-.348-2.634-1.039-.646-.692-.969-1.649-.969-2.869 0-3.064 2.419-4.673 7.261-4.821v-1.005c0-.855-.176-1.49-.528-1.9-.35-.409-.997-.614-1.938-.614-.759 0-1.525.154-2.302.457-.774.307-1.135.458-1.08.458-.093 0-.157-.045-.195-.139l-.358-.97c-.057-.147-.085-.269-.085-.36 0-.24.504-.512 1.511-.816 1.008-.306 1.944-.458 2.813-.458 2.847-.002 4.268 1.293 4.268 3.878"/><path d="m29.881 92.094v9.144c0 .222-.111.332-.332.332h-1.44c-.223 0-.335-.11-.335-.332v-9.504c0-.851-.157-1.552-.47-2.105-.203-.353-.304-.584-.304-.694.018-.13.083-.223.193-.276l1.025-.639c.131-.091.223-.139.278-.139.222 0 .453.313.693.942.166.463.294.923.387 1.386.444-.479.887-.971 1.332-1.469.646-.572 1.31-.859 1.996-.859.332 0 .64.048.927.139.287.092.431.203.431.332 0 .019-.029.094-.083.222l-.61 1.413c-.055.13-.112.195-.167.195-.019 0-.124-.043-.319-.126-.194-.083-.393-.124-.596-.124-.407 0-.876.269-1.413.804-.407.46-.805.913-1.193 1.358"/><path d="m44.623 99.52.306 1.025c.036.131.055.221.055.277 0 .186-.415.419-1.248.706-.83.286-1.606.429-2.326.429-1.165 0-2.025-.313-2.577-.941-.555-.627-.831-1.681-.831-3.16v-7.869h-2.079c-.131 0-.195-.111-.195-.332v-1.054c0-.221.064-.332.195-.332h2.079v-3.795c0-.167.1-.278.305-.333l1.468-.415c.037 0 .074-.012.112-.028h.082c.091 0 .138.102.138.304v4.268h4.101c.204 0 .305.066.305.194v.083c-.018.037-.026.073-.026.111l-.361 1.079c-.054.167-.175.25-.36.25h-3.658v7.891c0 .741.075 1.252.221 1.53.222.48.702.722 1.44.722.518 0 1.405-.258 2.661-.775.129-.001.193.054.193.165"/><path d="m57.291 100.24c2.144 0 3.215-1.811 3.215-5.432 0-3.472-1.082-5.21-3.244-5.21-2.16 0-3.241 1.708-3.241 5.126 0 3.677 1.091 5.516 3.27 5.516m5.487-5.403c0 2.088-.443 3.758-1.331 5.017-.978 1.402-2.429 2.105-4.35 2.105-1.793 0-3.151-.666-4.073-1.996-.85-1.22-1.274-2.882-1.274-4.988 0-2.067.434-3.731 1.302-4.987.979-1.404 2.419-2.106 4.323-2.106 1.81 0 3.187.675 4.128 2.024.85 1.199 1.275 2.844 1.275 4.931"/><path d="m68.016 89.986v11.252c0 .221-.111.332-.333.332h-1.44c-.223 0-.333-.111-.333-.332v-11.252h-1.94c-.128 0-.195-.11-.195-.332v-1.054c0-.221.067-.332.195-.332h1.94v-2.16c0-3.068 1.285-4.602 3.852-4.602.646 0 1.317.111 2.009.333.691.222 1.039.434 1.039.638 0-.074-.047.057-.138.389l-.389.914c-.073.111-.138.166-.194.166-.092 0-.406-.102-.942-.305-.535-.203-1.025-.305-1.467-.305-.703 0-1.175.26-1.415.78-.167.371-.249 1.039-.249 2.007v2.145h3.99c.204 0 .306.066.306.194v.083c-.019.037-.029.073-.029.112l-.36 1.079c-.055.166-.176.249-.359.249h-3.548z"/><path d="m90.765 89.267-3.159 10.587c-.406 1.383-.674 2.271-.805 2.658-.387 1.146-.757 2.098-1.108 2.854-.645 1.349-1.737 2.022-3.27 2.022-.738 0-1.504-.176-2.3-.524-.793-.352-1.191-.639-1.191-.861 0-.035.019-.093.057-.166l.553-1.109c.037-.092.102-.137.194-.137.019 0 .333.181.943.539.61.361 1.182.541 1.718.541.887 0 1.588-.785 2.105-2.354l.582-1.747h-.997c-.185 0-.305-.083-.361-.248l-4.295-12.055c-.036-.221-.055-.352-.055-.388 0-.092.073-.166.221-.222l1.165-.472c.185-.072.313-.11.387-.11.149 0 .249.073.305.221l3.491 10.476c.185.553.37 1.22.555 1.995h.055c.111-.647.25-1.293.416-1.94l2.771-10.53c.036-.147.138-.221.305-.221.073 0 .205.038.389.11l1.163.472c.148.056.221.13.221.222 0 .073-.019.201-.055.387"/><path d="m97.608 100.24c2.144 0 3.216-1.811 3.216-5.432 0-3.472-1.082-5.21-3.245-5.21-2.16 0-3.242 1.708-3.242 5.126.001 3.677 1.093 5.516 3.271 5.516m5.488-5.403c0 2.088-.443 3.758-1.332 5.017-.978 1.402-2.428 2.105-4.35 2.105-1.792 0-3.149-.666-4.073-1.996-.85-1.22-1.274-2.882-1.274-4.988 0-2.067.435-3.731 1.303-4.987.978-1.404 2.418-2.106 4.322-2.106 1.811 0 3.188.675 4.129 2.024.85 1.199 1.275 2.844 1.275 4.931"/><path d="m112.961 98.713v-10.109c0-.185.064-.296.195-.333l1.384-.335c.056-.017.167-.035.334-.055.128 0 .193.121.193.36v9.866c0 .793.102 1.402.306 1.827.352.722.527 1.073.527 1.054 0 .055-.083.131-.252.221l-1.08.665c-.111.057-.184.085-.221.085-.167 0-.337-.185-.514-.555-.175-.37-.345-.729-.511-1.082-1.332 1.091-2.616 1.637-3.853 1.637-1.682 0-2.827-.444-3.437-1.331-.405-.592-.61-1.533-.61-2.827v-9.199c0-.185.064-.296.195-.331l1.385-.335c.056-.017.167-.035.333-.055.128 0 .193.121.193.36v9.638c0 1.5.757 2.25 2.273 2.25.405 0 .978-.175 1.718-.528.666-.314 1.146-.611 1.442-.888"/><path d="m120.609 92.094v9.144c0 .222-.112.332-.333.332h-1.44c-.223 0-.335-.11-.335-.332v-9.504c0-.851-.156-1.552-.47-2.105-.204-.352-.304-.583-.304-.693.017-.13.083-.223.193-.276l1.025-.639c.13-.091.222-.139.277-.139.223 0 .453.313.693.942.167.463.295.923.388 1.386.444-.479.887-.971 1.331-1.469.646-.572 1.31-.859 1.996-.859.333 0 .64.048.928.139.286.092.43.203.43.332 0 .019-.028.094-.083.222l-.61 1.413c-.056.13-.11.195-.166.195-.02 0-.125-.043-.319-.126-.195-.083-.393-.124-.597-.124-.405 0-.875.269-1.412.804-.406.459-.805.912-1.192 1.357"/><path d="m137.872 100.046.361 1.025c.035.075.054.14.054.194 0 .147-.261.3-.789.457-.527.156-1.048.235-1.564.235-1.368 0-2.236-.443-2.606-1.33-.258-.609-.387-1.949-.387-4.017v-14.382c0-.185.063-.295.193-.333l1.385-.332c.057-.017.167-.036.333-.055.13 0 .194.12.194.36v14.798c0 1.422.028 2.29.083 2.604.111.647.479.971 1.108.971.277 0 .582-.061.914-.18.335-.12.508-.181.528-.181.091 0 .155.055.193.166"/><path d="m146.601 98.521v-3.574c-3.455.074-5.183 1.054-5.183 2.937 0 .629.157 1.156.473 1.581.368.517.885.775 1.552.775.792 0 1.846-.572 3.158-1.719m2.106-6.76v5.431c0 1.165.111 2.088.332 2.771.038.11.128.297.277.555.148.259.221.415.221.471 0 .057-.083.13-.249.223l-1.081.664c-.112.055-.185.083-.223.083-.259 0-.608-.619-1.052-1.857-1.347 1.238-2.679 1.857-3.991 1.857-1.108 0-1.984-.348-2.633-1.039-.645-.692-.968-1.649-.968-2.869 0-3.064 2.418-4.673 7.259-4.821v-1.005c0-.855-.175-1.49-.527-1.9-.351-.409-.999-.614-1.939-.614-.759 0-1.525.154-2.301.457-.776.307-1.136.458-1.081.458-.092 0-.157-.045-.194-.139l-.36-.97c-.055-.147-.084-.269-.084-.36 0-.24.505-.512 1.51-.816 1.008-.306 1.946-.458 2.814-.458 2.848-.002 4.27 1.293 4.27 3.878"/><path d="m161.869 92.037v9.199c0 .224-.111.335-.332.335h-1.441c-.223 0-.332-.111-.332-.335v-9.276c0-1.501-.6-2.251-1.802-2.251-1.165 0-2.385.567-3.657 1.696v9.831c0 .224-.111.335-.334.335h-1.44c-.221 0-.333-.111-.333-.335v-9.56c0-.812-.041-1.366-.124-1.661s-.176-.555-.278-.776-.15-.342-.15-.36c0-.057.045-.121.138-.194l1.247-.692c.13-.074.204-.109.222-.109.203 0 .406.286.61.858.129.387.211.729.25 1.022 1.588-1.255 3.075-1.881 4.462-1.881 1.365 0 2.3.441 2.798 1.328.33.592.496 1.533.496 2.826"/><path d="m172.51 98.486v-7.856c-1.146-.614-2.198-.921-3.158-.921-1.073 0-1.802.567-2.191 1.7-.277.78-.415 2.024-.415 3.732 0 1.524.129 2.647.39 3.373.368 1.076 1.052 1.613 2.05 1.613.591 0 1.246-.222 1.968-.667.44-.314.894-.64 1.356-.974m2.105-16.618v15.323c0 1.385.103 2.311.306 2.771.036.073.139.268.305.581.128.242.194.389.194.444 0 .057-.084.13-.251.223l-1.081.664c-.11.055-.184.083-.22.083-.167 0-.37-.222-.61-.665-.186-.35-.313-.673-.388-.97-.74.518-1.247.85-1.523.997-.832.425-1.682.638-2.55.638-1.403 0-2.495-.702-3.269-2.104-.702-1.239-1.054-2.791-1.054-4.656 0-2.144.368-3.861 1.108-5.155.812-1.44 1.986-2.161 3.52-2.161 1.275 0 2.412.314 3.408.941v-6.595c0-.184.064-.295.195-.333l1.357-.332c.056-.017.167-.036.333-.055.146.001.22.121.22.361"/><path d="m185.367 89.35-.36.748c-.111.223-.221.332-.332.332.038 0-.272-.12-.93-.36-.654-.237-1.278-.361-1.869-.361-1.369 0-2.051.61-2.051 1.826 0 .829.534 1.521 1.607 2.075.978.497 1.958.993 2.936 1.492 1.073.736 1.609 1.715 1.609 2.93 0 1.235-.444 2.214-1.331 2.932-.812.661-1.847.994-3.104.994-.701 0-1.58-.156-2.633-.47-1.052-.313-1.578-.602-1.578-.859 0-.055.035-.167.11-.332l.388-.858c.073-.167.156-.25.248-.25-.054 0 .339.156 1.18.47.84.315 1.639.472 2.396.472.628 0 1.156-.175 1.58-.526.425-.35.637-.836.637-1.466 0-.773-.536-1.446-1.607-2.016-.978-.498-1.958-1.007-2.936-1.522-1.072-.736-1.608-1.695-1.608-2.875 0-1.123.393-2.046 1.179-2.765.785-.72 1.787-1.077 3.005-1.077 1.127 0 2.217.276 3.271.83.204.111.306.231.306.361-.001-.112-.039-.021-.113.275"/><path d="m196.562 99.132.471 1.163c.057.131.082.203.082.223 0 .184-.47.461-1.412.831-1.053.406-2.041.609-2.964.609-1.646 0-2.924-.596-3.839-1.787-.914-1.192-1.373-2.803-1.373-4.836 0-2.31.51-4.13 1.526-5.459 1.016-1.331 2.382-1.995 4.101-1.995.85 0 1.746.231 2.687.692.869.425 1.303.769 1.303 1.025 0-.017-.028.055-.083.222l-.637 1.164c-.057.111-.11.166-.165.166.09 0-.21-.239-.901-.719-.692-.481-1.372-.722-2.037-.722-1.293 0-2.217.475-2.771 1.422-.498.815-.748 2.078-.748 3.788 0 3.474 1.063 5.208 3.187 5.208.738 0 1.512-.193 2.313-.581.805-.389 1.169-.582 1.096-.582.034.001.09.057.164.168"/><path d="m205.816 98.521v-3.574c-3.453.074-5.182 1.054-5.182 2.937 0 .629.158 1.156.472 1.581.369.517.887.775 1.552.775.793 0 1.847-.572 3.158-1.719m2.108-6.76v5.431c0 1.165.11 2.088.332 2.771.038.11.128.297.277.555.147.259.221.415.221.471 0 .057-.083.13-.248.223l-1.081.664c-.111.055-.186.083-.223.083-.258 0-.607-.619-1.052-1.857-1.35 1.238-2.679 1.857-3.991 1.857-1.108 0-1.984-.348-2.633-1.039-.645-.692-.97-1.649-.97-2.869 0-3.064 2.42-4.673 7.26-4.821v-1.005c0-.855-.174-1.49-.525-1.9-.352-.409-.998-.614-1.939-.614-.759 0-1.525.154-2.301.457-.776.307-1.136.458-1.08.458-.093 0-.157-.045-.194-.139l-.359-.97c-.056-.147-.083-.269-.083-.36 0-.24.503-.512 1.509-.816 1.008-.306 1.945-.458 2.813-.458 2.844-.002 4.267 1.293 4.267 3.878"/><path d="m213.021 91.076v8.134c1.146.613 2.19.92 3.133.92 1.07 0 1.801-.567 2.188-1.701.277-.777.415-2.023.415-3.733 0-1.521-.128-2.645-.388-3.369-.37-1.078-1.053-1.617-2.05-1.617-1.072-.001-2.171.454-3.298 1.366m-2.105 15.952v-14.381c0-1.182-.111-2.106-.332-2.771-.038-.112-.13-.295-.277-.554s-.223-.416-.223-.471c0-.075.084-.148.25-.223l1.081-.664c.112-.057.185-.083.223-.083.166 0 .368.211.607.636.186.37.313.702.389.999.739-.518 1.247-.849 1.524-.999.831-.425 1.681-.636 2.55-.636 1.404 0 2.493.692 3.271 2.078.701 1.256 1.053 2.815 1.053 4.683 0 2.144-.37 3.861-1.11 5.155-.812 1.44-1.984 2.159-3.518 2.159-1.258 0-2.383-.313-3.382-.941v5.652c0 .187-.064.295-.194.333l-1.385.332c-.057.019-.165.038-.332.057-.131.001-.195-.119-.195-.361"/><path d="m225.16 93.646h5.985c0-.997-.176-1.856-.527-2.578-.5-.979-1.285-1.469-2.355-1.469-1.128 0-1.958.498-2.494 1.497-.406.738-.609 1.588-.609 2.55m7.398 5.486.47 1.163c.058.131.084.203.084.223 0 .184-.471.461-1.412.831-1.053.406-2.041.609-2.965.609-1.829 0-3.261-.641-4.296-1.926-1.035-1.283-1.552-2.989-1.552-5.112 0-2.068.494-3.76 1.482-5.071s2.324-1.968 4.005-1.968c3.362 0 5.044 2.292 5.044 6.872 0 .405-.104.61-.307.61h-7.951c0 1.17.238 2.174.72 3.01.664 1.171 1.698 1.755 3.104 1.755.738 0 1.511-.193 2.313-.581.804-.389 1.169-.582 1.095-.582.036 0 .092.056.166.167"/></g><path d="m313.305 37.41c-.661.456-1.533.329-1.931-.277l-18.52-28.299c-.396-.606-.492-1.262-.209-1.454.279-.193.859.13 1.284.719l19.812 27.417c.426.588.232 1.439-.436 1.894" fill="#00733b"/><path d="m318.894 34.166c-.353.723-1.172 1.042-1.816.711l-30.074-15.473c-.645-.333-1.05-.856-.9-1.161.149-.307.813-.312 1.472-.01l30.76 14.067c.661.304.913 1.14.558 1.866" fill="#00733b"/><path d="m309.678 28.713c.354-.723 1.172-1.042 1.816-.711l30.074 15.474c.645.332 1.05.855.9 1.161s-.813.312-1.473.01l-30.762-14.067c-.66-.306-.911-1.142-.555-1.867" fill="#00733b"/><path d="m305.341 36.125c-.738-.319-1.095-1.122-.795-1.781l14.068-30.756c.303-.661.806-1.089 1.119-.953.312.136.348.797.076 1.47l-12.632 31.377c-.271.676-1.096.964-1.836.643" fill="#00733b"/><path d="m310.252 30.163c.738.319 1.095 1.121.795 1.781l-14.068 30.755c-.302.661-.807 1.088-1.12.954-.312-.137-.345-.798-.075-1.471l12.632-31.377c.271-.674 1.096-.963 1.836-.642" fill="#00733b"/><path d="m303.077 39.712-8.972-13.711c-.396-.609-.959-.958-1.25-.778-.289.179-.224.836.145 1.464l8.068 13.677z" fill="#00733b"/><path d="m318.862 33.607 16.057-3.268c.71-.144 1.244-.539 1.185-.873-.059-.339-.695-.521-1.413-.41l-15.693 2.445z" fill="#00733b"/><path d="m302.18 34.132-16.057 3.268c-.709.144-1.244.539-1.183.873.058.337.693.521 1.411.41l15.692-2.446z" fill="#00733b"/><path d="m311.99 41.09 8.612 13.939c.381.618.935.982 1.229.811.294-.17.247-.831-.106-1.465l-7.713-13.884z" fill="#00733b"/><path d="m300.702 40.012 8.97 13.711c.396.608.961.958 1.25.777.289-.178.228-.838-.143-1.462l-8.07-13.678z" fill="#00733b"/><g clip-path="url(#a)"><g fill="#f9ec00"><path clip-path="url(#b)" d="m333.871.984.246.266-41.609 38.801v-39.067z"/><path clip-path="url(#b)" d="m334.117 1.25 2.61 2.801-42.594 39.719-1.625-1.743v-1.976z"/><path clip-path="url(#b)" d="m315.403-5.147h.171v58.239h-.171z" transform="matrix(-.6839 -.7295 .7295 -.6839 513.7748 270.529)"/></g><path clip-path="url(#b)" d="m315.52-5.022h.171v58.239h-.171z" fill="#f9eb01" transform="matrix(-.6839 -.7295 .7295 -.6839 513.8809 270.825)"/><path clip-path="url(#b)" d="m315.636-4.898h.174v58.242h-.174z" fill="#f9ea02" transform="matrix(-.6727 -.7399 .7399 -.6727 510.1774 274.1324)"/><path clip-path="url(#b)" d="m315.754-4.771h.171v58.242h-.171z" fill="#f9e902" transform="matrix(-.6839 -.7295 .7295 -.6839 514.0918 271.4202)"/><path clip-path="url(#b)" d="m315.871-4.646h.171v58.242h-.171z" fill="#f9e803" transform="matrix(-.6839 -.7295 .7295 -.6839 514.1979 271.7162)"/><path clip-path="url(#b)" d="m315.989-4.518h.171v58.239h-.171z" fill="#f9e604" transform="matrix(-.6839 -.7295 .7295 -.6839 514.3026 272.0155)"/><path clip-path="url(#b)" d="m316.106-4.393h.171v58.239h-.171z" fill="#fae505" transform="matrix(-.6839 -.7295 .7295 -.6839 514.4088 272.3115)"/><path clip-path="url(#b)" d="m316.223-4.268h.171v58.239h-.171z" fill="#fae406" transform="matrix(-.6839 -.7295 .7295 -.6839 514.5149 272.6075)"/><path clip-path="url(#b)" d="m316.34-4.143h.171v58.239h-.171z" fill="#fae307" transform="matrix(-.6839 -.7295 .7295 -.6839 514.6211 272.9034)"/><path clip-path="url(#b)" d="m316.457-4.018h.171v58.239h-.171z" fill="#fae207" transform="matrix(-.6839 -.7295 .7295 -.6839 514.7272 273.1994)"/><path clip-path="url(#b)" d="m316.574-3.893h.171v58.239h-.171z" fill="#fae108" transform="matrix(-.6839 -.7295 .7295 -.6839 514.8334 273.4954)"/><path clip-path="url(#b)" d="m316.692-3.768h.171v58.239h-.171z" fill="#fae009" transform="matrix(-.6839 -.7295 .7295 -.6839 514.9395 273.7914)"/><path clip-path="url(#b)" d="m316.807-3.644h.174v58.242h-.174z" fill="#fadf0a" transform="matrix(-.6727 -.7399 .7399 -.6727 511.2097 277.0969)"/><path clip-path="url(#b)" d="m316.926-3.517h.171v58.242h-.171z" fill="#fade0b" transform="matrix(-.6839 -.7295 .7295 -.6839 515.1504 274.3867)"/><path clip-path="url(#b)" d="m338.367 5.805v.234l-42.476 39.613-.118-.125z" fill="#fadc0b"/><path clip-path="url(#b)" d="m338.367 6.277-42.363 39.5-.113-.125 42.476-39.613z" fill="#fadb0c"/><path clip-path="url(#b)" d="m338.367 6.512-42.246 39.39-.117-.125 42.363-39.5z" fill="#fada0d"/><path clip-path="url(#b)" d="m338.367 6.742-42.129 39.285-.117-.125 42.246-39.39z" fill="#fbd90e"/><path clip-path="url(#b)" d="m338.367 6.98-42.012 39.172-.117-.125 42.129-39.285z" fill="#fbd80f"/><path clip-path="url(#b)" d="m338.367 7.215-41.894 39.062-.118-.125 42.012-39.172z" fill="#fbd70f"/><path clip-path="url(#b)" d="m338.367 7.449-41.777 38.957-.117-.129 41.894-39.062z" fill="#fbd610"/><path clip-path="url(#b)" d="m338.367 7.684-41.66 38.847-.117-.125 41.777-38.957z" fill="#fbd511"/><path clip-path="url(#b)" d="m338.367 7.918-41.543 38.738-.117-.125 41.66-38.847z" fill="#fbd412"/><path clip-path="url(#b)" d="m338.367 8.152-41.426 38.629-.117-.125 41.543-38.738z" fill="#fbd312"/><path clip-path="url(#b)" d="m338.367 8.387-41.25 38.465h-.109l-.067-.071 41.426-38.629z" fill="#fbd213"/><path clip-path="url(#b)" d="m338.367 8.621-41 38.231h-.25l41.25-38.465z" fill="#fbd114"/><path clip-path="url(#b)" d="m338.367 8.855-40.746 37.997h-.254l41-38.231z" fill="#fbd015"/><path clip-path="url(#b)" d="m338.367 9.09-40.496 37.762h-.25l40.746-37.997z" fill="#fbcf16"/><path clip-path="url(#b)" d="m338.367 9.324-40.242 37.528h-.254l40.496-37.762z" fill="#fbce16"/><path clip-path="url(#b)" d="m338.367 9.559-39.992 37.293h-.25l40.242-37.528z" fill="#fccd17"/><path clip-path="url(#b)" d="m338.367 9.793-39.742 37.059h-.25l39.992-37.293z" fill="#fccc18"/><path clip-path="url(#b)" d="m338.367 10.027-39.488 36.825h-.254l39.742-37.059z" fill="#fccb19"/><path clip-path="url(#b)" d="m338.367 10.262-39.238 36.59h-.25l39.488-36.825z" fill="#fcca19"/><path clip-path="url(#b)" d="m338.367 10.496-38.984 36.356h-.254l39.238-36.59z" fill="#fcc91a"/><path clip-path="url(#b)" d="m338.367 10.73-38.734 36.122h-.25l38.984-36.356z" fill="#fcc81b"/><path clip-path="url(#b)" d="m338.367 10.965-38.484 35.887h-.25l38.734-36.122z" fill="#fcc71c"/><path clip-path="url(#b)" d="m338.367 11.199-38.234 35.653h-.25l38.484-35.887z" fill="#fcc61c"/><path clip-path="url(#b)" d="m338.367 11.434-37.98 35.418h-.254l38.234-35.653z" fill="#fcc51d"/><path clip-path="url(#b)" d="m338.367 11.672-37.73 35.18h-.25l37.98-35.418z" fill="#fcc41e"/><path clip-path="url(#b)" d="m338.367 11.906-37.476 34.946h-.254l37.73-35.18z" fill="#fcc31e"/><path clip-path="url(#b)" d="m338.367 12.137-37.226 34.715h-.25l37.476-34.946z" fill="#fcc21f"/><path clip-path="url(#b)" d="m338.367 12.371-36.976 34.481h-.25l37.226-34.715z" fill="#fdc120"/><path clip-path="url(#b)" d="m338.367 12.609-36.722 34.243h-.254l36.976-34.481z" fill="#fdc020"/><path clip-path="url(#b)" d="m338.367 12.844-36.472 34.008h-.25l36.722-34.243z" fill="#fdbf21"/><path clip-path="url(#b)" d="m338.367 13.078-36.219 33.774h-.253l36.472-34.008z" fill="#fdbe22"/><path clip-path="url(#b)" d="m338.367 13.312-35.969 33.54h-.25l36.219-33.774z" fill="#fdbd22"/><path clip-path="url(#b)" d="m338.367 13.547-35.719 33.305h-.25l35.969-33.54z" fill="#fdbc23"/><path clip-path="url(#b)" d="m338.367 13.781-35.469 33.071h-.25l35.719-33.305z" fill="#fdbc24"/><path clip-path="url(#b)" d="m338.367 14.016-35.215 32.836h-.254l35.469-33.071z" fill="#fdbb24"/><path clip-path="url(#b)" d="m303.152 46.852 35.215-32.836v32.836z" fill="#fdbb24"/></g><g clip-path="url(#c)"><g fill="#f9ec00"><path clip-path="url(#d)" d="m326.473 36.594-27.004-2.84v-5.676h27.004z"/><path clip-path="url(#d)" d="m326.473 40.055-27.004-2.84v-3.457l27.004 2.836z"/><path clip-path="url(#d)" d="m326.473 40.211-27.004-2.84v-.156l27.004 2.84z"/></g><path clip-path="url(#d)" d="m326.473 40.363-27.004-2.836v-.156l27.004 2.84z" fill="#f9eb01"/><path clip-path="url(#d)" d="m326.473 40.52-27.004-2.84v-.153l27.004 2.836z" fill="#f9ea02"/><path clip-path="url(#d)" d="m326.473 40.676-27.004-2.84v-.156l27.004 2.84z" fill="#f9e902"/><path clip-path="url(#d)" d="m326.473 40.828-27.004-2.836v-.156l27.004 2.84z" fill="#f9e803"/><path clip-path="url(#d)" d="m326.473 40.984-27.004-2.839v-.153l27.004 2.836z" fill="#f9e604"/><path clip-path="url(#d)" d="m326.473 41.141-27.004-2.84v-.156l27.004 2.839z" fill="#fae505"/><path clip-path="url(#d)" d="m326.473 41.293-27.004-2.836v-.156l27.004 2.84z" fill="#fae406"/><path clip-path="url(#d)" d="m326.473 41.449-27.004-2.84v-.152l27.004 2.836z" fill="#fae307"/><path clip-path="url(#d)" d="m326.473 41.605-27.004-2.839v-.157l27.004 2.84z" fill="#fae207"/><path clip-path="url(#d)" d="m326.473 41.758-27.004-2.836v-.156l27.004 2.839z" fill="#fae108"/><path clip-path="url(#d)" d="m326.473 41.914-27.004-2.836v-.156l27.004 2.836z" fill="#fae009"/><path clip-path="url(#d)" d="m326.473 42.07-27.004-2.84v-.152l27.004 2.836z" fill="#fadf0a"/><path clip-path="url(#d)" d="m326.473 42.227-27.004-2.84v-.157l27.004 2.84z" fill="#fade0b"/><path clip-path="url(#d)" d="m326.473 42.379-27.004-2.836v-.156l27.004 2.84z" fill="#fadc0b"/><path clip-path="url(#d)" d="m326.473 42.535-27.004-2.84v-.152l27.004 2.836z" fill="#fadb0c"/><path clip-path="url(#d)" d="m326.473 42.691-27.004-2.839v-.157l27.004 2.84z" fill="#fada0d"/><path clip-path="url(#d)" d="m326.473 42.844-27.004-2.836v-.156l27.004 2.839z" fill="#fbd90e"/><path clip-path="url(#d)" d="m326.473 43-27.004-2.84v-.152l27.004 2.836z" fill="#fbd80f"/><path clip-path="url(#d)" d="m326.473 43.156-27.004-2.84v-.156l27.004 2.84z" fill="#fbd70f"/><path clip-path="url(#d)" d="m326.473 43.309-27.004-2.836v-.157l27.004 2.84z" fill="#fbd610"/><path clip-path="url(#d)" d="m326.473 43.465-27.004-2.84v-.152l27.004 2.836z" fill="#fbd511"/><path clip-path="url(#d)" d="m326.473 43.621-27.004-2.84v-.156l27.004 2.84z" fill="#fbd412"/><path clip-path="url(#d)" d="m326.473 43.773-27.004-2.835v-.157l27.004 2.84z" fill="#fbd312"/><path clip-path="url(#d)" d="m326.473 43.93-27.004-2.836v-.156l27.004 2.835z" fill="#fbd213"/><path clip-path="url(#d)" d="m326.473 44.086-27.004-2.84v-.152l27.004 2.836z" fill="#fbd114"/><path clip-path="url(#d)" d="m326.473 44.238-27.004-2.836v-.156l27.004 2.84z" fill="#fbd015"/><path clip-path="url(#d)" d="m326.473 44.395-27.004-2.836v-.157l27.004 2.836z" fill="#fbcf16"/><path clip-path="url(#d)" d="m326.473 44.551-27.004-2.84v-.152l27.004 2.836z" fill="#fbce16"/><path clip-path="url(#d)" d="m326.473 44.707-27.004-2.84v-.156l27.004 2.84z" fill="#fccd17"/><path clip-path="url(#d)" d="m326.473 44.859-27.004-2.836v-.156l27.004 2.84z" fill="#fccc18"/><path clip-path="url(#d)" d="m326.473 45.016-27.004-2.84v-.153l27.004 2.836z" fill="#fccb19"/><path clip-path="url(#d)" d="m326.473 45.172-27.004-2.84v-.156l27.004 2.84z" fill="#fcca19"/><path clip-path="url(#d)" d="m326.473 45.324-27.004-2.836v-.156l27.004 2.84z" fill="#fcc91a"/><path clip-path="url(#d)" d="m326.473 45.48-27.004-2.839v-.153l27.004 2.836z" fill="#fcc81b"/><path clip-path="url(#d)" d="m326.473 45.637-27.004-2.84v-.156l27.004 2.839z" fill="#fcc71c"/><path clip-path="url(#d)" d="m326.473 45.789-27.004-2.836v-.156l27.004 2.84z" fill="#fcc61c"/><path clip-path="url(#d)" d="m326.473 45.945-27.004-2.836v-.156l27.004 2.836z" fill="#fcc51d"/><path clip-path="url(#d)" d="m326.473 46.102-27.004-2.84v-.153l27.004 2.836z" fill="#fcc41e"/><path clip-path="url(#d)" d="m326.473 46.258-27.004-2.84v-.156l27.004 2.84z" fill="#fcc31e"/><path clip-path="url(#d)" d="m326.473 46.41-27.004-2.836v-.156l27.004 2.84z" fill="#fcc21f"/><path clip-path="url(#d)" d="m326.473 46.566-27.004-2.839v-.153l27.004 2.836z" fill="#fdc120"/><path clip-path="url(#d)" d="m326.473 46.719-27.004-2.836v-.156l27.004 2.839z" fill="#fdc020"/><path clip-path="url(#d)" d="m326.473 46.875-27.004-2.836v-.156l27.004 2.836z" fill="#fdbf21"/><path clip-path="url(#d)" d="m326.473 47.031-27.004-2.84v-.152l27.004 2.836z" fill="#fdbe22"/><path clip-path="url(#d)" d="m326.473 47.188-27.004-2.84v-.157l27.004 2.84z" fill="#fdbd22"/><path clip-path="url(#d)" d="m326.473 47.34-27.004-2.836v-.156l27.004 2.84z" fill="#fdbc23"/><path clip-path="url(#d)" d="m326.473 47.496-27.004-2.84v-.152l27.004 2.836z" fill="#fdbc24"/><path clip-path="url(#d)" d="m326.473 47.652-27.004-2.84v-.156l27.004 2.84z" fill="#fdbb24"/><path clip-path="url(#d)" d="m299.469 44.812 27.004 2.84v1.715h-27.004z" fill="#fdbb24"/></g><g clip-path="url(#e)"><g fill="#f9ec00"><path clip-path="url(#f)" d="m296.328 18.461h.918v25.609h-.918z"/><path clip-path="url(#f)" d="m297.246 18.461h5.117v25.609h-5.117z"/><path clip-path="url(#f)" d="m302.363 18.461h.23v25.609h-.23z"/></g><path clip-path="url(#f)" d="m302.594 18.461h.23v25.609h-.23z" fill="#f9eb01"/><path clip-path="url(#f)" d="m302.824 18.461h.23v25.609h-.23z" fill="#f9ea02"/><path clip-path="url(#f)" d="m303.055 18.461h.227v25.609h-.227z" fill="#f9e902"/><path clip-path="url(#f)" d="m303.281 18.461h.23v25.609h-.23z" fill="#f9e803"/><path clip-path="url(#f)" d="m303.512 18.461h.23v25.609h-.23z" fill="#f9e604"/><path clip-path="url(#f)" d="m303.742 18.461h.227v25.609h-.227z" fill="#fae505"/><path clip-path="url(#f)" d="m303.969 18.461h.23v25.609h-.23z" fill="#fae406"/><path clip-path="url(#f)" d="m304.199 18.461h.23v25.609h-.23z" fill="#fae307"/><path clip-path="url(#f)" d="m304.43 18.461h.227v25.609h-.227z" fill="#fae207"/><path clip-path="url(#f)" d="m304.656 18.461h.23v25.609h-.23z" fill="#fae108"/><path clip-path="url(#f)" d="m304.887 18.461h.23v25.609h-.23z" fill="#fae009"/><path clip-path="url(#f)" d="m305.117 18.461h.227v25.609h-.227z" fill="#fadf0a"/><path clip-path="url(#f)" d="m305.344 18.461h.23v25.609h-.23z" fill="#fade0b"/><path clip-path="url(#f)" d="m305.574 18.461h.23v25.609h-.23z" fill="#fadc0b"/><path clip-path="url(#f)" d="m305.805 18.461h.23v25.609h-.23z" fill="#fadb0c"/><path clip-path="url(#f)" d="m306.035 18.461h.23v25.609h-.23z" fill="#fada0d"/><path clip-path="url(#f)" d="m306.266 18.461h.227v25.609h-.227z" fill="#fbd90e"/><path clip-path="url(#f)" d="m306.492 18.461h.23v25.609h-.23z" fill="#fbd80f"/><path clip-path="url(#f)" d="m306.723 18.461h.23v25.609h-.23z" fill="#fbd70f"/><path clip-path="url(#f)" d="m306.953 18.461h.227v25.609h-.227z" fill="#fbd610"/><path clip-path="url(#f)" d="m307.18 18.461h.23v25.609h-.23z" fill="#fbd511"/><path clip-path="url(#f)" d="m307.41 18.461h.23v25.609h-.23z" fill="#fbd412"/><path clip-path="url(#f)" d="m307.641 18.461h.227v25.609h-.227z" fill="#fbd312"/><path clip-path="url(#f)" d="m307.867 18.461h.23v25.609h-.23z" fill="#fbd213"/><path clip-path="url(#f)" d="m308.098 18.461h.23v25.609h-.23z" fill="#fbd114"/><path clip-path="url(#f)" d="m308.328 18.461h.23v25.609h-.23z" fill="#fbd015"/><path clip-path="url(#f)" d="m308.559 18.461h.23v25.609h-.23z" fill="#fbcf16"/><path clip-path="url(#f)" d="m308.789 18.461h.227v25.609h-.227z" fill="#fbce16"/><path clip-path="url(#f)" d="m309.016 18.461h.23v25.609h-.23z" fill="#fccd17"/><path clip-path="url(#f)" d="m309.246 18.461h.23v25.609h-.23z" fill="#fccc18"/><path clip-path="url(#f)" d="m309.477 18.461h.227v25.609h-.227z" fill="#fccb19"/><path clip-path="url(#f)" d="m309.703 18.461h.23v25.609h-.23z" fill="#fcca19"/><path clip-path="url(#f)" d="m309.934 18.461h.23v25.609h-.23z" fill="#fcc91a"/><path clip-path="url(#f)" d="m310.164 18.461h.227v25.609h-.227z" fill="#fcc81b"/><path clip-path="url(#f)" d="m310.391 18.461h.23v25.609h-.23z" fill="#fcc71c"/><path clip-path="url(#f)" d="m310.621 18.461h.23v25.609h-.23z" fill="#fcc61c"/><path clip-path="url(#f)" d="m310.852 18.461h.227v25.609h-.227z" fill="#fcc51d"/><path clip-path="url(#f)" d="m311.078 18.461h.23v25.609h-.23z" fill="#fcc41e"/><path clip-path="url(#f)" d="m311.309 18.461h.23v25.609h-.23z" fill="#fcc31e"/><path clip-path="url(#f)" d="m311.539 18.461h.23v25.609h-.23z" fill="#fcc21f"/><path clip-path="url(#f)" d="m311.77 18.461h.23v25.609h-.23z" fill="#fdc120"/><path clip-path="url(#f)" d="m312 18.461h.227v25.609h-.227z" fill="#fdc020"/><path clip-path="url(#f)" d="m312.227 18.461h.23v25.609h-.23z" fill="#fdbf21"/><path clip-path="url(#f)" d="m312.457 18.461h.23v25.609h-.23z" fill="#fdbe22"/><path clip-path="url(#f)" d="m312.688 18.461h.227v25.609h-.227z" fill="#fdbd22"/><path clip-path="url(#f)" d="m312.914 18.461h.23v25.609h-.23z" fill="#fdbc23"/><path clip-path="url(#f)" d="m313.145 18.461h.23v25.609h-.23z" fill="#fdbc24"/><path clip-path="url(#f)" d="m313.375 18.461h.227v25.609h-.227z" fill="#fdbb24"/><path clip-path="url(#f)" d="m313.602 18.461h.926v25.609h-.926z" fill="#fdbb24"/></g><g clip-path="url(#g)"><g fill="#f9ec00"><path clip-path="url(#h)" d="m312.934 10.742-22.754 41.047h-4.715v-41.047z"/><path clip-path="url(#h)" d="m317.148 10.742-22.75 41.047h-4.218l22.75-41.047z"/><path clip-path="url(#h)" d="m317.34 10.742-22.754 41.047h-.188l22.75-41.047z"/></g><path clip-path="url(#h)" d="m317.527 10.742-22.754 41.047h-.187l22.754-41.047z" fill="#f9eb01"/><path clip-path="url(#h)" d="m294.965 51.789 22.754-41.047h-.192l-22.754 41.047z" fill="#f9ea02"/><path clip-path="url(#h)" d="m317.906 10.742-22.754 41.047h-.187l22.754-41.047z" fill="#f9e902"/><path clip-path="url(#h)" d="m318.098 10.742-22.754 41.047h-.192l22.754-41.047z" fill="#f9e803"/><path clip-path="url(#h)" d="m318.285 10.742-22.754 41.047h-.187l22.754-41.047z" fill="#f9e604"/><path clip-path="url(#h)" d="m318.473 10.742-22.754 41.047h-.188l22.754-41.047z" fill="#fae505"/><path clip-path="url(#h)" d="m318.664 10.742-22.754 41.047h-.191l22.754-41.047z" fill="#fae406"/><path clip-path="url(#h)" d="m318.852 10.742-22.754 41.047h-.188l22.754-41.047z" fill="#fae307"/><path clip-path="url(#h)" d="m319.039 10.742-22.75 41.047h-.191l22.754-41.047z" fill="#fae207"/><path clip-path="url(#h)" d="m319.23 10.742-22.753 41.047h-.188l22.75-41.047z" fill="#fae108"/><path clip-path="url(#h)" d="m319.422 10.742-22.758 41.047h-.187l22.753-41.047z" fill="#fae009"/><path clip-path="url(#h)" d="m319.609 10.742-22.754 41.047h-.191l22.758-41.047z" fill="#fadf0a"/><path clip-path="url(#h)" d="m319.797 10.742-22.754 41.047h-.188l22.754-41.047z" fill="#fade0b"/><path clip-path="url(#h)" d="m319.988 10.742-22.754 41.047h-.191l22.754-41.047z" fill="#fadc0b"/><path clip-path="url(#h)" d="m320.176 10.742-22.754 41.047h-.188l22.754-41.047z" fill="#fadb0c"/><path clip-path="url(#h)" d="m320.367 10.742-22.758 41.047h-.187l22.754-41.047z" fill="#fada0d"/><path clip-path="url(#h)" d="m320.555 10.742-22.754 41.047h-.192l22.758-41.047z" fill="#fbd90e"/><path clip-path="url(#h)" d="m320.742 10.742-22.754 41.047h-.187l22.754-41.047z" fill="#fbd80f"/><path clip-path="url(#h)" d="m320.934 10.742-22.754 41.047h-.192l22.754-41.047z" fill="#fbd70f"/><path clip-path="url(#h)" d="m321.121 10.742-22.754 41.047h-.187l22.754-41.047z" fill="#fbd610"/><path clip-path="url(#h)" d="m321.312 10.742-22.757 41.047h-.188l22.754-41.047z" fill="#fbd511"/><path clip-path="url(#h)" d="m321.5 10.742-22.754 41.047h-.191l22.757-41.047z" fill="#fbd412"/><path clip-path="url(#h)" d="m321.688 10.742-22.754 41.047h-.188l22.754-41.047z" fill="#fbd312"/><path clip-path="url(#h)" d="m321.879 10.742-22.754 41.047h-.191l22.754-41.047z" fill="#fbd213"/><path clip-path="url(#h)" d="m322.066 10.742-22.754 41.047h-.187l22.754-41.047z" fill="#fbd114"/><path clip-path="url(#h)" d="m322.258 10.742-22.758 41.047h-.188l22.754-41.047z" fill="#fbd015"/><path clip-path="url(#h)" d="m322.445 10.742-22.754 41.047h-.191l22.758-41.047z" fill="#fbcf16"/><path clip-path="url(#h)" d="m322.633 10.742-22.75 41.047h-.192l22.754-41.047z" fill="#fbce16"/><path clip-path="url(#h)" d="m322.824 10.742-22.754 41.047h-.187l22.75-41.047z" fill="#fccd17"/><path clip-path="url(#h)" d="m323.012 10.742-22.754 41.047h-.188l22.754-41.047z" fill="#fccc18"/><path clip-path="url(#h)" d="m323.203 10.742-22.754 41.047h-.191l22.754-41.047z" fill="#fccb19"/><path clip-path="url(#h)" d="m323.391 10.742-22.754 41.047h-.188l22.754-41.047z" fill="#fcca19"/><path clip-path="url(#h)" d="m323.578 10.742-22.754 41.047h-.187l22.754-41.047z" fill="#fcc91a"/><path clip-path="url(#h)" d="m323.77 10.742-22.754 41.047h-.192l22.754-41.047z" fill="#fcc81b"/><path clip-path="url(#h)" d="m323.961 10.742-22.758 41.047h-.187l22.754-41.047z" fill="#fcc71c"/><path clip-path="url(#h)" d="m324.148 10.742-22.753 41.047h-.192l22.758-41.047z" fill="#fcc61c"/><path clip-path="url(#h)" d="m324.336 10.742-22.754 41.047h-.187l22.753-41.047z" fill="#fcc51d"/><path clip-path="url(#h)" d="m324.523 10.742-22.75 41.047h-.191l22.754-41.047z" fill="#fcc41e"/><path clip-path="url(#h)" d="m324.715 10.742-22.754 41.047h-.188l22.75-41.047z" fill="#fcc31e"/><path clip-path="url(#h)" d="m324.902 10.742-22.754 41.047h-.187l22.754-41.047z" fill="#fcc21f"/><path clip-path="url(#h)" d="m325.094 10.742-22.754 41.047h-.192l22.754-41.047z" fill="#fdc120"/><path clip-path="url(#h)" d="m302.527 51.789 22.754-41.047h-.187l-22.754 41.047z" fill="#fdc020"/><path clip-path="url(#h)" d="m325.391 10.891-22.672 40.898h-.192l22.754-41.047h.11z" fill="#fdbf21"/><path clip-path="url(#h)" d="m325.391 11.23-22.485 40.559h-.187l22.672-40.898z" fill="#fdbe22"/><path clip-path="url(#h)" d="m303.094 51.789 22.297-40.215v-.344l-22.485 40.559z" fill="#fdbd22"/><path clip-path="url(#h)" d="m325.391 11.914-22.106 39.875h-.191l22.297-40.215z" fill="#fdbc23"/><path clip-path="url(#h)" d="m325.391 12.254-21.918 39.535h-.188l22.106-39.875z" fill="#fdbc24"/><path clip-path="url(#h)" d="m325.391 12.594-21.727 39.195h-.191l21.918-39.535z" fill="#fdbb24"/><path clip-path="url(#h)" d="m303.664 51.789 21.727-39.195v39.195z" fill="#fdbb24"/></g></svg>