<?xml version="1.0" encoding="utf-8"?>
<!-- Generator: Adobe Illustrator 16.0.0, SVG Export Plug-In . SVG Version: 6.00 Build 0)  -->
<!DOCTYPE svg PUBLIC "-//W3C//DTD SVG 1.1//EN" "http://www.w3.org/Graphics/SVG/1.1/DTD/svg11.dtd">
<svg version="1.1" id="Layer_1" xmlns="http://www.w3.org/2000/svg" xmlns:xlink="http://www.w3.org/1999/xlink" x="0px" y="0px"
	 width="345px" height="110px" viewBox="0 0 345 110" enable-background="new 0 0 345 110" xml:space="preserve">
<g>
	<g>
		<path fill="#00733B" d="M3.516,71.175v-18.33c0-1.497-0.108-2.743-0.321-3.74c-0.106-0.462-0.249-0.874-0.427-1.23
			C2.589,47.519,2.5,47.323,2.5,47.287c0-0.106,0.089-0.23,0.268-0.374l2.298-1.282c0.25-0.142,0.41-0.215,0.481-0.215
			c0.677,0,1.157,1.052,1.443,3.153c0.783-0.712,1.833-1.406,3.153-2.083c1.495-0.714,2.76-1.07,3.793-1.07
			c3.1,0,4.988,1.07,5.666,3.208c2.92-2.137,5.272-3.208,7.054-3.208c2.637,0,4.436,0.855,5.396,2.566
			c0.642,1.141,0.963,2.959,0.963,5.451v17.743c0,0.428-0.215,0.641-0.642,0.641h-2.78c-0.426,0-0.639-0.213-0.639-0.643V53.281
			c0-2.892-1.143-4.337-3.422-4.337c-1.389,0-3.136,0.73-5.238,2.196v20.033c0,0.429-0.213,0.644-0.639,0.644h-2.781
			c-0.428,0-0.641-0.215-0.641-0.644V53.281c0-2.892-1.157-4.337-3.473-4.337c-1.641,0-3.368,0.75-5.185,2.249v19.98
			c0,0.429-0.213,0.644-0.642,0.644H4.158C3.729,71.814,3.516,71.602,3.516,71.175"/>
	</g>
	<g>
		<path fill="#00733B" d="M47.338,69.251c4.132,0,6.198-3.491,6.198-10.474c0-6.699-2.084-10.049-6.251-10.049
			c-4.169,0-6.254,3.297-6.254,9.888C41.031,65.707,43.133,69.251,47.338,69.251 M57.919,58.83c0,4.023-0.855,7.25-2.566,9.673
			c-1.887,2.707-4.684,4.062-8.388,4.062c-3.458,0-6.076-1.282-7.857-3.848c-1.639-2.352-2.458-5.56-2.458-9.619
			c0-3.992,0.836-7.197,2.511-9.619c1.889-2.708,4.667-4.062,8.339-4.062c3.49,0,6.146,1.301,7.961,3.901
			C57.1,51.634,57.919,54.805,57.919,58.83"/>
	</g>
	<g>
		<path fill="#00733B" d="M71.601,69.251c4.132,0,6.198-3.491,6.198-10.474c0-6.699-2.084-10.049-6.253-10.049
			c-4.167,0-6.252,3.297-6.252,9.888C65.294,65.707,67.396,69.251,71.601,69.251 M82.182,58.83c0,4.023-0.854,7.25-2.566,9.673
			c-1.888,2.707-4.684,4.062-8.389,4.062c-3.458,0-6.076-1.282-7.857-3.848c-1.639-2.352-2.458-5.56-2.458-9.619
			c0-3.992,0.836-7.197,2.511-9.619c1.889-2.708,4.667-4.062,8.339-4.062c3.491,0,6.146,1.301,7.961,3.901
			C81.362,51.634,82.182,54.805,82.182,58.83"/>
	</g>
	<g>
		<path fill="#00733B" d="M88.916,53.54v17.634c0,0.43-0.213,0.643-0.642,0.643h-2.778c-0.429,0-0.642-0.213-0.642-0.643V52.845
			c0-1.639-0.304-2.993-0.908-4.061c-0.393-0.677-0.587-1.122-0.587-1.337c0.034-0.247,0.159-0.427,0.374-0.535l1.977-1.229
			c0.25-0.177,0.427-0.267,0.535-0.267c0.427,0,0.873,0.606,1.334,1.816c0.321,0.891,0.571,1.783,0.75,2.671
			c0.854-0.925,1.708-1.869,2.564-2.832c1.249-1.103,2.53-1.656,3.848-1.656c0.643,0,1.238,0.089,1.79,0.267
			c0.554,0.179,0.829,0.393,0.829,0.641c0,0.036-0.053,0.18-0.161,0.429l-1.176,2.725c-0.105,0.25-0.213,0.374-0.319,0.374
			c-0.036,0-0.242-0.079-0.616-0.24c-0.374-0.161-0.757-0.242-1.15-0.242c-0.783,0-1.691,0.518-2.724,1.55
			C90.429,51.812,89.663,52.684,88.916,53.54"/>
	</g>
	<g>
		<path fill="#00733B" d="M109.276,68.876l0.695,1.978c0.071,0.145,0.107,0.269,0.107,0.375c0,0.287-0.508,0.578-1.524,0.881
			c-1.015,0.303-2.021,0.455-3.019,0.455c-2.637,0-4.312-0.855-5.024-2.565c-0.498-1.175-0.748-3.758-0.748-7.749V34.515
			c0-0.357,0.124-0.571,0.374-0.642l2.671-0.64c0.108-0.035,0.321-0.072,0.642-0.108c0.25,0,0.374,0.233,0.374,0.695v28.538
			c0,2.742,0.053,4.418,0.161,5.023c0.213,1.246,0.925,1.869,2.137,1.869c0.534,0,1.122-0.113,1.764-0.348
			c0.641-0.229,0.98-0.348,1.015-0.348C109.079,68.557,109.205,68.664,109.276,68.876"/>
	</g>
	<g>
		<path fill="#00733B" d="M125.789,65.938v-6.894c-6.663,0.144-9.993,2.029-9.993,5.664c0,1.212,0.301,2.229,0.908,3.045
			c0.711,1,1.71,1.498,2.993,1.498C121.227,69.251,123.259,68.146,125.789,65.938 M129.851,52.897v10.474
			c0,2.245,0.213,4.027,0.642,5.346c0.07,0.213,0.247,0.569,0.534,1.068c0.283,0.498,0.427,0.801,0.427,0.908
			c0,0.106-0.16,0.248-0.48,0.429l-2.083,1.28c-0.215,0.106-0.356,0.162-0.429,0.162c-0.499,0-1.176-1.192-2.03-3.582
			c-2.601,2.39-5.167,3.582-7.696,3.582c-2.137,0-3.831-0.668-5.077-2.006c-1.248-1.334-1.871-3.181-1.871-5.529
			c0-5.914,4.668-9.016,14.002-9.299v-1.938c0-1.653-0.34-2.874-1.015-3.664c-0.678-0.789-1.924-1.184-3.74-1.184
			c-1.461,0-2.94,0.293-4.436,0.88c-1.497,0.588-2.192,0.882-2.084,0.882c-0.179,0-0.303-0.087-0.374-0.267l-0.694-1.872
			c-0.108-0.283-0.161-0.515-0.161-0.694c0-0.463,0.97-0.988,2.911-1.577c1.943-0.586,3.75-0.881,5.425-0.881
			C127.107,45.416,129.851,47.911,129.851,52.897"/>
	</g>
	<g>
		<path fill="#00733B" d="M153.845,53.432v17.743c0,0.427-0.213,0.642-0.641,0.642h-2.778c-0.429,0-0.642-0.215-0.642-0.644V53.281
			c0-2.892-1.159-4.339-3.474-4.339c-2.246,0-4.596,1.09-7.055,3.269v18.962c0,0.429-0.212,0.644-0.641,0.644h-2.778
			c-0.429,0-0.642-0.215-0.642-0.642V52.738c0-1.567-0.081-2.636-0.24-3.206c-0.16-0.57-0.34-1.069-0.534-1.497
			c-0.197-0.427-0.296-0.659-0.296-0.695c0-0.105,0.089-0.23,0.269-0.374l2.404-1.334c0.249-0.144,0.391-0.215,0.428-0.215
			c0.391,0,0.782,0.553,1.175,1.658c0.25,0.748,0.41,1.407,0.48,1.977c3.064-2.422,5.933-3.634,8.605-3.634
			c2.637,0,4.435,0.856,5.398,2.566C153.524,49.122,153.845,50.938,153.845,53.432"/>
	</g>
	<g>
		<path fill="#00733B" d="M172.978,65.866v-15.15c-2.208-1.182-4.241-1.773-6.093-1.773c-2.066,0-3.472,1.094-4.222,3.278
			c-0.535,1.504-0.801,3.905-0.801,7.2c0,2.937,0.25,5.104,0.748,6.498c0.713,2.079,2.033,3.118,3.955,3.118
			c1.141,0,2.406-0.43,3.795-1.29C171.213,67.141,172.087,66.512,172.978,65.866 M177.039,33.82v29.552
			c0,2.672,0.195,4.454,0.587,5.344c0.071,0.144,0.269,0.519,0.59,1.124c0.249,0.462,0.374,0.747,0.374,0.854s-0.16,0.25-0.48,0.429
			l-2.086,1.282c-0.213,0.107-0.356,0.16-0.426,0.16c-0.322,0-0.715-0.426-1.178-1.282c-0.355-0.675-0.605-1.302-0.747-1.871
			c-1.425,0.999-2.405,1.64-2.94,1.925c-1.603,0.818-3.242,1.229-4.917,1.229c-2.708,0-4.809-1.354-6.306-4.062
			c-1.354-2.386-2.03-5.379-2.03-8.978c0-4.132,0.713-7.444,2.137-9.939c1.567-2.78,3.829-4.169,6.786-4.169
			c2.461,0,4.65,0.606,6.575,1.816V34.514c0-0.356,0.125-0.57,0.374-0.641l2.619-0.64c0.107-0.036,0.32-0.073,0.641-0.108
			C176.896,33.125,177.039,33.356,177.039,33.82"/>
	</g>
	<g>
		<path fill="#00733B" d="M197.561,49.478v21.696c0,0.43-0.213,0.643-0.643,0.643h-2.777c-0.429,0-0.642-0.213-0.642-0.643V49.478
			h-3.74c-0.25,0-0.374-0.212-0.374-0.641v-2.031c0-0.429,0.124-0.642,0.374-0.642h3.74v-4.169c0-5.913,2.476-8.87,7.428-8.87
			c1.246,0,2.538,0.213,3.874,0.643c1.338,0.427,2.004,0.836,2.004,1.229c0-0.142-0.089,0.105-0.266,0.748l-0.748,1.763
			c-0.145,0.213-0.27,0.321-0.374,0.321c-0.181,0-0.785-0.197-1.817-0.589c-1.033-0.391-1.978-0.587-2.832-0.587
			c-1.354,0-2.263,0.503-2.727,1.505c-0.32,0.715-0.48,2.007-0.48,3.868v4.139h7.695c0.393,0,0.588,0.127,0.588,0.374V46.7
			c-0.035,0.072-0.053,0.144-0.053,0.213l-0.693,2.085c-0.108,0.32-0.342,0.48-0.695,0.48H197.561z"/>
	</g>
	<g>
		<path fill="#00733B" d="M222.997,66.307V46.809c0-0.356,0.126-0.572,0.374-0.643l2.672-0.642c0.107-0.035,0.32-0.072,0.643-0.108
			c0.25,0,0.373,0.232,0.373,0.695v19.024c0,1.533,0.196,2.709,0.588,3.527c0.679,1.39,1.017,2.066,1.017,2.031
			c0,0.105-0.16,0.248-0.481,0.428l-2.084,1.281c-0.214,0.107-0.355,0.16-0.428,0.16c-0.32,0-0.65-0.354-0.988-1.068
			c-0.338-0.712-0.666-1.407-0.988-2.083c-2.564,2.103-5.041,3.151-7.428,3.151c-3.244,0-5.453-0.854-6.627-2.563
			c-0.783-1.142-1.177-2.957-1.177-5.451V46.806c0-0.355,0.125-0.569,0.376-0.64l2.671-0.642c0.106-0.035,0.319-0.072,0.642-0.108
			c0.248,0,0.373,0.232,0.373,0.697v18.585c0,2.892,1.463,4.34,4.383,4.34c0.783,0,1.889-0.34,3.313-1.021
			C221.5,67.412,222.428,66.842,222.997,66.307"/>
	</g>
	<g>
		<path fill="#00733B" d="M235.45,56.532h11.544c0-1.923-0.34-3.58-1.018-4.971c-0.961-1.887-2.477-2.833-4.543-2.833
			c-2.173,0-3.775,0.963-4.809,2.887C235.841,53.042,235.45,54.68,235.45,56.532 M249.719,67.113l0.908,2.244
			c0.107,0.25,0.16,0.393,0.16,0.427c0,0.356-0.908,0.893-2.725,1.604c-2.033,0.783-3.939,1.176-5.72,1.176
			c-3.526,0-6.288-1.236-8.284-3.715c-1.994-2.475-2.992-5.762-2.992-9.858c0-3.99,0.951-7.25,2.858-9.78
			c1.907-2.528,4.479-3.794,7.724-3.794c6.483,0,9.726,4.418,9.726,13.253c0,0.783-0.192,1.176-0.587,1.176H235.45
			c0,2.256,0.462,4.193,1.389,5.805c1.283,2.259,3.278,3.389,5.986,3.389c1.424,0,2.911-0.374,4.462-1.124
			c1.55-0.748,2.252-1.122,2.109-1.122C249.469,66.792,249.574,66.898,249.719,67.113"/>
	</g>
	<g>
		<path fill="#00733B" d="M264.629,68.876l0.695,1.978c0.068,0.145,0.107,0.269,0.107,0.375c0,0.287-0.51,0.578-1.523,0.881
			c-1.018,0.303-2.022,0.455-3.02,0.455c-2.64,0-4.312-0.855-5.024-2.565c-0.499-1.175-0.748-3.758-0.748-7.749V34.515
			c0-0.357,0.124-0.571,0.374-0.642l2.672-0.64c0.105-0.035,0.32-0.072,0.642-0.108c0.249,0,0.374,0.233,0.374,0.695v28.538
			c0,2.742,0.053,4.418,0.16,5.023c0.213,1.246,0.925,1.869,2.137,1.869c0.535,0,1.123-0.113,1.765-0.348
			c0.643-0.229,0.98-0.348,1.017-0.348C264.434,68.557,264.557,68.664,264.629,68.876"/>
	</g>
	<g>
		<path fill="#00733B" d="M283.119,48.249l-0.695,1.442c-0.214,0.428-0.427,0.642-0.643,0.642c0.072,0-0.524-0.232-1.789-0.694
			c-1.266-0.463-2.469-0.695-3.606-0.695c-2.639,0-3.956,1.173-3.956,3.52c0,1.6,1.033,2.932,3.102,3.999
			c1.889,0.96,3.775,1.92,5.665,2.879c2.064,1.422,3.101,3.307,3.101,5.651c0,2.383-0.855,4.265-2.566,5.653
			c-1.568,1.277-3.562,1.918-5.984,1.918c-1.354,0-3.046-0.303-5.078-0.908c-2.029-0.604-3.045-1.157-3.045-1.656
			c0-0.107,0.07-0.32,0.213-0.643l0.748-1.657c0.143-0.318,0.302-0.479,0.48-0.479c-0.104,0,0.649,0.303,2.271,0.907
			c1.619,0.606,3.16,0.909,4.622,0.909c1.21,0,2.228-0.338,3.046-1.014c0.819-0.676,1.23-1.617,1.23-2.825
			c0-1.494-1.034-2.791-3.102-3.896c-1.89-0.957-3.775-1.935-5.664-2.932c-2.066-1.42-3.101-3.27-3.101-5.545
			c0-2.168,0.758-3.944,2.271-5.33c1.516-1.388,3.448-2.082,5.799-2.082c2.174,0,4.275,0.535,6.308,1.604
			c0.391,0.214,0.587,0.446,0.587,0.695C283.332,47.501,283.261,47.678,283.119,48.249"/>
	</g>
	<g>
		<path fill="#FFFFFF" d="M6.106,91.076v8.134c1.145,0.613,2.189,0.92,3.131,0.92c1.07,0,1.802-0.567,2.188-1.7
			c0.277-0.777,0.415-2.023,0.415-3.734c0-1.521-0.128-2.645-0.387-3.368c-0.37-1.078-1.054-1.617-2.05-1.617
			C8.331,89.709,7.232,90.164,6.106,91.076 M4,107.027V92.646c0-1.182-0.111-2.105-0.332-2.771c-0.039-0.112-0.13-0.295-0.278-0.554
			c-0.147-0.26-0.22-0.416-0.22-0.471c0-0.076,0.082-0.148,0.249-0.224l1.08-0.664c0.111-0.057,0.185-0.083,0.223-0.083
			c0.166,0,0.368,0.211,0.608,0.637c0.185,0.369,0.315,0.701,0.389,0.998c0.738-0.518,1.247-0.849,1.524-0.998
			c0.83-0.426,1.68-0.637,2.548-0.637c1.405,0,2.495,0.692,3.27,2.078c0.703,1.256,1.054,2.814,1.054,4.684
			c0,2.144-0.37,3.86-1.108,5.154c-0.813,1.439-1.986,2.159-3.52,2.159c-1.257,0-2.382-0.313-3.38-0.94v5.651
			c0,0.187-0.065,0.295-0.194,0.333l-1.386,0.332c-0.055,0.02-0.167,0.038-0.332,0.057C4.064,107.391,4,107.27,4,107.027"/>
	</g>
	<g>
		<path fill="#FFFFFF" d="M22.816,98.521v-3.574c-3.456,0.074-5.183,1.054-5.183,2.937c0,0.63,0.157,1.156,0.472,1.581
			c0.368,0.518,0.886,0.775,1.552,0.775C20.45,100.24,21.503,99.668,22.816,98.521 M24.921,91.762v5.43
			c0,1.166,0.112,2.088,0.332,2.771c0.038,0.11,0.13,0.297,0.278,0.555c0.147,0.26,0.22,0.416,0.22,0.471
			c0,0.058-0.082,0.131-0.249,0.224l-1.08,0.664c-0.112,0.056-0.186,0.083-0.222,0.083c-0.26,0-0.61-0.619-1.053-1.857
			c-1.348,1.238-2.679,1.857-3.99,1.857c-1.11,0-1.986-0.348-2.634-1.039c-0.646-0.691-0.969-1.648-0.969-2.869
			c0-3.064,2.419-4.673,7.261-4.82v-1.006c0-0.854-0.176-1.49-0.528-1.899c-0.35-0.409-0.997-0.614-1.938-0.614
			c-0.759,0-1.525,0.154-2.302,0.457c-0.774,0.307-1.135,0.458-1.08,0.458c-0.093,0-0.157-0.045-0.195-0.14l-0.358-0.969
			c-0.057-0.147-0.085-0.27-0.085-0.36c0-0.24,0.504-0.513,1.511-0.816c1.008-0.306,1.944-0.458,2.813-0.458
			C23.5,87.881,24.921,89.176,24.921,91.762"/>
	</g>
	<g>
		<path fill="#FFFFFF" d="M29.881,92.094v9.145c0,0.222-0.111,0.332-0.332,0.332h-1.44c-0.223,0-0.335-0.11-0.335-0.332v-9.504
			c0-0.852-0.157-1.553-0.47-2.105C27.101,89.275,27,89.045,27,88.936c0.018-0.131,0.083-0.224,0.193-0.276l1.025-0.64
			c0.131-0.09,0.223-0.139,0.278-0.139c0.222,0,0.453,0.312,0.693,0.942c0.166,0.463,0.294,0.923,0.387,1.386
			c0.444-0.479,0.887-0.971,1.332-1.469c0.646-0.572,1.31-0.859,1.996-0.859c0.332,0,0.64,0.049,0.927,0.139
			c0.287,0.092,0.431,0.203,0.431,0.332c0,0.02-0.029,0.094-0.083,0.223l-0.61,1.412c-0.055,0.131-0.112,0.195-0.167,0.195
			c-0.019,0-0.124-0.043-0.319-0.125c-0.194-0.084-0.393-0.125-0.596-0.125c-0.407,0-0.876,0.27-1.413,0.805
			C30.667,91.195,30.269,91.648,29.881,92.094"/>
	</g>
	<g>
		<path fill="#FFFFFF" d="M44.623,99.52l0.306,1.025c0.036,0.131,0.055,0.221,0.055,0.277c0,0.186-0.415,0.419-1.248,0.705
			c-0.83,0.287-1.606,0.43-2.326,0.43c-1.165,0-2.025-0.312-2.577-0.941c-0.555-0.627-0.831-1.681-0.831-3.16v-7.869h-2.079
			c-0.131,0-0.195-0.11-0.195-0.332v-1.053c0-0.222,0.064-0.332,0.195-0.332h2.079v-3.795c0-0.168,0.1-0.279,0.305-0.334
			l1.468-0.414c0.037,0,0.074-0.013,0.112-0.028h0.082c0.091,0,0.138,0.102,0.138,0.304v4.268h4.101
			c0.204,0,0.305,0.066,0.305,0.194v0.083c-0.018,0.037-0.026,0.073-0.026,0.111l-0.361,1.078c-0.054,0.168-0.175,0.25-0.36,0.25
			h-3.658v7.892c0,0.741,0.075,1.252,0.221,1.53c0.222,0.48,0.702,0.722,1.44,0.722c0.518,0,1.405-0.258,2.661-0.774
			C44.559,99.354,44.623,99.409,44.623,99.52"/>
	</g>
	<g>
		<path fill="#FFFFFF" d="M57.291,100.24c2.144,0,3.215-1.811,3.215-5.432c0-3.473-1.082-5.211-3.244-5.211
			c-2.16,0-3.241,1.709-3.241,5.127C54.021,98.4,55.112,100.24,57.291,100.24 M62.778,94.837c0,2.088-0.443,3.759-1.331,5.017
			c-0.978,1.402-2.429,2.105-4.35,2.105c-1.793,0-3.151-0.666-4.073-1.996c-0.85-1.22-1.274-2.882-1.274-4.988
			c0-2.066,0.434-3.73,1.302-4.986c0.979-1.404,2.419-2.106,4.323-2.106c1.81,0,3.187,0.675,4.128,2.024
			C62.353,91.105,62.778,92.75,62.778,94.837"/>
	</g>
	<g>
		<path fill="#FFFFFF" d="M68.016,89.986v11.252c0,0.221-0.111,0.332-0.333,0.332h-1.44c-0.223,0-0.333-0.111-0.333-0.332V89.986
			h-1.94c-0.128,0-0.195-0.11-0.195-0.332V88.6c0-0.221,0.067-0.332,0.195-0.332h1.94v-2.16c0-3.067,1.285-4.602,3.852-4.602
			c0.646,0,1.317,0.111,2.009,0.333c0.691,0.222,1.039,0.435,1.039,0.638c0-0.074-0.047,0.058-0.138,0.39l-0.389,0.913
			c-0.073,0.111-0.138,0.166-0.194,0.166c-0.092,0-0.406-0.102-0.942-0.305c-0.535-0.203-1.025-0.305-1.467-0.305
			c-0.703,0-1.175,0.26-1.415,0.78c-0.167,0.37-0.249,1.038-0.249,2.007v2.145h3.99c0.204,0,0.306,0.066,0.306,0.194v0.083
			c-0.019,0.037-0.029,0.073-0.029,0.112l-0.36,1.079c-0.055,0.166-0.176,0.248-0.359,0.248h-3.548V89.986z"/>
	</g>
	<g>
		<path fill="#FFFFFF" d="M90.765,89.268l-3.159,10.586c-0.406,1.383-0.674,2.271-0.805,2.658c-0.387,1.146-0.757,2.098-1.108,2.854
			c-0.645,1.349-1.737,2.022-3.27,2.022c-0.738,0-1.504-0.177-2.3-0.525c-0.793-0.352-1.191-0.639-1.191-0.86
			c0-0.035,0.019-0.093,0.057-0.166l0.553-1.108c0.037-0.093,0.102-0.138,0.194-0.138c0.019,0,0.333,0.181,0.943,0.539
			c0.61,0.361,1.182,0.541,1.718,0.541c0.887,0,1.588-0.785,2.105-2.354l0.582-1.746h-0.997c-0.185,0-0.305-0.084-0.361-0.248
			l-4.295-12.055c-0.036-0.222-0.055-0.353-0.055-0.389c0-0.092,0.073-0.166,0.221-0.222l1.165-0.472
			c0.185-0.072,0.313-0.11,0.387-0.11c0.149,0,0.249,0.073,0.305,0.221l3.491,10.476c0.185,0.554,0.37,1.221,0.555,1.996h0.055
			c0.111-0.647,0.25-1.293,0.416-1.94l2.771-10.53c0.036-0.146,0.138-0.221,0.305-0.221c0.073,0,0.205,0.037,0.389,0.109
			l1.163,0.473c0.148,0.056,0.221,0.13,0.221,0.222C90.82,88.953,90.801,89.081,90.765,89.268"/>
	</g>
	<g>
		<path fill="#FFFFFF" d="M97.608,100.24c2.144,0,3.216-1.811,3.216-5.432c0-3.473-1.082-5.211-3.245-5.211
			c-2.16,0-3.242,1.709-3.242,5.127C94.338,98.4,95.43,100.24,97.608,100.24 M103.096,94.837c0,2.088-0.443,3.759-1.332,5.017
			c-0.978,1.402-2.428,2.105-4.35,2.105c-1.792,0-3.149-0.666-4.073-1.996c-0.85-1.22-1.274-2.882-1.274-4.988
			c0-2.066,0.435-3.73,1.303-4.986c0.978-1.404,2.418-2.106,4.322-2.106c1.811,0,3.188,0.675,4.129,2.024
			C102.671,91.105,103.096,92.75,103.096,94.837"/>
	</g>
	<g>
		<path fill="#FFFFFF" d="M112.961,98.713V88.604c0-0.185,0.064-0.295,0.195-0.332l1.384-0.336c0.056-0.017,0.167-0.035,0.334-0.055
			c0.128,0,0.193,0.121,0.193,0.36v9.866c0,0.793,0.102,1.401,0.306,1.826c0.352,0.723,0.527,1.073,0.527,1.055
			c0,0.055-0.083,0.131-0.252,0.221l-1.08,0.665c-0.111,0.058-0.184,0.085-0.221,0.085c-0.167,0-0.337-0.186-0.514-0.555
			c-0.175-0.37-0.345-0.729-0.511-1.082c-1.332,1.091-2.616,1.637-3.853,1.637c-1.682,0-2.827-0.443-3.437-1.331
			c-0.405-0.592-0.61-1.532-0.61-2.827v-9.199c0-0.185,0.064-0.295,0.195-0.33l1.385-0.336c0.056-0.017,0.167-0.035,0.333-0.055
			c0.128,0,0.193,0.121,0.193,0.36v9.638c0,1.5,0.757,2.25,2.273,2.25c0.405,0,0.978-0.175,1.718-0.527
			C112.185,99.287,112.665,98.99,112.961,98.713"/>
	</g>
	<g>
		<path fill="#FFFFFF" d="M120.609,92.094v9.145c0,0.222-0.112,0.332-0.333,0.332h-1.44c-0.223,0-0.335-0.11-0.335-0.332v-9.504
			c0-0.852-0.156-1.553-0.47-2.105c-0.204-0.352-0.304-0.583-0.304-0.693c0.017-0.129,0.083-0.223,0.193-0.275l1.025-0.639
			c0.13-0.092,0.222-0.14,0.277-0.14c0.223,0,0.453,0.313,0.693,0.942c0.167,0.463,0.295,0.923,0.388,1.386
			c0.444-0.479,0.887-0.972,1.331-1.469c0.646-0.572,1.31-0.859,1.996-0.859c0.333,0,0.64,0.048,0.928,0.14
			c0.286,0.092,0.43,0.203,0.43,0.332c0,0.019-0.028,0.094-0.083,0.222l-0.61,1.413c-0.056,0.13-0.11,0.195-0.166,0.195
			c-0.02,0-0.125-0.043-0.319-0.127c-0.195-0.082-0.393-0.123-0.597-0.123c-0.405,0-0.875,0.269-1.412,0.803
			C121.395,91.195,120.996,91.648,120.609,92.094"/>
	</g>
	<g>
		<path fill="#FFFFFF" d="M137.872,100.046l0.361,1.024c0.035,0.076,0.054,0.141,0.054,0.195c0,0.146-0.261,0.299-0.789,0.457
			c-0.527,0.155-1.048,0.234-1.564,0.234c-1.368,0-2.236-0.443-2.606-1.33c-0.258-0.609-0.387-1.949-0.387-4.018V82.229
			c0-0.186,0.063-0.295,0.193-0.334l1.385-0.332c0.057-0.017,0.167-0.035,0.333-0.055c0.13,0,0.194,0.12,0.194,0.36v14.798
			c0,1.422,0.028,2.29,0.083,2.604c0.111,0.647,0.479,0.972,1.108,0.972c0.277,0,0.582-0.062,0.914-0.181
			c0.335-0.119,0.508-0.181,0.528-0.181C137.77,99.88,137.834,99.936,137.872,100.046"/>
	</g>
	<g>
		<path fill="#FFFFFF" d="M146.601,98.521v-3.574c-3.455,0.074-5.183,1.054-5.183,2.937c0,0.63,0.157,1.156,0.473,1.581
			c0.368,0.518,0.885,0.775,1.552,0.775C144.235,100.24,145.289,99.668,146.601,98.521 M148.707,91.762v5.43
			c0,1.166,0.111,2.088,0.332,2.771c0.038,0.11,0.128,0.297,0.277,0.555c0.148,0.26,0.221,0.416,0.221,0.471
			c0,0.058-0.083,0.131-0.249,0.224l-1.081,0.664c-0.112,0.056-0.185,0.083-0.223,0.083c-0.259,0-0.608-0.619-1.052-1.857
			c-1.347,1.238-2.679,1.857-3.991,1.857c-1.108,0-1.984-0.348-2.633-1.039c-0.645-0.691-0.968-1.648-0.968-2.869
			c0-3.064,2.418-4.673,7.259-4.82v-1.006c0-0.854-0.175-1.49-0.527-1.899c-0.351-0.409-0.999-0.614-1.939-0.614
			c-0.759,0-1.525,0.154-2.301,0.457c-0.776,0.307-1.136,0.458-1.081,0.458c-0.092,0-0.157-0.045-0.194-0.14l-0.36-0.969
			c-0.055-0.147-0.084-0.27-0.084-0.36c0-0.24,0.505-0.513,1.51-0.816c1.008-0.306,1.946-0.458,2.814-0.458
			C147.285,87.881,148.707,89.176,148.707,91.762"/>
	</g>
	<g>
		<path fill="#FFFFFF" d="M161.869,92.037v9.199c0,0.224-0.111,0.334-0.332,0.334h-1.441c-0.223,0-0.332-0.11-0.332-0.334V91.96
			c0-1.501-0.6-2.251-1.802-2.251c-1.165,0-2.385,0.566-3.657,1.695v9.832c0,0.224-0.111,0.334-0.334,0.334h-1.44
			c-0.221,0-0.333-0.11-0.333-0.334v-9.561c0-0.812-0.041-1.365-0.124-1.66s-0.176-0.556-0.278-0.777
			c-0.102-0.221-0.15-0.342-0.15-0.359c0-0.057,0.045-0.121,0.138-0.193l1.247-0.692c0.13-0.074,0.204-0.109,0.222-0.109
			c0.203,0,0.406,0.286,0.61,0.858c0.129,0.387,0.211,0.729,0.25,1.021c1.588-1.255,3.075-1.881,4.462-1.881
			c1.365,0,2.3,0.441,2.798,1.328C161.703,89.803,161.869,90.744,161.869,92.037"/>
	</g>
	<g>
		<path fill="#FFFFFF" d="M172.51,98.486V90.63c-1.146-0.614-2.198-0.921-3.158-0.921c-1.073,0-1.802,0.566-2.191,1.7
			c-0.277,0.78-0.415,2.024-0.415,3.731c0,1.524,0.129,2.647,0.39,3.373c0.368,1.076,1.052,1.613,2.05,1.613
			c0.591,0,1.246-0.223,1.968-0.667C171.594,99.146,172.048,98.82,172.51,98.486 M174.615,81.868v15.323
			c0,1.385,0.103,2.311,0.306,2.771c0.036,0.073,0.14,0.269,0.306,0.581c0.127,0.242,0.193,0.389,0.193,0.443
			c0,0.058-0.084,0.131-0.251,0.224l-1.081,0.664c-0.109,0.056-0.184,0.083-0.22,0.083c-0.167,0-0.37-0.223-0.61-0.665
			c-0.186-0.351-0.313-0.673-0.388-0.97c-0.74,0.518-1.247,0.85-1.523,0.996c-0.832,0.426-1.682,0.639-2.55,0.639
			c-1.403,0-2.495-0.702-3.269-2.104c-0.702-1.24-1.054-2.791-1.054-4.656c0-2.145,0.368-3.861,1.108-5.155
			c0.812-1.44,1.986-2.161,3.52-2.161c1.275,0,2.412,0.314,3.408,0.941v-6.596c0-0.184,0.064-0.295,0.195-0.332l1.357-0.332
			c0.056-0.018,0.166-0.037,0.332-0.056C174.541,81.508,174.615,81.628,174.615,81.868"/>
	</g>
	<g>
		<path fill="#FFFFFF" d="M185.367,89.35l-0.36,0.748c-0.11,0.223-0.221,0.332-0.332,0.332c0.038,0-0.272-0.119-0.93-0.359
			c-0.654-0.237-1.278-0.361-1.869-0.361c-1.369,0-2.051,0.609-2.051,1.826c0,0.828,0.534,1.521,1.606,2.074
			c0.979,0.498,1.959,0.994,2.937,1.492c1.073,0.736,1.608,1.715,1.608,2.931c0,1.235-0.443,2.214-1.33,2.932
			c-0.812,0.661-1.848,0.994-3.104,0.994c-0.701,0-1.58-0.156-2.633-0.47c-1.052-0.313-1.578-0.603-1.578-0.859
			c0-0.055,0.035-0.167,0.11-0.332l0.388-0.857c0.073-0.168,0.155-0.25,0.248-0.25c-0.054,0,0.339,0.156,1.18,0.47
			c0.841,0.315,1.64,0.472,2.396,0.472c0.629,0,1.156-0.175,1.58-0.525c0.426-0.351,0.638-0.836,0.638-1.467
			c0-0.772-0.536-1.445-1.606-2.016c-0.979-0.498-1.959-1.007-2.937-1.521c-1.072-0.736-1.608-1.695-1.608-2.875
			c0-1.123,0.393-2.047,1.18-2.766c0.785-0.72,1.787-1.077,3.004-1.077c1.127,0,2.218,0.276,3.271,0.83
			c0.204,0.111,0.307,0.231,0.307,0.361C185.479,88.963,185.441,89.055,185.367,89.35"/>
	</g>
	<g>
		<path fill="#FFFFFF" d="M196.562,99.132l0.471,1.163c0.057,0.131,0.082,0.203,0.082,0.223c0,0.185-0.471,0.461-1.412,0.832
			c-1.053,0.405-2.041,0.608-2.965,0.608c-1.646,0-2.924-0.597-3.838-1.787c-0.914-1.192-1.373-2.803-1.373-4.836
			c0-2.31,0.51-4.13,1.525-5.459c1.016-1.331,2.383-1.995,4.102-1.995c0.85,0,1.746,0.23,2.687,0.692
			c0.869,0.425,1.304,0.769,1.304,1.024c0-0.017-0.028,0.055-0.084,0.223l-0.637,1.164c-0.057,0.111-0.109,0.166-0.165,0.166
			c0.091,0-0.21-0.239-0.901-0.719c-0.691-0.481-1.371-0.723-2.037-0.723c-1.293,0-2.217,0.475-2.771,1.422
			c-0.498,0.814-0.748,2.078-0.748,3.788c0,3.474,1.063,5.208,3.187,5.208c0.738,0,1.513-0.193,2.313-0.581
			c0.806-0.389,1.169-0.582,1.097-0.582C196.432,98.965,196.488,99.021,196.562,99.132"/>
	</g>
	<g>
		<path fill="#FFFFFF" d="M205.816,98.521v-3.574c-3.453,0.074-5.183,1.054-5.183,2.937c0,0.63,0.158,1.156,0.472,1.581
			c0.369,0.518,0.888,0.775,1.553,0.775C203.451,100.24,204.505,99.668,205.816,98.521 M207.924,91.762v5.43
			c0,1.166,0.11,2.088,0.332,2.771c0.038,0.11,0.128,0.297,0.277,0.555c0.146,0.26,0.221,0.416,0.221,0.471
			c0,0.058-0.083,0.131-0.248,0.224l-1.081,0.664c-0.11,0.056-0.187,0.083-0.223,0.083c-0.259,0-0.607-0.619-1.052-1.857
			c-1.351,1.238-2.68,1.857-3.991,1.857c-1.108,0-1.984-0.348-2.634-1.039c-0.645-0.691-0.969-1.648-0.969-2.869
			c0-3.064,2.42-4.673,7.26-4.82v-1.006c0-0.854-0.174-1.49-0.525-1.899s-0.998-0.614-1.939-0.614c-0.759,0-1.524,0.154-2.301,0.457
			c-0.775,0.307-1.136,0.458-1.08,0.458c-0.093,0-0.156-0.045-0.193-0.14l-0.359-0.969c-0.057-0.147-0.083-0.27-0.083-0.36
			c0-0.24,0.503-0.513,1.509-0.816c1.008-0.306,1.945-0.458,2.813-0.458C206.501,87.881,207.924,89.176,207.924,91.762"/>
	</g>
	<g>
		<path fill="#FFFFFF" d="M213.021,91.076v8.134c1.146,0.613,2.189,0.92,3.133,0.92c1.07,0,1.801-0.567,2.188-1.7
			c0.277-0.777,0.415-2.023,0.415-3.734c0-1.521-0.128-2.645-0.388-3.368c-0.37-1.078-1.053-1.617-2.051-1.617
			C215.247,89.709,214.148,90.164,213.021,91.076 M210.916,107.027V92.646c0-1.182-0.111-2.105-0.332-2.771
			c-0.038-0.112-0.13-0.295-0.277-0.554c-0.146-0.26-0.223-0.416-0.223-0.471c0-0.076,0.084-0.148,0.25-0.224l1.081-0.664
			c0.112-0.057,0.185-0.083,0.224-0.083c0.166,0,0.367,0.211,0.606,0.637c0.187,0.369,0.313,0.701,0.389,0.998
			c0.739-0.518,1.247-0.849,1.524-0.998c0.831-0.426,1.681-0.637,2.55-0.637c1.403,0,2.493,0.692,3.271,2.078
			c0.701,1.256,1.054,2.814,1.054,4.684c0,2.144-0.37,3.86-1.11,5.154c-0.812,1.439-1.984,2.159-3.518,2.159
			c-1.258,0-2.383-0.313-3.383-0.94v5.651c0,0.187-0.063,0.295-0.193,0.333l-1.385,0.332c-0.058,0.02-0.166,0.038-0.332,0.057
			C210.98,107.391,210.916,107.27,210.916,107.027"/>
	</g>
	<g>
		<path fill="#FFFFFF" d="M225.16,93.646h5.984c0-0.998-0.176-1.856-0.526-2.578c-0.5-0.979-1.285-1.469-2.354-1.469
			c-1.129,0-1.959,0.498-2.494,1.496C225.363,91.834,225.16,92.684,225.16,93.646 M232.559,99.132l0.469,1.163
			c0.059,0.131,0.084,0.203,0.084,0.223c0,0.185-0.471,0.461-1.411,0.832c-1.054,0.405-2.041,0.608-2.966,0.608
			c-1.828,0-3.26-0.642-4.295-1.926c-1.035-1.283-1.553-2.989-1.553-5.112c0-2.068,0.494-3.76,1.482-5.07
			c0.988-1.312,2.324-1.969,4.005-1.969c3.362,0,5.044,2.292,5.044,6.872c0,0.405-0.104,0.61-0.307,0.61h-7.951
			c0,1.17,0.238,2.174,0.72,3.01c0.664,1.171,1.698,1.755,3.104,1.755c0.738,0,1.511-0.192,2.312-0.581
			c0.805-0.389,1.169-0.582,1.096-0.582C232.428,98.965,232.484,99.021,232.559,99.132"/>
	</g>
	<g>
		<path fill="#00733B" d="M313.65,37.539c-0.663,0.454-1.531,0.327-1.929-0.276L293.259,9.048c-0.396-0.604-0.491-1.257-0.208-1.449
			c0.278-0.192,0.855,0.13,1.278,0.717l19.755,27.334C314.507,36.238,314.313,37.087,313.65,37.539"/>
		<path fill="#00733B" d="M319.221,34.306c-0.353,0.72-1.17,1.039-1.811,0.71l-29.986-15.429c-0.642-0.33-1.047-0.852-0.896-1.158
			c0.147-0.305,0.811-0.311,1.466-0.01l30.671,14.026C319.324,32.75,319.574,33.584,319.221,34.306"/>
		<path fill="#00733B" d="M310.031,28.869c0.352-0.72,1.168-1.038,1.812-0.709l29.984,15.427c0.643,0.332,1.047,0.852,0.897,1.16
			c-0.151,0.303-0.811,0.309-1.469,0.008l-30.671-14.025C309.929,30.426,309.678,29.592,310.031,28.869"/>
		<path fill="#00733B" d="M305.707,36.26c-0.735-0.319-1.091-1.119-0.793-1.777l14.028-30.665c0.301-0.657,0.803-1.084,1.115-0.949
			c0.311,0.135,0.348,0.793,0.076,1.465l-12.595,31.284C307.268,36.291,306.446,36.579,305.707,36.26"/>
		<path fill="#00733B" d="M310.604,30.315c0.736,0.318,1.091,1.118,0.793,1.775L297.37,62.754c-0.301,0.659-0.804,1.085-1.116,0.952
			c-0.311-0.138-0.345-0.795-0.075-1.469l12.595-31.283C309.045,30.284,309.866,29.995,310.604,30.315"/>
		<path fill="#00733B" d="M303.45,39.836l-8.945-13.671c-0.394-0.607-0.954-0.955-1.244-0.776c-0.288,0.179-0.224,0.835,0.143,1.46
			l8.047,13.636L303.45,39.836z"/>
		<path fill="#00733B" d="M319.189,33.748l16.008-3.258c0.708-0.144,1.24-0.537,1.182-0.869c-0.059-0.337-0.693-0.519-1.409-0.409
			l-15.646,2.437L319.189,33.748z"/>
		<path fill="#00733B" d="M302.557,34.271l-16.009,3.26c-0.71,0.143-1.242,0.536-1.182,0.869c0.059,0.335,0.692,0.52,1.408,0.409
			l15.646-2.438L302.557,34.271z"/>
		<path fill="#00733B" d="M312.338,41.209l8.585,13.899c0.382,0.614,0.933,0.978,1.228,0.808c0.294-0.17,0.245-0.829-0.105-1.461
			l-7.689-13.843L312.338,41.209z"/>
		<path fill="#00733B" d="M301.082,40.134l8.944,13.672c0.395,0.606,0.959,0.954,1.248,0.775c0.287-0.181,0.226-0.838-0.143-1.459
			l-8.047-13.637L301.082,40.134z"/>
		<g>
			<g>
				<defs>
					<path id="SVGID_1_" d="M308.452,20.074c-2.895,6.362-1.958,13.01,2.084,14.847c4.045,1.841,9.665-1.826,12.561-8.188
						c2.893-6.36,1.957-13.009-2.087-14.847c-0.706-0.321-1.464-0.474-2.24-0.474C315.084,11.411,310.838,14.826,308.452,20.074"/>
				</defs>
				<clipPath id="SVGID_2_">
					<use xlink:href="#SVGID_1_"  overflow="visible"/>
				</clipPath>
				
					<linearGradient id="SVGID_3_" gradientUnits="userSpaceOnUse" x1="-569.5566" y1="-295.6851" x2="-567.6741" y2="-295.6851" gradientTransform="matrix(4.418 4.7377 -4.7377 4.418 1428.6011 4026.0156)">
					<stop  offset="0" style="stop-color:#F9EC00"/>
					<stop  offset="0.3129" style="stop-color:#F9EC00"/>
					<stop  offset="0.5974" style="stop-color:#FBD610"/>
					<stop  offset="1" style="stop-color:#FDBB24"/>
				</linearGradient>
				<polygon clip-path="url(#SVGID_2_)" fill="url(#SVGID_3_)" points="316.486,1.222 338.634,24.971 315.062,46.952 
					292.914,23.203 				"/>
			</g>
		</g>
		<g>
			<g>
				<defs>
					<path id="SVGID_4_" d="M310.936,31.664c-5.771,2.071-9.381,6.724-8.065,10.392c1.314,3.667,7.059,4.963,12.827,2.891
						c5.771-2.068,9.38-6.719,8.065-10.389c-0.89-2.482-3.814-3.879-7.399-3.879C314.656,30.679,312.795,30.998,310.936,31.664"/>
				</defs>
				<clipPath id="SVGID_5_">
					<use xlink:href="#SVGID_4_"  overflow="visible"/>
				</clipPath>
				
					<linearGradient id="SVGID_6_" gradientUnits="userSpaceOnUse" x1="-573.4697" y1="-380.5244" x2="-571.5874" y2="-380.5244" gradientTransform="matrix(-0.6087 5.7911 -5.7911 -0.6087 -2239.0464 3124.7463)">
					<stop  offset="0" style="stop-color:#F9EC00"/>
					<stop  offset="0.3129" style="stop-color:#F9EC00"/>
					<stop  offset="0.5974" style="stop-color:#FBD610"/>
					<stop  offset="1" style="stop-color:#FDBB24"/>
				</linearGradient>
				<polygon clip-path="url(#SVGID_5_)" fill="url(#SVGID_6_)" points="326.776,30.858 324.821,49.462 299.856,46.838 
					301.811,28.234 				"/>
			</g>
		</g>
		<g>
			<g>
				<defs>
					<path id="SVGID_7_" d="M297.95,29.649c-1.229,6.812,1.282,12.969,5.615,13.75c4.33,0.783,8.84-4.105,10.068-10.919
						c1.234-6.813-1.281-12.97-5.613-13.751c-0.307-0.057-0.613-0.083-0.921-0.083C303.069,18.647,299.091,23.315,297.95,29.649"/>
				</defs>
				<clipPath id="SVGID_8_">
					<use xlink:href="#SVGID_7_"  overflow="visible"/>
				</clipPath>
				
					<linearGradient id="SVGID_9_" gradientUnits="userSpaceOnUse" x1="-629.0811" y1="-258.0811" x2="-627.1984" y2="-258.0811" gradientTransform="matrix(8.6641 0 0 8.6641 5748.0542 2267.4619)">
					<stop  offset="0" style="stop-color:#F9EC00"/>
					<stop  offset="0.3129" style="stop-color:#F9EC00"/>
					<stop  offset="0.5974" style="stop-color:#FBD610"/>
					<stop  offset="1" style="stop-color:#FDBB24"/>
				</linearGradient>
				<rect x="296.721" y="18.647" clip-path="url(#SVGID_8_)" fill="url(#SVGID_9_)" width="18.147" height="25.535"/>
			</g>
		</g>
		<g>
			<g>
				<defs>
					<path id="SVGID_10_" d="M297.95,29.649c-1.229,6.812,1.282,12.969,5.615,13.75c4.33,0.783,8.84-4.105,10.068-10.919
						c1.234-6.813-1.281-12.97-5.613-13.751c-0.307-0.057-0.613-0.083-0.921-0.083C303.069,18.648,299.094,23.315,297.95,29.649"/>
				</defs>
				<clipPath id="SVGID_11_">
					<use xlink:href="#SVGID_10_"  overflow="visible"/>
				</clipPath>
				
					<linearGradient id="SVGID_12_" gradientUnits="userSpaceOnUse" x1="-578.8843" y1="-265.2627" x2="-577.0016" y2="-265.2627" gradientTransform="matrix(5.4636 3.0285 -3.0285 5.4636 2662.2927 3232.2153)">
					<stop  offset="0" style="stop-color:#F9EC00"/>
					<stop  offset="0.3129" style="stop-color:#F9EC00"/>
					<stop  offset="0.5974" style="stop-color:#FBD610"/>
					<stop  offset="1" style="stop-color:#FDBB24"/>
				</linearGradient>
				<polygon clip-path="url(#SVGID_11_)" fill="url(#SVGID_12_)" points="300.984,10.952 325.695,24.649 310.603,51.878 
					285.891,38.181 				"/>
			</g>
		</g>
	</g>
</g>
</svg>
