<?xml version="1.0" encoding="utf-8"?>
<!-- Generator: Adobe Illustrator 16.0.0, SVG Export Plug-In . SVG Version: 6.00 Build 0)  -->
<!DOCTYPE svg PUBLIC "-//W3C//DTD SVG 1.1//EN" "http://www.w3.org/Graphics/SVG/1.1/DTD/svg11.dtd">
<svg version="1.1" id="Layer_1" xmlns="http://www.w3.org/2000/svg" xmlns:xlink="http://www.w3.org/1999/xlink" x="0px" y="0px"
	 width="345px" height="65px" viewBox="0 0 345 65" enable-background="new 0 0 345 65" xml:space="preserve">
<g>
	<g>
		<path fill="#00733B" d="M29.892,36.617c-0.641,0.44-1.482,0.317-1.866-0.268L10.146,9.028C9.764,8.443,9.671,7.81,9.945,7.625
			c0.27-0.186,0.829,0.126,1.239,0.694l19.129,26.469C30.723,35.357,30.535,36.18,29.892,36.617"/>
		<path fill="#00733B" d="M35.287,33.486c-0.341,0.698-1.132,1.006-1.754,0.688L4.496,19.233c-0.621-0.32-1.013-0.825-0.868-1.121
			c0.143-0.295,0.785-0.301,1.42-0.01l29.7,13.582C35.387,31.979,35.629,32.787,35.287,33.486"/>
		<path fill="#00733B" d="M26.389,28.221c0.339-0.697,1.13-1.005,1.753-0.687l29.036,14.939c0.622,0.321,1.013,0.825,0.869,1.122
			c-0.146,0.294-0.785,0.3-1.422,0.009l-29.7-13.582C26.289,29.729,26.046,28.922,26.389,28.221"/>
		<path fill="#00733B" d="M22.201,35.379c-0.712-0.309-1.057-1.084-0.767-1.721L35.017,3.964c0.291-0.637,0.778-1.05,1.081-0.919
			c0.301,0.131,0.335,0.768,0.073,1.419L23.975,34.758C23.712,35.408,22.917,35.687,22.201,35.379"/>
		<path fill="#00733B" d="M26.944,29.622c0.712,0.308,1.056,1.083,0.767,1.719L14.128,61.034c-0.291,0.638-0.778,1.051-1.081,0.921
			c-0.301-0.132-0.334-0.77-0.073-1.421L25.17,30.241C25.433,29.592,26.229,29.312,26.944,29.622"/>
		<path fill="#00733B" d="M20.015,38.842l-8.661-13.239c-0.382-0.588-0.925-0.925-1.206-0.751c-0.278,0.173-0.217,0.808,0.139,1.414
			l7.792,13.204L20.015,38.842z"/>
		<path fill="#00733B" d="M35.257,32.946l15.501-3.155c0.685-0.139,1.201-0.52,1.144-0.842c-0.057-0.326-0.671-0.502-1.365-0.396
			l-15.15,2.36L35.257,32.946z"/>
		<path fill="#00733B" d="M19.151,33.453L3.648,36.609c-0.687,0.139-1.202,0.52-1.144,0.842c0.056,0.324,0.671,0.503,1.363,0.396
			l15.15-2.361L19.151,33.453z"/>
		<path fill="#00733B" d="M28.622,40.171l8.314,13.459c0.368,0.595,0.902,0.947,1.188,0.782c0.284-0.164,0.238-0.803-0.103-1.415
			l-7.446-13.404L28.622,40.171z"/>
		<path fill="#00733B" d="M17.723,39.13l8.661,13.239c0.382,0.587,0.928,0.924,1.208,0.751c0.278-0.175,0.219-0.811-0.138-1.413
			l-7.792-13.205L17.723,39.13z"/>
		<g>
			<defs>
				<path id="SVGID_1_" d="M24.859,19.705c-2.802,6.161-1.896,12.598,2.018,14.377c3.917,1.782,9.36-1.768,12.163-7.929
					c2.801-6.159,1.896-12.597-2.02-14.377c-0.684-0.311-1.418-0.459-2.171-0.459C31.281,11.316,27.17,14.623,24.859,19.705"/>
			</defs>
			<clipPath id="SVGID_2_">
				<use xlink:href="#SVGID_1_"  overflow="visible"/>
			</clipPath>
			
				<linearGradient id="SVGID_3_" gradientUnits="userSpaceOnUse" x1="-142.9053" y1="341.6738" x2="-141.0824" y2="341.6738" gradientTransform="matrix(4.418 4.7377 4.7377 -4.418 -957.9639 2207.4399)">
				<stop  offset="0" style="stop-color:#F9EC00"/>
				<stop  offset="0.3129" style="stop-color:#F9EC00"/>
				<stop  offset="0.5974" style="stop-color:#FBD610"/>
				<stop  offset="1" style="stop-color:#FDBB24"/>
			</linearGradient>
			<polygon clip-path="url(#SVGID_2_)" fill="url(#SVGID_3_)" points="32.639,1.449 54.086,24.447 31.26,45.732 9.812,22.735 			"/>
		</g>
		<g>
			<defs>
				<path id="SVGID_4_" d="M27.263,30.928c-5.587,2.006-9.083,6.512-7.809,10.063c1.273,3.551,6.835,4.806,12.421,2.8
					c5.589-2.003,9.083-6.507,7.81-10.06c-0.862-2.404-3.694-3.757-7.165-3.757C30.867,29.974,29.065,30.283,27.263,30.928"/>
			</defs>
			<clipPath id="SVGID_5_">
				<use xlink:href="#SVGID_4_"  overflow="visible"/>
			</clipPath>
			
				<linearGradient id="SVGID_6_" gradientUnits="userSpaceOnUse" x1="-95.4009" y1="365.8457" x2="-93.5781" y2="365.8457" gradientTransform="matrix(-0.6087 5.7911 5.7911 0.6087 -2146.7917 364.2834)">
				<stop  offset="0" style="stop-color:#F9EC00"/>
				<stop  offset="0.3129" style="stop-color:#F9EC00"/>
				<stop  offset="0.5974" style="stop-color:#FBD610"/>
				<stop  offset="1" style="stop-color:#FDBB24"/>
			</linearGradient>
			<polygon clip-path="url(#SVGID_5_)" fill="url(#SVGID_6_)" points="42.603,30.148 40.71,48.163 16.535,45.622 18.428,27.607 			
				"/>
		</g>
		<g>
			<defs>
				<path id="SVGID_7_" d="M14.689,28.977c-1.19,6.596,1.242,12.559,5.438,13.315c4.194,0.758,8.561-3.976,9.75-10.573
					c1.195-6.598-1.241-12.56-5.435-13.316c-0.297-0.055-0.594-0.08-0.892-0.08C19.646,18.323,15.794,22.844,14.689,28.977"/>
			</defs>
			<clipPath id="SVGID_8_">
				<use xlink:href="#SVGID_7_"  overflow="visible"/>
			</clipPath>
			
				<linearGradient id="SVGID_9_" gradientUnits="userSpaceOnUse" x1="-180.3975" y1="366.5977" x2="-178.5745" y2="366.5977" gradientTransform="matrix(8.6641 0 0 -8.6641 1577.3628 3206.9182)">
				<stop  offset="0" style="stop-color:#F9EC00"/>
				<stop  offset="0.3129" style="stop-color:#F9EC00"/>
				<stop  offset="0.5974" style="stop-color:#FBD610"/>
				<stop  offset="1" style="stop-color:#FDBB24"/>
			</linearGradient>
			<rect x="13.499" y="18.323" clip-path="url(#SVGID_8_)" fill="url(#SVGID_9_)" width="17.573" height="24.727"/>
		</g>
		<g>
			<defs>
				<path id="SVGID_10_" d="M14.689,28.977c-1.19,6.596,1.242,12.559,5.438,13.315c4.194,0.758,8.561-3.976,9.75-10.573
					c1.195-6.598-1.241-12.56-5.435-13.316c-0.297-0.055-0.594-0.08-0.892-0.08C19.646,18.324,15.797,22.844,14.689,28.977"/>
			</defs>
			<clipPath id="SVGID_11_">
				<use xlink:href="#SVGID_10_"  overflow="visible"/>
			</clipPath>
			
				<linearGradient id="SVGID_12_" gradientUnits="userSpaceOnUse" x1="-162.1221" y1="338.4971" x2="-160.299" y2="338.4971" gradientTransform="matrix(5.4636 3.0285 3.0285 -5.4636 -119.9368 2369.5029)">
				<stop  offset="0" style="stop-color:#F9EC00"/>
				<stop  offset="0.3129" style="stop-color:#F9EC00"/>
				<stop  offset="0.5974" style="stop-color:#FBD610"/>
				<stop  offset="1" style="stop-color:#FDBB24"/>
			</linearGradient>
			<polygon clip-path="url(#SVGID_11_)" fill="url(#SVGID_12_)" points="17.628,10.871 41.557,24.136 26.941,50.502 3.012,37.238 
							"/>
		</g>
	</g>
	<g>
		<path fill="#FFFFFF" d="M68.474,49.297v-17.89c0-1.461-0.105-2.678-0.312-3.65c-0.104-0.453-0.244-0.854-0.417-1.202
			c-0.176-0.347-0.263-0.538-0.263-0.572c0-0.103,0.087-0.226,0.263-0.366l2.241-1.25c0.244-0.138,0.401-0.211,0.471-0.211
			c0.659,0,1.129,1.028,1.407,3.078c0.765-0.694,1.791-1.374,3.078-2.033c1.459-0.697,2.693-1.045,3.702-1.045
			c3.026,0,4.869,1.045,5.53,3.132c2.849-2.087,5.145-3.132,6.885-3.132c2.572,0,4.328,0.836,5.266,2.505
			c0.627,1.112,0.939,2.888,0.939,5.321v17.315c0,0.417-0.21,0.624-0.627,0.624h-2.712c-0.417,0-0.624-0.207-0.624-0.627V31.833
			c0-2.824-1.115-4.233-3.339-4.233c-1.356,0-3.061,0.714-5.114,2.143v19.551c0,0.42-0.207,0.627-0.624,0.627h-2.712
			c-0.418,0-0.627-0.207-0.627-0.627V31.833c0-2.824-1.13-4.233-3.389-4.233c-1.602,0-3.288,0.732-5.059,2.194v19.5
			c0,0.42-0.208,0.627-0.628,0.627h-2.709C68.683,49.921,68.474,49.714,68.474,49.297"/>
		<path fill="#FFFFFF" d="M111.242,47.418c4.034,0,6.05-3.407,6.05-10.221c0-6.538-2.034-9.807-6.102-9.807
			c-4.068,0-6.104,3.218-6.104,9.65C105.086,43.959,107.137,47.418,111.242,47.418 M121.568,37.249c0,3.928-0.835,7.074-2.504,9.439
			c-1.843,2.643-4.572,3.965-8.188,3.965c-3.373,0-5.93-1.252-7.667-3.756c-1.599-2.294-2.398-5.426-2.398-9.389
			c0-3.895,0.815-7.023,2.45-9.388c1.843-2.642,4.555-3.963,8.138-3.963c3.408,0,5.997,1.269,7.77,3.806
			C120.769,30.226,121.568,33.32,121.568,37.249"/>
		<path fill="#FFFFFF" d="M134.921,47.418c4.033,0,6.05-3.407,6.05-10.221c0-6.538-2.036-9.807-6.104-9.807
			c-4.065,0-6.101,3.218-6.101,9.65C128.766,43.959,130.817,47.418,134.921,47.418 M145.248,37.249c0,3.928-0.835,7.074-2.504,9.439
			c-1.844,2.643-4.572,3.965-8.188,3.965c-3.375,0-5.93-1.252-7.667-3.756c-1.6-2.294-2.399-5.426-2.399-9.389
			c0-3.895,0.816-7.023,2.451-9.388c1.843-2.642,4.555-3.963,8.139-3.963c3.406,0,5.997,1.269,7.77,3.806
			C144.449,30.226,145.248,33.32,145.248,37.249"/>
		<path fill="#FFFFFF" d="M151.819,32.084v17.212c0,0.418-0.208,0.626-0.627,0.626h-2.711c-0.418,0-0.626-0.208-0.626-0.626V31.407
			c0-1.6-0.297-2.92-0.887-3.964c-0.382-0.66-0.572-1.095-0.572-1.305c0.033-0.241,0.154-0.417,0.365-0.521l1.929-1.199
			c0.244-0.174,0.417-0.26,0.522-0.26c0.416,0,0.851,0.591,1.302,1.772c0.314,0.869,0.557,1.74,0.732,2.608
			c0.833-0.904,1.667-1.824,2.501-2.764c1.219-1.076,2.47-1.616,3.757-1.616c0.625,0,1.207,0.086,1.746,0.26
			c0.541,0.174,0.809,0.382,0.809,0.625c0,0.036-0.051,0.176-0.157,0.418l-1.148,2.659c-0.103,0.243-0.208,0.366-0.311,0.366
			c-0.036,0-0.237-0.079-0.601-0.234c-0.364-0.157-0.739-0.237-1.124-0.237c-0.764,0-1.65,0.505-2.658,1.513
			C153.297,30.399,152.549,31.25,151.819,32.084"/>
		<path fill="#FFFFFF" d="M171.69,47.053l0.678,1.931c0.07,0.14,0.105,0.261,0.105,0.366c0,0.278-0.497,0.564-1.487,0.858
			c-0.992,0.295-1.975,0.445-2.947,0.445c-2.574,0-4.209-0.837-4.903-2.506c-0.487-1.146-0.729-3.667-0.729-7.562V13.518
			c0-0.348,0.121-0.557,0.365-0.626l2.607-0.624c0.104-0.036,0.312-0.071,0.626-0.105c0.243,0,0.364,0.227,0.364,0.678V40.69
			c0,2.677,0.051,4.312,0.157,4.903c0.208,1.217,0.902,1.824,2.086,1.824c0.521,0,1.095-0.112,1.722-0.339
			c0.626-0.225,0.956-0.339,0.992-0.339C171.499,46.74,171.621,46.845,171.69,47.053"/>
		<path fill="#FFFFFF" d="M187.806,44.185v-6.728c-6.503,0.14-9.753,1.981-9.753,5.527c0,1.184,0.294,2.176,0.885,2.973
			c0.695,0.976,1.671,1.461,2.921,1.461C183.354,47.418,185.336,46.341,187.806,44.185 M191.77,31.459V41.68
			c0,2.192,0.209,3.932,0.627,5.218c0.068,0.208,0.241,0.557,0.521,1.043c0.276,0.485,0.416,0.781,0.416,0.886
			c0,0.105-0.156,0.244-0.469,0.42l-2.033,1.25c-0.21,0.103-0.349,0.157-0.42,0.157c-0.485,0-1.147-1.165-1.979-3.496
			c-2.54,2.331-5.044,3.496-7.511,3.496c-2.087,0-3.74-0.652-4.956-1.957c-1.217-1.304-1.824-3.104-1.824-5.397
			c0-5.771,4.554-8.798,13.664-9.076V32.33c0-1.612-0.331-2.804-0.991-3.575c-0.662-0.769-1.878-1.155-3.651-1.155
			c-1.426,0-2.868,0.286-4.328,0.859c-1.462,0.575-2.139,0.861-2.034,0.861c-0.174,0-0.296-0.085-0.364-0.26l-0.68-1.827
			c-0.104-0.277-0.155-0.502-0.155-0.678c0-0.451,0.946-0.963,2.841-1.538c1.897-0.574,3.66-0.862,5.295-0.862
			C189.093,24.156,191.77,26.592,191.77,31.459"/>
		<path fill="#FFFFFF" d="M215.188,31.981v17.315c0,0.417-0.207,0.625-0.626,0.625h-2.711c-0.418,0-0.626-0.208-0.626-0.628V31.833
			c0-2.822-1.133-4.234-3.391-4.234c-2.191,0-4.485,1.063-6.885,3.189v18.506c0,0.42-0.209,0.628-0.627,0.628h-2.711
			c-0.418,0-0.627-0.208-0.627-0.625V31.302c0-1.529-0.078-2.572-0.232-3.128c-0.157-0.557-0.333-1.043-0.522-1.461
			c-0.191-0.417-0.287-0.644-0.287-0.678c0-0.103,0.086-0.226,0.262-0.365l2.345-1.302c0.244-0.14,0.383-0.211,0.42-0.211
			c0.38,0,0.763,0.541,1.146,1.619c0.243,0.729,0.399,1.373,0.471,1.93c2.99-2.364,5.79-3.549,8.396-3.549
			c2.572,0,4.328,0.836,5.268,2.505C214.874,27.773,215.188,29.546,215.188,31.981"/>
		<path fill="#FFFFFF" d="M233.861,44.115V29.329c-2.157-1.154-4.141-1.73-5.948-1.73c-2.016,0-3.389,1.068-4.119,3.201
			c-0.522,1.467-0.782,3.81-0.782,7.026c0,2.865,0.242,4.979,0.729,6.343c0.695,2.028,1.982,3.042,3.858,3.042
			c1.113,0,2.349-0.418,3.704-1.259C232.14,45.357,232.99,44.746,233.861,44.115 M237.823,12.838v28.843
			c0,2.608,0.191,4.348,0.574,5.215c0.068,0.141,0.262,0.506,0.574,1.097c0.242,0.452,0.365,0.73,0.365,0.834
			c0,0.105-0.157,0.245-0.471,0.418l-2.033,1.252c-0.208,0.104-0.349,0.155-0.417,0.155c-0.313,0-0.696-0.415-1.147-1.25
			c-0.349-0.661-0.593-1.27-0.729-1.826c-1.392,0.974-2.349,1.599-2.871,1.877c-1.562,0.8-3.163,1.199-4.798,1.199
			c-2.643,0-4.693-1.32-6.154-3.964c-1.322-2.328-1.981-5.249-1.981-8.763c0-4.032,0.694-7.266,2.087-9.698
			c1.529-2.712,3.736-4.07,6.621-4.07c2.401,0,4.54,0.593,6.419,1.773V13.518c0-0.348,0.121-0.557,0.363-0.626l2.557-0.625
			c0.104-0.034,0.312-0.07,0.624-0.104C237.684,12.162,237.823,12.387,237.823,12.838"/>
		<path fill="#FFFFFF" d="M257.851,28.121v21.175c0,0.418-0.207,0.626-0.625,0.626h-2.711c-0.419,0-0.627-0.208-0.627-0.626V28.121
			h-3.65c-0.244,0-0.365-0.208-0.365-0.626v-1.98c0-0.42,0.121-0.628,0.365-0.628h3.65v-4.068c0-5.771,2.415-8.656,7.249-8.656
			c1.217,0,2.477,0.208,3.781,0.626c1.305,0.416,1.956,0.815,1.956,1.199c0-0.139-0.087,0.104-0.26,0.729l-0.731,1.722
			c-0.14,0.208-0.261,0.312-0.363,0.312c-0.176,0-0.767-0.191-1.774-0.575c-1.008-0.38-1.931-0.573-2.764-0.573
			c-1.322,0-2.209,0.49-2.66,1.469c-0.313,0.698-0.471,1.958-0.471,3.776v4.038h7.512c0.381,0,0.572,0.125,0.572,0.366v0.157
			c-0.034,0.07-0.052,0.14-0.052,0.208l-0.678,2.034c-0.104,0.313-0.331,0.47-0.678,0.47H257.851z"/>
		<path fill="#FFFFFF" d="M282.677,44.545V25.518c0-0.349,0.121-0.56,0.365-0.63l2.606-0.626c0.106-0.034,0.314-0.068,0.627-0.104
			c0.244,0,0.365,0.227,0.365,0.678v18.566c0,1.497,0.191,2.646,0.573,3.443c0.662,1.355,0.99,2.017,0.99,1.982
			c0,0.103-0.155,0.243-0.468,0.416l-2.034,1.252c-0.209,0.104-0.348,0.156-0.419,0.156c-0.311,0-0.635-0.347-0.965-1.043
			c-0.33-0.694-0.649-1.373-0.964-2.033c-2.504,2.052-4.92,3.076-7.249,3.076c-3.166,0-5.321-0.833-6.468-2.502
			c-0.765-1.113-1.147-2.887-1.147-5.32V25.513c0-0.347,0.121-0.555,0.366-0.625l2.607-0.626c0.104-0.034,0.312-0.068,0.625-0.104
			c0.244,0,0.365,0.227,0.365,0.68v18.139c0,2.821,1.426,4.234,4.275,4.234c0.766,0,1.845-0.331,3.235-0.993
			C281.215,45.625,282.12,45.068,282.677,44.545"/>
		<path fill="#FFFFFF" d="M294.829,35.006h11.268c0-1.877-0.332-3.494-0.992-4.852c-0.94-1.841-2.417-2.764-4.433-2.764
			c-2.121,0-3.686,0.939-4.694,2.818C295.211,31.599,294.829,33.198,294.829,35.006 M308.755,45.333l0.887,2.191
			c0.104,0.242,0.157,0.382,0.157,0.416c0,0.349-0.887,0.868-2.66,1.565c-1.982,0.764-3.843,1.147-5.581,1.147
			c-3.442,0-6.136-1.208-8.084-3.626c-1.947-2.415-2.921-5.625-2.921-9.622c0-3.894,0.929-7.076,2.789-9.545
			c1.863-2.468,4.374-3.702,7.537-3.702c6.328,0,9.492,4.312,9.492,12.934c0,0.765-0.19,1.147-0.572,1.147h-14.97
			c0,2.203,0.453,4.093,1.356,5.664c1.252,2.204,3.199,3.307,5.843,3.307c1.389,0,2.841-0.365,4.353-1.097
			c1.515-0.729,2.2-1.093,2.062-1.093C308.513,45.021,308.615,45.124,308.755,45.333"/>
		<path fill="#FFFFFF" d="M323.308,47.053l0.678,1.931c0.067,0.14,0.104,0.261,0.104,0.366c0,0.278-0.496,0.564-1.488,0.858
			c-0.99,0.295-1.973,0.445-2.946,0.445c-2.573,0-4.205-0.837-4.901-2.506c-0.487-1.146-0.731-3.667-0.731-7.562V13.518
			c0-0.348,0.123-0.557,0.365-0.626l2.607-0.624c0.105-0.036,0.313-0.071,0.628-0.105c0.242,0,0.363,0.227,0.363,0.678V40.69
			c0,2.677,0.052,4.312,0.157,4.903c0.209,1.217,0.902,1.824,2.086,1.824c0.521,0,1.095-0.112,1.722-0.339
			c0.625-0.225,0.956-0.339,0.99-0.339C323.114,46.74,323.236,46.845,323.308,47.053"/>
		<path fill="#FFFFFF" d="M341.353,26.922l-0.678,1.408c-0.209,0.417-0.417,0.625-0.627,0.625c0.07,0-0.513-0.226-1.747-0.677
			c-1.235-0.453-2.408-0.68-3.52-0.68c-2.575,0-3.859,1.145-3.859,3.435c0,1.562,1.006,2.863,3.024,3.902
			c1.844,0.939,3.685,1.876,5.529,2.812c2.016,1.388,3.024,3.228,3.024,5.516c0,2.325-0.835,4.163-2.505,5.518
			c-1.53,1.248-3.476,1.871-5.842,1.871c-1.32,0-2.972-0.295-4.953-0.886c-1.981-0.59-2.974-1.13-2.974-1.616
			c0-0.105,0.068-0.314,0.21-0.627l0.728-1.617c0.139-0.312,0.296-0.469,0.472-0.469c-0.103,0,0.634,0.295,2.217,0.887
			c1.58,0.591,3.083,0.887,4.51,0.887c1.182,0,2.173-0.33,2.974-0.988c0.799-0.659,1.2-1.578,1.2-2.758
			c0-1.459-1.009-2.724-3.025-3.8c-1.846-0.937-3.686-1.89-5.528-2.862c-2.019-1.386-3.026-3.192-3.026-5.412
			c0-2.115,0.739-3.85,2.219-5.202c1.476-1.355,3.363-2.032,5.658-2.032c2.121,0,4.171,0.521,6.155,1.565
			c0.382,0.208,0.571,0.435,0.571,0.678C341.56,26.191,341.491,26.365,341.353,26.922"/>
	</g>
</g>
</svg>
