<svg xmlns="http://www.w3.org/2000/svg" xmlns:xlink="http://www.w3.org/1999/xlink" width="57" height="59" viewBox="0 0 57 59">
  <defs>
    <path id="mobile_logo-a" d="M1.859,8.705 C-0.943,14.866 -0.037,21.303 3.877,23.082 C7.794,24.864 13.237,21.314 16.04,15.153 C18.841,8.994 17.936,2.556 14.02,0.776 C13.336,0.465 12.602,0.316999773 11.849,0.316999773 C8.281,0.316 4.17,3.623 1.859,8.705"/>
    <linearGradient id="mobile_logo-b" x1="44.309%" x2="62.492%" y1="43.885%" y2="63.388%">
      <stop offset="0%" stop-color="#F9EC00"/>
      <stop offset="31.29%" stop-color="#F9EC00"/>
      <stop offset="59.74%" stop-color="#FBD610"/>
      <stop offset="100%" stop-color="#FDBB24"/>
    </linearGradient>
    <path id="mobile_logo-d" d="M8.263,1.928 C2.676,3.934 -0.82,8.44 0.454,11.991 C1.727,15.542 7.289,16.797 12.875,14.791 C18.464,12.788 21.958,8.284 20.685,4.731 C19.823,2.327 16.991,0.974 13.52,0.974 C11.867,0.974 10.065,1.283 8.263,1.928"/>
    <linearGradient id="mobile_logo-e" x1="51.377%" x2="47.12%" y1="39.753%" y2="71.685%">
      <stop offset="0%" stop-color="#F9EC00"/>
      <stop offset="31.29%" stop-color="#F9EC00"/>
      <stop offset="59.74%" stop-color="#FBD610"/>
      <stop offset="100%" stop-color="#FDBB24"/>
    </linearGradient>
    <path id="mobile_logo-g" d="M0.689,10.977 C-0.501,17.573 1.931,23.536 6.127,24.292 C10.321,25.05 14.688,20.316 15.877,13.719 C17.072,7.121 14.636,1.159 10.442,0.403 C10.145,0.348 9.848,0.323 9.55,0.323 C5.646,0.323 1.794,4.844 0.689,10.977"/>
    <linearGradient id="mobile_logo-h" x1="5.018%" x2="94.898%" y1="49.97%" y2="49.97%">
      <stop offset="0%" stop-color="#F9EC00"/>
      <stop offset="31.29%" stop-color="#F9EC00"/>
      <stop offset="59.74%" stop-color="#FBD610"/>
      <stop offset="100%" stop-color="#FDBB24"/>
    </linearGradient>
    <path id="mobile_logo-j" d="M0.689,10.977 C-0.501,17.573 1.931,23.536 6.127,24.292 C10.321,25.05 14.688,20.316 15.877,13.719 C17.072,7.121 14.636,1.159 10.442,0.403 C10.145,0.348 9.848,0.323 9.55,0.323 C5.646,0.324 1.797,4.844 0.689,10.977"/>
    <linearGradient id="mobile_logo-k" x1="42.998%" x2="67.443%" y1="46.005%" y2="59.937%">
      <stop offset="0%" stop-color="#F9EC00"/>
      <stop offset="31.29%" stop-color="#F9EC00"/>
      <stop offset="59.74%" stop-color="#FBD610"/>
      <stop offset="100%" stop-color="#FDBB24"/>
    </linearGradient>
  </defs>
  <g fill="none" fill-rule="evenodd">
    <path fill="#00733B" fill-rule="nonzero" d="M27.892,33.617 C27.251,34.057 26.41,33.934 26.026,33.349 L8.146,6.028 C7.764,5.443 7.671,4.81 7.945,4.625 C8.215,4.439 8.774,4.751 9.184,5.319 L28.313,31.788 C28.723,32.357 28.535,33.18 27.892,33.617"/>
    <path fill="#00733B" fill-rule="nonzero" d="M33.287,30.486 C32.946,31.184 32.155,31.492 31.533,31.174 L2.496,16.233 C1.875,15.913 1.483,15.408 1.628,15.112 C1.771,14.817 2.413,14.811 3.048,15.102 L32.748,28.684 C33.387,28.979 33.629,29.787 33.287,30.486"/>
    <path fill="#00733B" fill-rule="nonzero" d="M24.389,25.221 C24.728,24.524 25.519,24.216 26.142,24.534 L55.178,39.473 C55.8,39.794 56.191,40.298 56.047,40.595 C55.901,40.889 55.262,40.895 54.625,40.604 L24.925,27.022 C24.289,26.729 24.046,25.922 24.389,25.221"/>
    <path fill="#00733B" fill-rule="nonzero" d="M20.201,32.379 C19.489,32.07 19.144,31.295 19.434,30.658 L33.017,0.964 C33.308,0.327 33.795,-0.086 34.098,0.045 C34.399,0.176 34.433,0.813 34.171,1.464 L21.975,31.758 C21.712,32.408 20.917,32.687 20.201,32.379"/>
    <path fill="#00733B" fill-rule="nonzero" d="M24.944 26.622C25.656 26.93 26 27.705 25.711 28.341L12.128 58.034C11.837 58.672 11.35 59.085 11.047 58.955 10.746 58.823 10.713 58.185 10.974 57.534L23.17 27.241C23.433 26.592 24.229 26.312 24.944 26.622M18.015 35.842L9.354 22.603C8.972 22.015 8.429 21.678 8.148 21.852 7.87 22.025 7.931 22.66 8.287 23.266L16.079 36.47 18.015 35.842zM33.257 29.946L48.758 26.791C49.443 26.652 49.959 26.271 49.902 25.949 49.845 25.623 49.231 25.447 48.537 25.553L33.387 27.913 33.257 29.946z"/>
    <path fill="#00733B" fill-rule="nonzero" d="M17.151 30.453L1.648 33.609C.961 33.748.446 34.129.504 34.451.56 34.775 1.175 34.954 1.867 34.847L17.017 32.486 17.151 30.453zM26.622 37.171L34.936 50.63C35.304 51.225 35.838 51.577 36.124 51.412 36.408 51.248 36.362 50.609 36.021 49.997L28.575 36.593 26.622 37.171zM15.723 36.13L24.384 49.369C24.766 49.956 25.312 50.293 25.592 50.12 25.87 49.945 25.811 49.309 25.454 48.707L17.662 35.502 15.723 36.13z"/>
    <g transform="translate(21 8)">
      <mask id="mobile_logo-c" fill="#fff">
        <use xlink:href="#mobile_logo-a"/>
      </mask>
      <polygon fill="url(#mobile_logo-b)" fill-rule="nonzero" points="9.639 -9.551 31.086 13.447 8.26 34.732 -13.188 11.735" mask="url(#mobile_logo-c)"/>
    </g>
    <g transform="translate(17 26)">
      <mask id="mobile_logo-f" fill="#fff">
        <use xlink:href="#mobile_logo-d"/>
      </mask>
      <polygon fill="url(#mobile_logo-e)" fill-rule="nonzero" points="23.603 1.148 21.71 19.163 -2.465 16.622 -.572 -1.393" mask="url(#mobile_logo-f)"/>
    </g>
    <g transform="translate(12 15)">
      <mask id="mobile_logo-i" fill="#fff">
        <use xlink:href="#mobile_logo-g"/>
      </mask>
      <polygon fill="url(#mobile_logo-h)" fill-rule="nonzero" points="-.501 .323 17.072 .323 17.072 25.05 -.501 25.05" mask="url(#mobile_logo-i)"/>
    </g>
    <g transform="translate(12 15)">
      <mask id="mobile_logo-l" fill="#fff">
        <use xlink:href="#mobile_logo-j"/>
      </mask>
      <polygon fill="url(#mobile_logo-k)" fill-rule="nonzero" points="3.628 -7.129 27.557 6.136 12.941 32.502 -10.988 19.238" mask="url(#mobile_logo-l)"/>
    </g>
  </g>
</svg>
