<svg xmlns="http://www.w3.org/2000/svg" xmlns:xlink="http://www.w3.org/1999/xlink" width="38" height="40" viewBox="0 0 38 40">
  <defs>
    <path id="mobile_logo-a" d="M1.26033898,5.90169492 C-0.639322034,10.0786441 -0.0250847458,14.4427119 2.62847458,15.6488136 C5.2840678,16.8569492 8.97423729,14.4501695 10.8745763,10.2732203 C12.7735593,6.09762712 12.16,1.73288136 9.50508475,0.526101695 C9.04135593,0.315254237 8.54372881,0.214914947 8.03322034,0.214914947 C5.61423729,0.214237288 2.82711864,2.45627119 1.26033898,5.90169492"/>
    <linearGradient id="mobile_logo-b" x1="44.309%" x2="62.492%" y1="43.885%" y2="63.388%">
      <stop offset="0%" stop-color="#F9EC00"/>
      <stop offset="31.29%" stop-color="#F9EC00"/>
      <stop offset="59.74%" stop-color="#FBD610"/>
      <stop offset="100%" stop-color="#FDBB24"/>
    </linearGradient>
    <path id="mobile_logo-d" d="M5.6020339,1.30711864 C1.81423729,2.66711864 -0.555932203,5.7220339 0.30779661,8.12949153 C1.17084746,10.5369492 4.94169492,11.3877966 8.72881356,10.0277966 C12.5179661,8.66983051 14.8867797,5.61627119 14.0237288,3.20745763 C13.439322,1.57762712 11.519322,0.660338983 9.16610169,0.660338983 C8.04542373,0.660338983 6.82372881,0.869830508 5.6020339,1.30711864"/>
    <linearGradient id="mobile_logo-e" x1="51.377%" x2="47.12%" y1="39.753%" y2="71.685%">
      <stop offset="0%" stop-color="#F9EC00"/>
      <stop offset="31.29%" stop-color="#F9EC00"/>
      <stop offset="59.74%" stop-color="#FBD610"/>
      <stop offset="100%" stop-color="#FDBB24"/>
    </linearGradient>
    <path id="mobile_logo-g" d="M0.467118644,7.4420339 C-0.339661017,11.9138983 1.30915254,15.9566102 4.15389831,16.4691525 C6.99728814,16.9830508 9.9579661,13.7735593 10.7640678,9.30101695 C11.5742373,4.82779661 9.92271186,0.785762712 7.07932203,0.273220339 C6.8779661,0.235932203 6.67661017,0.218983051 6.47457627,0.218983051 C3.82779661,0.218983051 1.21627119,3.2840678 0.467118644,7.4420339"/>
    <linearGradient id="mobile_logo-h" x1="5.018%" x2="94.898%" y1="49.97%" y2="49.97%">
      <stop offset="0%" stop-color="#F9EC00"/>
      <stop offset="31.29%" stop-color="#F9EC00"/>
      <stop offset="59.74%" stop-color="#FBD610"/>
      <stop offset="100%" stop-color="#FDBB24"/>
    </linearGradient>
    <path id="mobile_logo-j" d="M0.467118644,7.4420339 C-0.339661017,11.9138983 1.30915254,15.9566102 4.15389831,16.4691525 C6.99728814,16.9830508 9.9579661,13.7735593 10.7640678,9.30101695 C11.5742373,4.82779661 9.92271186,0.785762712 7.07932203,0.273220339 C6.8779661,0.235932203 6.67661017,0.218983051 6.47457627,0.218983051 C3.82779661,0.219661017 1.21830508,3.2840678 0.467118644,7.4420339"/>
    <linearGradient id="mobile_logo-k" x1="42.998%" x2="67.443%" y1="46.005%" y2="59.937%">
      <stop offset="0%" stop-color="#F9EC00"/>
      <stop offset="31.29%" stop-color="#F9EC00"/>
      <stop offset="59.74%" stop-color="#FBD610"/>
      <stop offset="100%" stop-color="#FDBB24"/>
    </linearGradient>
  </defs>
  <g fill="none" fill-rule="evenodd">
    <path fill="#00733B" fill-rule="nonzero" d="M18.9098305,22.7911864 C18.4752542,23.0894915 17.9050847,23.0061017 17.6447458,22.6094915 L5.52271186,4.08677966 C5.26372881,3.69016949 5.20067797,3.26101695 5.38644068,3.13559322 C5.56949153,3.00949153 5.94847458,3.22101695 6.22644068,3.60610169 L19.1952542,21.5511864 C19.4732203,21.9369492 19.3457627,22.4949153 18.9098305,22.7911864"/>
    <path fill="#00733B" fill-rule="nonzero" d="M22.5674576,20.6684746 C22.3362712,21.1416949 21.8,21.3505085 21.3783051,21.1349153 L1.69220339,11.0054237 C1.27118644,10.7884746 1.00542373,10.4461017 1.10372881,10.2454237 C1.20067797,10.0454237 1.6359322,10.0413559 2.06644068,10.2386441 L22.2020339,19.4467797 C22.6352542,19.6467797 22.799322,20.1945763 22.5674576,20.6684746"/>
    <path fill="#00733B" fill-rule="nonzero" d="M16.5349153,17.0989831 C16.7647458,16.6264407 17.3010169,16.4176271 17.7233898,16.6332203 L37.4088136,26.7613559 C37.8305085,26.9789831 38.0955932,27.320678 37.9979661,27.5220339 C37.8989831,27.7213559 37.4657627,27.7254237 37.0338983,27.5281356 L16.8983051,18.32 C16.4671186,18.1213559 16.3023729,17.5742373 16.5349153,17.0989831"/>
    <path fill="#00733B" fill-rule="nonzero" d="M13.6955932,21.9518644 C13.2128814,21.7423729 12.9789831,21.2169492 13.1755932,20.7850847 L22.3844068,0.653559322 C22.5816949,0.221694915 22.9118644,-0.0583050847 23.1172881,0.0305084746 C23.3213559,0.119322034 23.3444068,0.551186441 23.1667797,0.992542373 L14.8983051,21.5308475 C14.72,21.9715254 14.1810169,22.160678 13.6955932,21.9518644"/>
    <path fill="#00733B" fill-rule="nonzero" d="M16.9111864,18.0488136 C17.3938983,18.2576271 17.6271186,18.7830508 17.4311864,19.2142373 L8.22237288,39.3450847 C8.02508475,39.7776271 7.69491525,40.0576271 7.48949153,39.9694915 C7.28542373,39.88 7.26305085,39.4474576 7.44,39.0061017 L15.7084746,18.4684746 C15.8867797,18.0284746 16.4264407,17.8386441 16.9111864,18.0488136 L16.9111864,18.0488136 Z M12.2135593,24.299661 L6.34169492,15.3240678 C6.08271186,14.9254237 5.71457627,14.6969492 5.5240678,14.8149153 C5.33559322,14.9322034 5.37694915,15.3627119 5.61830508,15.7735593 L10.9010169,24.7254237 L12.2135593,24.299661 Z M22.5471186,20.3023729 L33.0562712,18.1633898 C33.520678,18.0691525 33.8705085,17.8108475 33.8318644,17.5925424 C33.7932203,17.3715254 33.3769492,17.2522034 32.9064407,17.3240678 L22.6352542,18.9240678 L22.5471186,20.3023729 Z"/>
    <path fill="#00733B" fill-rule="nonzero" d="M11.6277966,20.6461017 L1.11728814,22.7857627 C0.651525424,22.88 0.302372881,23.1383051 0.341694915,23.3566102 C0.379661017,23.5762712 0.796610169,23.6976271 1.26576271,23.6250847 L11.5369492,22.0244068 L11.6277966,20.6461017 Z M18.0488136,25.200678 L23.6854237,34.3254237 C23.9349153,34.7288136 24.2969492,34.9674576 24.4908475,34.8555932 C24.6833898,34.7444068 24.6522034,34.3111864 24.4210169,33.8962712 L19.3728814,24.8088136 L18.0488136,25.200678 Z M10.659661,24.4949153 L16.5315254,33.4705085 C16.7905085,33.8684746 17.160678,34.0969492 17.3505085,33.979661 C17.5389831,33.8610169 17.4989831,33.4298305 17.2569492,33.0216949 L11.9742373,24.0691525 L10.659661,24.4949153 Z"/>
    <g transform="translate(14.237 5.424)">
      <mask id="mobile_logo-c" fill="#fff">
        <use xlink:href="#mobile_logo-a"/>
      </mask>
      <polygon fill="url(#mobile_logo-b)" fill-rule="nonzero" points="6.535 -6.475 21.075 9.117 5.6 23.547 -8.941 7.956" mask="url(#mobile_logo-c)"/>
    </g>
    <g transform="translate(11.525 17.627)">
      <mask id="mobile_logo-f" fill="#fff">
        <use xlink:href="#mobile_logo-d"/>
      </mask>
      <polygon fill="url(#mobile_logo-e)" fill-rule="nonzero" points="16.002 .778 14.719 12.992 -1.671 11.269 -.388 -.944" mask="url(#mobile_logo-f)"/>
    </g>
    <g transform="translate(8.136 10.17)">
      <mask id="mobile_logo-i" fill="#fff">
        <use xlink:href="#mobile_logo-g"/>
      </mask>
      <polygon fill="url(#mobile_logo-h)" fill-rule="nonzero" points="-.34 .219 11.574 .219 11.574 16.983 -.34 16.983" mask="url(#mobile_logo-i)"/>
    </g>
    <g transform="translate(8.136 10.17)">
      <mask id="mobile_logo-l" fill="#fff">
        <use xlink:href="#mobile_logo-j"/>
      </mask>
      <polygon fill="url(#mobile_logo-k)" fill-rule="nonzero" points="2.46 -4.833 18.683 4.16 8.774 22.035 -7.449 13.043" mask="url(#mobile_logo-l)"/>
    </g>
  </g>
</svg>
