<?xml version="1.0" encoding="utf-8"?>
<!-- Generator: Adobe Illustrator 16.0.0, SVG Export Plug-In . SVG Version: 6.00 Build 0)  -->
<!DOCTYPE svg PUBLIC "-//W3C//DTD SVG 1.1//EN" "http://www.w3.org/Graphics/SVG/1.1/DTD/svg11.dtd">
<svg version="1.1" id="DESIGN" xmlns="http://www.w3.org/2000/svg" xmlns:xlink="http://www.w3.org/1999/xlink" x="0px" y="0px"
	 width="200px" height="200px" viewBox="0 0 200 200" enable-background="new 0 0 200 200" xml:space="preserve">
<g>
</g>
<g>
	<path fill="#84898B" d="M165.995,97.819l-17.306,4.691c-2.402,0.65-6.465,0.65-8.867,0l-12.48-3.383
		c-2.93-0.796-7.512-0.795-10.436,0l-12.479,3.383c-2.402,0.65-6.463,0.65-8.865,0l-12.477-3.383c-2.926-0.795-7.512-0.795-10.438,0
		l-12.475,3.383c-2.402,0.65-6.465,0.65-8.867,0l-17.302-4.691c-0.8-0.217-1.624,0.256-1.84,1.055
		c-0.217,0.8,0.255,1.623,1.055,1.84l17.302,4.691c2.926,0.795,7.512,0.795,10.438,0l12.475-3.383c2.402-0.65,6.465-0.65,8.867,0
		l12.477,3.383c1.463,0.397,3.34,0.596,5.218,0.596c1.877,0,3.755-0.198,5.218-0.596l12.479-3.383
		c2.401-0.65,6.462-0.651,8.865,0.001l12.48,3.382c2.928,0.795,7.512,0.795,10.438,0l17.306-4.69c0.8-0.217,1.271-1.041,1.055-1.841
		C167.619,98.075,166.799,97.603,165.995,97.819z"/>
	<path fill="#84898B" d="M20.5,91.523L16.76,98H19v11c0,0.553,0.447,1,1,1s1-0.447,1-1V98h3.24L20.5,91.523z"/>
	<path fill="#84898B" d="M183.24,98l-3.74-6.477L175.76,98H178v11c0,0.553,0.447,1,1,1s1-0.447,1-1V98H183.24z"/>
</g>
</svg>
