<svg xmlns="http://www.w3.org/2000/svg" width="186" height="20" viewBox="0 0 186 20">
  <path fill="#84898B" d="M149.995 6.819L132.689 11.51C130.287 12.16 126.224 12.16 123.822 11.51L111.342 8.127C108.412 7.331 103.83 7.332 100.906 8.127L88.427 11.51C86.025 12.16 81.964 12.16 79.562 11.51L67.085 8.127C64.159 7.332 59.573 7.332 56.647 8.127L44.172 11.51C41.77 12.16 37.707 12.16 35.305 11.51L18.003 6.819C17.203 6.602 16.379 7.075 16.163 7.874 15.946 8.674 16.418 9.497 17.218 9.714L34.52 14.405C37.446 15.2 42.032 15.2 44.958 14.405L57.433 11.022C59.835 10.372 63.898 10.372 66.3 11.022L78.777 14.405C80.24 14.802 82.117 15.001 83.995 15.001 85.872 15.001 87.75 14.803 89.213 14.405L101.692 11.022C104.093 10.372 108.154 10.371 110.557 11.023L123.037 14.405C125.965 15.2 130.549 15.2 133.475 14.405L150.781 9.715C151.581 9.498 152.052 8.674 151.836 7.874 151.619 7.075 150.799 6.603 149.995 6.819zM4.5.523L.76 7 3 7 3 18C3 18.553 3.447 19 4 19 4.553 19 5 18.553 5 18L5 7 8.24 7 4.5.523zM167.24 7L163.5.523 159.76 7 162 7 162 18C162 18.553 162.447 19 163 19 163.553 19 164 18.553 164 18L164 7 167.24 7z" transform="translate(9)"/>
</svg>
