<svg xmlns="http://www.w3.org/2000/svg" width="154" height="196" viewBox="0 0 154 196">
  <g fill="none" fill-rule="evenodd">
    <path fill="#0A1418" fill-rule="nonzero" d="M151.387,42.396 L114.21,2.696 C112.659,1.031 109.94,0 107.663,0 L6.306,0 C2.928,0 1.42108547e-14,2.483 1.42108547e-14,5.861 L1.42108547e-14,190.139 C1.42108547e-14,193.517 2.928,196 6.306,196 L147.695,196 C151.073,196 154.001,193.518 154.001,190.139 L154.001,48.805 C154.001,46.627 152.873,43.993 151.387,42.396 L151.387,42.396 Z M114,13.892 L140.625,43 L114,43 L114,13.892 Z M8,188 L8,7.735 L106,7.733 L106,46.679 C106,48.888 107.58,51 109.789,51 L146,51 L146,188 L8,188 Z"/>
    <path fill="#0A1418" fill-rule="nonzero" d="M35.84,166.675 L37.324,166.675 C37.93,166.675 38.594,165.882 38.594,165.364 L38.594,146.359 C38.594,145.83 37.931,145.081 37.324,145.081 L35.84,145.081 L35.84,140.503 L49.727,140.503 C57.901,140.503 62.36,143.387 62.36,150.198 C62.36,156.841 57.643,159.847 49.424,159.847 L46.887,159.847 L46.887,166.674 L50.439,166.674 L50.439,171.093 L35.84,171.093 L35.84,166.675 Z M49.295,155.351 C52.969,155.351 53.92,153.264 53.92,150.336 C53.92,147.454 52.969,145.386 49.295,145.386 L46.76,145.386 L46.76,155.351 L49.295,155.351 Z M65.555,166.675 L67.03,166.675 C67.645,166.675 68.301,165.882 68.301,165.364 L68.301,146.359 C68.301,145.83 67.646,145.081 67.03,145.081 L65.555,145.081 L65.555,140.503 L78.877,140.503 C89.759,140.503 95.428,145.218 95.428,155.622 C95.428,165.838 89.67,171.094 78.657,171.094 L65.555,171.094 L65.555,166.675 Z M78.656,166.458 C84.158,166.458 86.867,163.171 86.867,155.838 C86.867,148.541 84.206,145.385 78.656,145.385 L76.601,145.385 L76.601,166.458 L78.656,166.458 Z M97.547,166.675 L99.036,166.675 C99.642,166.675 100.299,165.882 100.299,165.364 L100.299,146.359 C100.299,145.83 99.643,145.081 99.036,145.081 L97.547,145.081 L97.547,140.503 L122.402,140.503 L122.402,149.94 L117.509,149.94 L116.771,145.435 L108.591,145.435 L108.591,154 L112.576,154 L112.93,151.117 L117.425,151.117 L117.425,161.738 L112.93,161.738 L112.576,158.723 L108.591,158.723 L108.591,166.677 L112.137,166.677 L112.137,171.096 L97.546,171.096 L97.546,166.675 L97.547,166.675 Z"/>
    <path stroke="#0A1418" stroke-width="8" d="M32.733,106.82 C40.25,97.75 81.5,79.75 109.974,83.807 C138.548,87.878 131.62,109.769 119.999,105.25 C91.488,94.166 64.344,53.346 54.366,38.701 C43.5,22.75 66.719,16.618 73.25,41 C79.156,63.05 48.984,114.924 41.881,121.162 C34.772,127.422 22.794,118.814 32.733,106.82 Z"/>
  </g>
</svg>
