<svg height="196" viewBox="0 0 154 196" width="154" xmlns="http://www.w3.org/2000/svg"><g fill="none" fill-rule="evenodd"><path d="m151.387 42.396-37.177-39.7c-1.551-1.665-4.27-2.696-6.547-2.696h-101.357c-3.378 0-6.306 2.483-6.306 5.861v184.278c0 3.378 2.928 5.861 6.306 5.861h141.389c3.378 0 6.306-2.482 6.306-5.861v-141.334c0-2.178-1.128-4.812-2.614-6.409zm-37.387-28.504 26.625 29.108h-26.625zm-106 174.108v-180.265l98-.002v38.946c0 2.209 1.58 4.321 3.789 4.321h36.211v137z" fill="#d3205c" fill-rule="nonzero"/><path d="m35.84 166.675h1.484c.606 0 1.27-.793 1.27-1.311v-19.005c0-.529-.663-1.278-1.27-1.278h-1.484v-4.578h13.887c8.174 0 12.633 2.884 12.633 9.695 0 6.643-4.717 9.649-12.936 9.649h-2.537v6.827h3.552v4.419h-14.599zm13.455-11.324c3.674 0 4.625-2.087 4.625-5.015 0-2.882-.951-4.95-4.625-4.95h-2.535v9.965zm16.26 11.324h1.475c.615 0 1.271-.793 1.271-1.311v-19.005c0-.529-.655-1.278-1.271-1.278h-1.475v-4.578h13.322c10.882 0 16.551 4.715 16.551 15.119 0 10.216-5.758 15.472-16.771 15.472h-13.102zm13.101-.217c5.502 0 8.211-3.287 8.211-10.62 0-7.297-2.661-10.453-8.211-10.453h-2.055v21.073zm18.891.217h1.489c.606 0 1.263-.793 1.263-1.311v-19.005c0-.529-.656-1.278-1.263-1.278h-1.489v-4.578h24.855v9.437h-4.893l-.738-4.505h-8.18v8.565h3.985l.354-2.883h4.495v10.621h-4.495l-.354-3.015h-3.985v7.954h3.546v4.419h-14.591v-4.421z" fill="#d3205c" fill-rule="nonzero"/><path d="m32.733 106.82c7.517-9.07 48.767-27.07 77.241-23.013 28.574 4.071 21.646 25.962 10.025 21.443-28.511-11.084-55.655-51.904-65.633-66.549-10.866-15.951 12.353-22.083 18.884 2.299 5.906 22.05-24.266 73.924-31.369 80.162-7.109 6.26-19.087-2.348-9.148-14.342z" stroke="#d3205c" stroke-width="8"/></g></svg>