<?xml version="1.0" encoding="utf-8"?>
<!-- Generator: Adobe Illustrator 16.0.0, SVG Export Plug-In . SVG Version: 6.00 Build 0)  -->
<!DOCTYPE svg PUBLIC "-//W3C//DTD SVG 1.1//EN" "http://www.w3.org/Graphics/SVG/1.1/DTD/svg11.dtd">
<svg version="1.1" id="Layer_1" xmlns="http://www.w3.org/2000/svg" xmlns:xlink="http://www.w3.org/1999/xlink" x="0px" y="0px"
	 width="200px" height="200px" viewBox="0 0 200 200" enable-background="new 0 0 200 200" xml:space="preserve">
<g id="GRID_GUIDE" display="none">
	<g display="inline">
		<line fill="none" stroke="#E1E1E1" stroke-miterlimit="10" x1="-0.5" y1="0" x2="-0.5" y2="200"/>
		<line fill="none" stroke="#E1E1E1" stroke-miterlimit="10" x1="9.5" y1="0" x2="9.5" y2="200"/>
		<line fill="none" stroke="#E1E1E1" stroke-miterlimit="10" x1="19.5" y1="0" x2="19.5" y2="200"/>
		<line fill="none" stroke="#E1E1E1" stroke-miterlimit="10" x1="29.5" y1="0" x2="29.5" y2="200"/>
		<line fill="none" stroke="#E1E1E1" stroke-miterlimit="10" x1="39.5" y1="0" x2="39.5" y2="200"/>
		<line fill="none" stroke="#E1E1E1" stroke-miterlimit="10" x1="49.5" y1="0" x2="49.5" y2="200"/>
		<line fill="none" stroke="#E1E1E1" stroke-miterlimit="10" x1="59.5" y1="0" x2="59.5" y2="200"/>
		<line fill="none" stroke="#E1E1E1" stroke-miterlimit="10" x1="69.5" y1="0" x2="69.5" y2="200"/>
		<line fill="none" stroke="#E1E1E1" stroke-miterlimit="10" x1="79.5" y1="0" x2="79.5" y2="200"/>
		<line fill="none" stroke="#E1E1E1" stroke-miterlimit="10" x1="89.5" y1="0" x2="89.5" y2="200"/>
		<line fill="none" stroke="#E1E1E1" stroke-miterlimit="10" x1="99.5" y1="0" x2="99.5" y2="200"/>
		<line fill="none" stroke="#E1E1E1" stroke-miterlimit="10" x1="110.5" y1="0" x2="110.5" y2="200"/>
		<line fill="none" stroke="#E1E1E1" stroke-miterlimit="10" x1="120.5" y1="0" x2="120.5" y2="200"/>
		<line fill="none" stroke="#E1E1E1" stroke-miterlimit="10" x1="130.5" y1="0" x2="130.5" y2="200"/>
		<line fill="none" stroke="#E1E1E1" stroke-miterlimit="10" x1="140.5" y1="0" x2="140.5" y2="200"/>
		<line fill="none" stroke="#E1E1E1" stroke-miterlimit="10" x1="150.5" y1="0" x2="150.5" y2="200"/>
		<line fill="none" stroke="#E1E1E1" stroke-miterlimit="10" x1="160.5" y1="0" x2="160.5" y2="200"/>
		<line fill="none" stroke="#E1E1E1" stroke-miterlimit="10" x1="170.5" y1="0" x2="170.5" y2="200"/>
		<line fill="none" stroke="#E1E1E1" stroke-miterlimit="10" x1="180.5" y1="0" x2="180.5" y2="200"/>
		<line fill="none" stroke="#E1E1E1" stroke-miterlimit="10" x1="190.5" y1="0" x2="190.5" y2="200"/>
		<line fill="none" stroke="#E1E1E1" stroke-miterlimit="10" x1="200.5" y1="0" x2="200.5" y2="200"/>
	</g>
	<g display="inline">
		<line fill="none" stroke="#E1E1E1" stroke-miterlimit="10" x1="200" y1="-0.5" x2="1" y2="-0.5"/>
		<line fill="none" stroke="#E1E1E1" stroke-miterlimit="10" x1="200" y1="9.5" x2="1" y2="9.5"/>
		<line fill="none" stroke="#E1E1E1" stroke-miterlimit="10" x1="200" y1="19.5" x2="1" y2="19.5"/>
		<line fill="none" stroke="#E1E1E1" stroke-miterlimit="10" x1="200" y1="29.5" x2="1" y2="29.5"/>
		<line fill="none" stroke="#E1E1E1" stroke-miterlimit="10" x1="200" y1="39.5" x2="1" y2="39.5"/>
		<line fill="none" stroke="#E1E1E1" stroke-miterlimit="10" x1="200" y1="49.5" x2="1" y2="49.5"/>
		<line fill="none" stroke="#E1E1E1" stroke-miterlimit="10" x1="200" y1="59.5" x2="1" y2="59.5"/>
		<line fill="none" stroke="#E1E1E1" stroke-miterlimit="10" x1="200" y1="69.5" x2="1" y2="69.5"/>
		<line fill="none" stroke="#E1E1E1" stroke-miterlimit="10" x1="200" y1="79.5" x2="1" y2="79.5"/>
		<line fill="none" stroke="#E1E1E1" stroke-miterlimit="10" x1="200" y1="89.5" x2="1" y2="89.5"/>
		<line fill="none" stroke="#E1E1E1" stroke-miterlimit="10" x1="200" y1="100.5" x2="1" y2="100.5"/>
		<line fill="none" stroke="#E1E1E1" stroke-miterlimit="10" x1="200" y1="110.5" x2="1" y2="110.5"/>
		<line fill="none" stroke="#E1E1E1" stroke-miterlimit="10" x1="200" y1="120.5" x2="1" y2="120.5"/>
		<line fill="none" stroke="#E1E1E1" stroke-miterlimit="10" x1="200" y1="130.5" x2="1" y2="130.5"/>
		<line fill="none" stroke="#E1E1E1" stroke-miterlimit="10" x1="200" y1="140.5" x2="1" y2="140.5"/>
		<line fill="none" stroke="#E1E1E1" stroke-miterlimit="10" x1="200" y1="150.5" x2="1" y2="150.5"/>
		<line fill="none" stroke="#E1E1E1" stroke-miterlimit="10" x1="200" y1="160.5" x2="1" y2="160.5"/>
		<line fill="none" stroke="#E1E1E1" stroke-miterlimit="10" x1="200" y1="170.5" x2="1" y2="170.5"/>
		<line fill="none" stroke="#E1E1E1" stroke-miterlimit="10" x1="200" y1="180.5" x2="1" y2="180.5"/>
		<line fill="none" stroke="#E1E1E1" stroke-miterlimit="10" x1="200" y1="190.5" x2="1" y2="190.5"/>
		<line fill="none" stroke="#E1E1E1" stroke-miterlimit="10" x1="200" y1="200.5" x2="1" y2="200.5"/>
	</g>
</g>
<g>
	
		<polyline fill="none" stroke="#000000" stroke-width="3" stroke-linecap="round" stroke-linejoin="round" stroke-miterlimit="10" points="
		10.097,30.397 50.431,37.392 77.431,128.308 171.431,128.308 189.903,69.358 	"/>
	
		<circle fill="none" stroke="#000000" stroke-width="3" stroke-linecap="round" stroke-linejoin="round" stroke-miterlimit="10" cx="88.487" cy="163.549" r="13.408"/>
	
		<circle fill="none" stroke="#000000" stroke-width="3" stroke-linecap="round" stroke-linejoin="round" stroke-miterlimit="10" cx="156.794" cy="163.549" r="13.408"/>
	
		<line fill="none" stroke="#000000" stroke-width="3" stroke-linecap="round" stroke-linejoin="round" stroke-miterlimit="10" x1="125.473" y1="23.043" x2="125.473" y2="91.819"/>
	
		<polyline fill="none" stroke="#000000" stroke-width="3" stroke-linecap="round" stroke-linejoin="round" stroke-miterlimit="10" points="
		157.967,62.114 125.473,94.333 92.979,62.112 	"/>
</g>
</svg>
