<svg height="30" viewBox="0 0 1356 30" width="1356" xmlns="http://www.w3.org/2000/svg"><g fill="#0a0019"><path d="m.823 12.445c-.708.752-.299 2.449 1.663 2.109l1.386-2.89zm13.236 5.293c2.308-1.405 4.964-3.869 3.458-6.51-2.277 2.776-2.836 1.62-5.288 4.925-1.967.347-3.436-.91-3.106-1.975-.693.743-3.058-.623-4.109 1.188 2.565 2.227 5.806 2.306 9.184.449.728.636.027 1.386-.139 1.923zm192.1 3.832-1.239-.34c.336.188.764.293 1.239.34zm119.016 1.171c-.903.072-1.283.363-1.328.628.842-.194 1.532-.374 1.328-.628zm20.331 3.112c-.437-.092-.801-.131-1.2-.193.461.265.921.411 1.2.193zm-139.347-4.283 3.181.892c.221-.937-1.629-.687-3.181-.892zm-165.636-10.873c-.666.136-1.218.409-1.723.761.545-.124 1.073-.231 1.622-.31.028-.159.053-.294.101-.451zm113.177 13.389-.963.008c-.286.331-.549.732-.8 1.175zm-40.261.586c.913.104 1.219-2.354 1.567-3.422-.511 1.018-1.183 1.493-1.981 1.687-.012.468.109 1.021.414 1.735zm-63.856-4.087-1.133.342c.295-.106.789-.205 1.133-.342zm132.941 3.935c.068.367.212.679.367.868-.001-.306-.147-.591-.367-.868zm1126.094-22.264c-.028.175.014.287.006.439.227-.252.298-.425-.006-.439zm46.707 11.962-.64.135c-.068.462-.14.922-.138 1.375zm-972.622 14.644c-.074-.025-.099-.025-.165-.045-.976.273-.424.222.165.045zm341.377-2.978c-3.874-2.181 6.282-2.832.458-5.241.539.953-5.28 3.836-.458 5.241zm-682.51-14.873c.542-.03 1.094-.053 1.647-.03-.751-.078-1.258-.07-1.647.03zm682.968 9.632c0-.009 0-.02 0-.02l-.606-.229c.252.099.392.166.606.249zm-256.154 6.451c-.179-.434-.519-.764-.88-1.065.031.242.232.549.88 1.065zm-63.846-3.268 1.582.324c-.627-.22-1.135-.296-1.582-.324zm96.977-.296c.856.173 1.152.514 2.323.178-.111-.113-.215-.201-.355-.289-.429.327-.991.489-1.968.111zm34.496-.136c-.183-.188-.427-.328-.637-.494-.344.051-.741.09-1.095.138zm667.774-19.598c.753.686 1.229 1.444 1.602 2.195-.542-1.741 4.522-2.381-1.602-2.195zm-1163.239 8.271c.201-.617.496-.92 1.024-1.056-.399.028-.777.079-1.148.137-.098.362-.119.708.124.919zm462.309-7.859 5.477.346c-1.529-.235-3.521-.352-5.477-.346zm453.449.784 1.257-.294c-.489-.054-.935.018-1.257.294zm-431.705-.86c.979.862 2.021 1.359 3.09 1.685.229-.195.483-.354.635-.633zm680.8 1.884c-.013-.01-.013-.025-.013-.025s.001.015.013.025z"/><path d="m1241.473.078c-5.223-.051-2.44 3.157-3.541 5.007-6.229.935-2.895-2.354-5.018-4-3.889.869-6.866 3.829-9.771 3.714-.221-.527-.778-.718-.125-1.382-4.107 2.571-12.214.163-16.997 3.392-.36-.28-.536-.551-.622-.792.776 1.605.901 3.247.746 4.41-2.337.064-4.342 2.048-5.226-.052 1.437.058 1.555-.792 2.218-1.453l-2.448.923c-2.215-3.016 3.344-1.058 3.338-3.291-4.781.996-10.35 3.516-14.016 2.679-.771-2.957 8.568-1.028 3.666-3.641l5.679 1.114c-4.354-4.65 3.449.312-.556-4.663-7.464-.833-8.338 1.533-15.791.699-1.664 1.646.566 2.426-1.107 4.074-10.573 2.992-8.348-7.402-16.118-3.437-2.008 1.978-2.772 5.719-8.319 3.759l1.87-3.35c-7.221-.309-4.109 4.822-11.683 2.598 1.341-1.32 5.68-1.126 4.586-1.522-4.919-2.622-3.468 1.908-7.235 1.921l-.786-2.958c-7.689.494-16.161 2.661-24.686 3.229.473-.883 1.931-1.813-.072-2.713-10.736 1.519-22.934-.28-33.305-2.003l-3.957 2.57c-.922-.026-1.71-1.148-.716-1.645-4.044-.957-.206 1.619-2.14 2.632-2.303.182-3.044-1.459-1.589-2.234-7.126 2.193-20.295 4.74-27.811 2.027l1.463-.766c-5.857-1.014-6.583 5.262-12.017 2.899l1.036-.455c-12.693-1.068-26.72 1.325-36.41-2.505-1.834 3.692-12.575-1.595-13.37 3.542-7.262-2.52-5.183-3.447-15.405-5.12-2.725-.227-4.052 3.22-7.418 3.767l-.092-2.684-4.567 2.832-2.448-3.202-3.153.701c1.26.153 2.682 1.195 2.491 1.968-4.932 1.232-12.045-1.83-12.174-3.206l-11.674 2.314c.259-1.08 2.208-1.46 3.755-2.154-6.225 2.761-1.141-2.826-6.851-.29.772.606-.403 1.597-.531 2.139-2.856-1.61-9.339-1.603-14.141-.903l.921-1.852c-8.673-.444-18.273.949-27.994.947 3.487.851 2.702 4.062-.15 4.381l-1.149-2.833c-1.839 1.759 2.986 1.058-.797 3.219-3.631-.318-2.451-3.215-.363-4.151l-4.417 1.003c-.264-.847.769-1.294 1.036-2.379-1.804 1.772-7.631-2.816-10.235.25l-.254-.844c-9.725.01-14.125 1.004-22.046 1.169-.146 2.453-3.248 1.921-5.6 3.908-5.826-.764-12.292-2.664-19.297-2.435-4.932 1.233-1.434 2.078-3.651 3.542-.362-2.23-7.369-1.996-3.744-3.614-8.414.396-10.75.488-21.39 2.335 1.158.903 2.458 1.3 1.792 2.064-1.935.37-4.4-.922-4.124-1.991l.512-.237c-11.937 3.388-27.597-6.405-37.098-1.722l.527-.233-9.854 2.454c-4.545-.368 2.719-1.683-.651-3.053-10.632 3.757-16.814-.479-25.566 2.029-6.808-6.554-24.075.546-33.247-3.625l.528 1.549c-2.358 1.528-2.862-.878-4.606-1.226.255 1.202 2.573 1.386 1.104 2.229-20.045 1.942-41.393-2.117-61.947-3.446-7.522-.392-4.242 8.031-13.735 4.363l2.683-2.889c-15.161 3.503-31.024-.012-45.863 2.97.88-.667.902-1.531 2.353-1.525-3.142-2.081-11.599-.063-11.646 1.646-2.316-.188-.546-1.542-1.971-2.406-3.154-1.22-7.893 2.695-9.569.623-.284-.335.883-.683 1.458-.842-2.048 1.017-9.558-.227-7.586 2.176-5.576-1.13-10.66 1.112-15.11-.301-2.888 2.707-9.544-1.262-10.454 2.551.383-3.94-9.782-3.141-13.303-1.279 1.175-1.194-3.067-1.223-1.689-2.878-4.023.069-7.71.814-7.002 2.836-7.426-4.688-14.879 3.842-19.073-2.183-11.941 2.159-22.993 3.631-33.738 4.585.373-3.927 11.879-.428 11.406-4.551-10.194 1.655-16.062 5.049-26.178 4.133-2.621-.528 1.482-1.709 2.365-2.381-10.182 1.65-19.699-.291-28.756 1.88.025-.369 1.004-.77 1.923-1.076-1.786.134-4.153-.562-3.949 1.228l1.744-.494c2.857 2.58-7.08 5.438-7.393 6.808 3.013-5.125-8.96-1.252-4.165-7.734-1.173.336-2.646 1.19-2.37 2.381-1.749-.339-2.304-1.035-.54-2.4-6.396.992-4.113 2.88-9.914 2.861.018-.862 1.189-1.202 1.785-2.218-2.931 1.692-5.873 3.392-10.776 2.676.296-.522-.279-1.196 1.184-1.188-8.413.288-14.325 4.536-23.561 2.939 2.711-3.764-3.142-1.227-3.645-4.476l-4.958.985 1.998 1.572c-4.351-.04-8.186 2.34-11.925 1.29l3.226-1.351-8.146.644 4.616 1.216c-4.392 1.694.487 4.114-5.305 3.227 1.177-.334-4.348-.026-6.622-1.933 0 0 .015 0 .015-.007-2.145 1.045-4.355 2.139-7.572 1.342-.84-1.034.661-3.594.115-4.283-2.113 2.725-10.181.789-12.858 3.69.896-.684.937-2.389.639-2.738l-1.773 2.215c-2.016-.699-2.314-1.037-1.989-2.4-6.06-.386 1.938 4.111-5.258 2.363.563-.182.29-.51 1.465-.852-7.225-.897-13.944 1.45-20.583.389-1.969-3.265 5.794-.821 3.542-3.575-9.562.626-19.797 3.988-29.059 3.251l1.729.357c-1.271 4.623-6.904-2.261-11.579-.066 1.144-.347 1.496-2.566 1.186-2.052-6.341-.719-12.958 1.179-22.562 2.664l1.189-1.188c-3.743-1.049-9.845-.575-13.882-1.106-1.196 1.193-3.502 1.006-2.094 2.725-12.468-6.714-23.728 3.708-34.791-1.886 1.32-.018 3.145-1.045 2.094-1.049l-9.403 1.125c.75 2.011 1.237 1.213 3.218 2.775-1.187 1.197-3.838 2.126-6.167 2.135 4.223-1.343-.048-3.231-1.877-4.346.306.614-.318 1.298-.16 1.924-4.928-3.561-.811 4.051-7.527 1.667l.354-1.062c-2.512.548-4.819 1.953-7.528 1.658-1.129-2.322 2.669-1.095 2.835-3.01-3.801.147-7.49 4.435-10.939 2.129 1.614-.654 3.935-.673 5.55-1.323-3.756-2.721-4.191-2.025-6.976-2.447l.275.061-6.441-1.214 1.639.731c-4.738 6.09-9.684 1.145-16.08 5.138 6.215-3.784 1.021-2.177 1.488-4.816-1.636-.727-4.127-1.54-3.422-2.286-3.023 2.14-5.064-1.656-9.327 1.468-.196-.851-3.243-.073-2.567-2.208-3.938.68.936 1.476.609 2.544-6.061 2.919-14.286-3.471-23.007.54-7.523 1.662-8.905 4.528-15.893 5.979-2.361-1.351 1.922-3.097 1.922-3.097-3.81-1.238-6.67-.997-10.252-.015.724-.739-.028-1.363-1.123-2.316-2.877.236-1.914 3.101-5.716 1.86.649-.946 1.48-2.466 2.865-3.419-3.39.792-6.733 2.392-10.241 3.17-.935-1.478 2.11-2.252 3.345-3.229-3.943.681-10.216 1.377-11.427 3.725l2.534.83c-1.438.113-.747-2.009.311-2.442 3.375-1.848 4.88.795 5.076 1.648l-2.501.552c2.586 4.972 10.038-.835 15.075-.561l-2.086 3.627 5.152-3.021c1.099.942 1.858 2.956-.625 3.512 3.615 1.77 3.19-1.301 6.296.681.344.311.189.489-.125.635l3.519-1.091c-.687.759.596 2.555-1.569 2.036 6.332 2.073 10.192-2.753 12.586-.017l-.53.227c8.774-1.255.84-2.661 7.415-5.805l4.455 6.538.852-2.662c.908.095 2.699.289 2.374 1.353 3.363-1.826-.58-1.153 1.372-2.87 4.365 2.402 12.013-1.185 13.011 3.048 1.559-2.02-4.176-1.546.474-2.966 1.342 4.555 5.379-.794 9.367 1.277-1.214 2.362-4.99 1.131-.999 3.211 2.389-3.98 7.758.839 11.115.072.147-3.168 7.301-1.345 12.931-2.416-.351 1.063 10.614 1.704 15.861 2.828l-.152.527c1.003-3.195 6.417-2.616 10.353-3.289-.15 1.912-.857 2.676-2.988 3.534l3.706-.027c.867-1.024 2.024-1.573 4.421-1.939l-.923 2.391c4.929-.15 9.917-2.852 16.262-1.273.348-2.24-5.062-6.199 1.635-7.707.254 1.21.511 3.266-1.246 3.768.574-.16 2.047-1.015 3.208-.499l-2.671 2.041c2.889.876 1.503-1.701 3.814-1.521-.04 1.713 1.711 1.22 1.387 2.586-.59.17-2.017-.709-2.9-.024 2.604.302 5.752 1.305 6.801 2.604-.233-.974-.009-2.312 1.896-2.545 4.926-.143 1.692 2.061 4.57 2.939 1.188-1.206 4.337.02 4.411-2.552 1.443.008 1.715 1.217 2.273 1.903 2.546-1.14 11.912-.367 9.027-3.09l-.655-.182c.124-.042.269-.046.419-.103-.02 0 0 0-.02 0h.02c8.35-2.584 17.368 1.388 25.661.259l-.011.867c4.946-1.008 11.016-.622 14.549-2.479 1.464-.004 3.461 1.547 2.838 2.584 3.783-.666 4.202-1.63 9.675-.23-3.8 1.515 1.316 1.326-3.896 1.112 4.917.721 6.039 2.095 11.312-.273-1.792 2.205 3.708 2.762 6.046 2.101l-3.451-1.565c2.627-.331 4.923-.145 7.261.037l-1.252 2.904c10.074 3.485 18.126-6.065 25.81-.188 2.655-2.042-5.472-1.409-3.101-3.786 4.629.369 9.469 4.512 10.919 4.516 6.345 1.585 5.902-4.257 12.542-3.175-.854-1.035-1.664-3.791 3.293-4.779 4.634.369 5.707 4.316 2.788 5.151-1.113.092-1.65-.238-1.604-.578-1.496.372-3.459.826-1.619 1.938l.598-1.033c2.3 1.043 8.676.91 7.183 2.612 3.499-.993 1.493-1.702-1.103-2.223 5.947 1.478 9.283.014 15.399.995-.971-.57-1.873-1.78-.902-1.772 8.973 1.248 3.943-1.969 10.019-2.447 3.458 1.565-1.227 3.765 4.889 2.423 3.739 1.062.801 2.74-.683 3.595 5.571-2.019 10.42 1.272 13.608 1.619l-2.936.852c1.753-.506 3.192-.496 4.657-.496l-1.682-2.057c1.725.347 3.185.349 3.156 1.217 1.771-1.361-1.371-3.44 2.148-5.296 2.3 1.04 6.995-1.15 7.8 1.591-7.233-.914.806 2.741-5.311 3.21 1.179-.336 2.619-.326 4.348.033.263.309-.239.574-.713.732 6.927 2.426 3.168-3.115 10.341-3.076-.907 1.551 1.669 2.928 2.836 2.592-2.886-.021-1.389-2.574 1.256-3.765 4.602 1.187 4.995-.918 7.402-.787l-2.75-.55c.928-1.552 3.227-1.354 6.431-1.856.276 1.201-2.909.846-1.765 1.365 3.551-2.729 8.05 2.784 13.006.934 2.299 1.047.229 2.906 2.249 3.615 5.557-2.03 6.029 2.092 11.867.413-1.688-2.068-1.983-1.555 2.125-3.601l-9.599 1.497 6.152-3.045c-2.897-.02-6.11 1.327-7.852.988 2.934-1.707 2.63-1.197 1.237-2.909 3.978 3.097 7.861-1.845 12.455.249l-.121 5.141c6.899 2.268 12.239-2.68 21.199-1.419l-2.883-.891c1.193-2.041 5.53-.294 8.423-1.142-.26 1.726 1.552 2.338 2.792 3.412-.155-1.274 6.554.094 7.356-3.348l4.005 2.249c7.232.907 8.232-4.925 15.186-4.36-2.089 1.871 1.072 3.076-3.578 4.43 2.323.01 4.411.318 4.443-.87 1.359 1.069 6.426-2.336 8.565-.71.973-.763 1.29-2.559 3.894-2.435.284.35-.008.855-.008.855.008-.855 4.076-1.166 1.791-3.066 7.164 5.338 19.976-.461 26.216 4.126 5.061-.597 11.161-1.165 15.757-1.308-.296.521-.013.853-.883.686 6.345 1.568 3.881-4.957 11.103-3.192 3.697 2.767-3.827 1.518-1.524 2.561 1.019 5.655 8.706-.801 13.573 2.483l-1.173.34c3.714 1.903 9.046-2.183 15.112-1.796 0 0-.293.504-.032.862 4.139-2.901 11.986-3.892 17.816-4.709-1.806 2.217-2.646 1.179-1.532 3.432 2.614-.329-.773-3.616 4.443-4.258 1.7 1.206 5.467 2.247 5.979 4.644l-4.926.148c2.531 3.102 6.371-.129 8.97.406l-.327 1.359c7.547-.472 7.641-3.887 15.749-3.67l-.842-1.033c4.422-3.396 3.724 1.897 8.135-.635l1.349 3.428c2.925-.834 10.235-3.353 15.478-4.021-2.966 2.558-9.095 3.881-12.891 5.411 2.902.016 9.851-.291 11.357-1.984-1.166.329-2.637 1.184-3.79.653 3.549-2.716 8.219-4.06 13.999-4.02-1.004 6.666 15.06 1.629 19.265 6.787 10.22-2.498 20.279.983 32.184.553-4.241-5.17 3.472-.16 2.729-5.482 2.771-.354 3.827-.27 4.077.079l8.408 3.145c2.002 1.544-2.633 1.182-2.372 2.384 6.078.382 2.554 2.246 6.577 3.647-.826-1.906 2.107-2.734 5.567-2.024l-4.879-2.438c8.469-2.865 7.345 4.446 15.892 1.61l-2.699 1.687c4.387-1.012 16.192-.021 20.473-4.315.784.607 1.812 2.057-.123 2.453 10.498.611 23.339-4.626 31.5-2.02l-.798 1.302c1.961-.385 3.405-2.455 5.857-1.153-.125.532-.789 1.302.123 1.365 1.032-.446 5.189-2.295 7.785-1.54l-2.208 1.473c10.233 1.663 15.688-3.629 24.258-4.548-.01 3.833 8.046 5.051 12.065 5.662l-.139.536c11.914.438 20.228-3.238 31.257-4.785 6.854 4.138 23.199 1.665 34.216 3.959-1.688-.698.257-2.991 2.216-3.386 2.584.773 7.134-2.678 6.733.842l-.918-.066c1.952 3.437 7.258 2.504 11.402 2.586l.674-4.606c10.854 6.651 28.39-2.555 34.333 3.422 2.609-1.156 5.846-1.155 8.434-2.312l-.133 2.466c7.256.597 10.873.896 19.826.282l-1.813 1.763c5.052.143 6.354-7.125 11.011-7.285l1.416 3.671c8.822-.088 17.754 3.117 26.449-.256-.141.543-.393 1.607-1.816 1.761 4.146.082 16.062 2.436 14.537-2.607.111 3.282 9.095.291 13.848-1.177l-.729 2.428c4.01-3.117 4.135-3.962 9.743-4.849 1.325.314 1.169 1.944-.598 1.325 4.431 1.258 3.442-2.307 8.819-1.033l-1.99 1.559c4.554.172 4.195-.653 6.699-2.475 2.865-.979 8.647.579 9.326 2.775.61-1.339 3.101-3.14 5.791-2.512.367.823-.605 1.347-1.102 1.602 7.627 1.616 11.322-2.861 16.578-.499.109.8.454 1.202.893 1.444-6.062-.039-10.938-.154-10.478-.334.008 2.234 4.897 2.613 1.017 5.72 3.921-1.703 10.625-5.39 15.396-4.355.232.22.46.432.636.767l-.496.256c1.1.221 2.094.008 3.016-.364 1.525.356 2.49.626 3.952.653.575 1.854 5.617.976 8.055 1.058-.212-2.445 2.987-2.059-.013-4.075.389.176-.465.297-2.078.405-.369.073-.805.11-1.048.259.047-.068.104-.146.168-.217-1.604.078-3.688.14-6.06.186 1.917-1.251 3.933-2.301 6.636-.95 1.246-1.579 2.619-3.205 3.388-3.962 3.354 3.397 9.797 5.225 10.695 7.322 7.446-1.399 17.548-.962 22.211-5.583 2.125-.593 2.439 1.309 3.238 2.035-1.221.459-2.676.394-3.34 1.062 4.231-1.192 12.55-.506 13.546-3.715 5.344 1.432-2.991 2.959 4.346 2.415l-.983.981c14.443 5.084 23.426-8.277 39.443-1.747-1.111-.394-1.666-.578-1.896-1.12 18.249 2.846 37.575-2.853 55.581 1.693 5.117.908 5.668-1.14 8.782-2.713l1.121 2.624 5.328-3.054c7.558-2.245 13.127 6.415 22.691 2.18l-1.236-1.77c3.439.324 10.89-1.079 10.328.954.351-.317 1.121-1.84 2.47-.925l.109 1.377 8.439-2.386c6.558.971-1.004 5.466 8.562 5.704 3.55-.547 10.105-4.041 8.769-4.965-1.436-.064-3.666-.841-3.778-2.219l3.254-.729c.569-4.056 3.055-8.219-4.936-11.018l-5.551 2.496-1.797-1.96 4.676-.141c-2.66-1.839-4.332-.199-6.217.934-.448-1.048-1.233-1.776-2.336-2.16l-5.448 3.89c-.661-1.586 2.437-3.154-1.228-4.019-2.552 1.805 2.463 3.55-1.77 4.744-2.667-1.832-1.889-3.338-5.01-1.75-.444-1.045.219-1.714 1.454-2.175-2.777 1.261-7.351.553-8.784 2.715-2.775-2.267-9.377.624-9.116-3.213-.877.917-4.892 3.028-7.444 3.196 4.654-4.609-9.559-.24-8.34-5.167-3.437 4.139-12.461 1.877-18.567 4.187.337-.326 1.011-.993 1.546-.79-3.439-.327-4.441-1.568-6.662-2.342-.424 3.415-5.781 4.215-8.665 6.326-4.231-3.279 2.548-4.017 1.213-7.174.223 2.766-7.325 2.787-5.883 5.088-3.227-2.026-2.775-.98-4.447-3.807-.557 4.272-3.005.737-5.672 3.366-4.677-2.089-1.214-3.994-6.337-2.681-2.442-1.295 2.109-2.82 2.109-2.82zm-121.953 7.796c0-.024 0-.041 0-.05 1.059-.059 1.949-.111 2.516-.148-.518.037-1.244.088-2.516.198zm-10.249.073c1.248.094 2.804.104 4.451.082.354.839-.024 1.713-1.054 1.671.552-.566-1.863-1.043-3.397-1.753zm21.743 16.891c-1.623.347-2.173-.125-2.389-.63.762-.048 1.654-.134 2.829-.308.046-.091.144-.197.19-.295-.153.465-.325.907-.63 1.233z"/><path d="m1133.922 21.614c.225-.056.355-.161.663-.183-.335-.215-.644-.4-.967-.54-.198.251-.4.511-.576.765.297-.015.604-.023.88-.042zm-929.22-.438.218.055c-.182-.096-.347-.195-.454-.339.143.108.143.184.236.284z"/><path d="m967.713 3.747.016.62.891-.543z"/><path d="m148.221 12.971c-.108-.217-.323-.434-.744-.625.035.163.351.379.744.625zm-24.391-.464-3.45-.861c1.492.488 2.582.723 3.45.861zm-18.752-1.148c-.238.429-.305.75-.367 1.048.016.007.025.007.037.016zm298.113-3.905c.253-.017.501-.049.724-.109 1.698-.482.541-.291-.724.109zm-88.7 6.025c.942-.448 1.869-.884 2.85-1.166-1.581-.183-2.809-.228-2.85 1.166zm187.762-9.312c-.009.016 0 .021-.009.043.208-.01.396-.002.611-.002zm-180.786 8.174c-1.583-.481-2.902-.37-4.126-.028 1.294.161 2.822.402 4.126.028zm-297.66-1.816-.904-.098c.015.163-.039.292-.107.392zm-1.012.295-1 .294c.46-.002.857-.022 1-.294zm-3.109.917 2.109-.624c-.731-.003-1.635-.076-2.109.624zm28.944-.166.284-.886c-.155.179-.255.471-.284.886zm7.544-.279c-1.801-.197-4.521-1.884-7.031-1.313l-.229.708c1.175-1.327 5.554 2.102 7.26.605zm31.519 10.864-6.321-.692c1.107.938 2.564 2.204-.311 2.443 7.978 2.794-1.649-2.106 6.632-1.751zm19.602 1.304c-3.392.444.044 1.374-.13 1.903 2.148-.867 2.67-1.084.13-1.903zm141.633-.481-.332 2.225c2.616-.321.023-.858.332-2.225z"/><path d="m275.968 11.372-2.554-1.371-1.206 2.04z"/><path d="m292.011 27.187-1.141.325 4.362-.83z"/><path d="m529.883 25.577-.802-2.742c-1.766.502-2.13 3.579.802 2.742zm102.68-3.152c1.122 1.368 4.014 2.249 5.789.896-2.311-.185-4.615-1.245-5.789-.896z"/><path d="m940.556 25.843-2.07.923 3.89-.775z"/></g></svg>