<svg height="15" viewBox="0 0 15 15" width="15" xmlns="http://www.w3.org/2000/svg"><g fill="#fff"><path d="m6.05934375 12.0316875c-3.2930625 0-5.97215625-2.67928125-5.97215625-5.97253125 0-3.29296875 2.67909375-5.97215625 5.97215625-5.97215625 3.29296875 0 5.97196875 2.6791875 5.97196875 5.97215625 0 3.29325-2.679 5.97253125-5.97196875 5.97253125zm0-11.1946875c-2.87953125 0-5.22215625 2.34271875-5.22215625 5.22215625 0 2.87971875 2.342625 5.22253125 5.22215625 5.22253125 2.8794375 0 5.22196875-2.3428125 5.22196875-5.22253125 0-2.8794375-2.34253125-5.22215625-5.22196875-5.22215625z"/><path d="m9.155 12.042h6.528v.75h-6.528z" transform="matrix(.70710678 .70710678 -.70710678 .70710678 12.417586 -5.144704)"/></g></svg>