<svg height="159" viewBox="0 0 163 159" width="163" xmlns="http://www.w3.org/2000/svg"><path d="m23.667 36.311c9.826 0 17.794-7.965 17.794-17.796 0-9.825-7.968-17.793-17.794-17.793-9.827 0-17.795 7.968-17.795 17.793 0 9.83 7.968 17.796 17.795 17.796zm12.458 8.689h-24.922c-6.115 0-11.203 4.387-11.203 10.673v39.271c0 4.412 2.509 8.982 6.245 11.32-.017.303-.245.607-.245.918v39.271c0 6.285 3.404 12.547 8.101 12.547h19.131c4.701 0 7.769-6.262 7.769-12.549v-39.27c0-.214-.226-.418-.231-.627 3.812-2.23 6.231-7.007 6.231-11.613v-39.27c-.001-6.284-4.755-10.671-10.876-10.671z" transform="translate(57)"/></svg>