<svg height="350" viewBox="0 0 717 350" width="717" xmlns="http://www.w3.org/2000/svg"><path d="m434.804761.05483871c-2.357929 0-7.216574 6.83066134-7.216574 6.83066134-.439941-.2392661-.849009-.34346263-1.215626-.34346263-3.4655 0-3.762653 9.58993978-3.762653 9.58993978-2.492998 4.6232386-14.583655 15.9999559-14.583655 15.9999559-19.415286 20.549871-38.26714 22.3250711-38.26714 22.3250711-2.342492-.0733235.077183-2.3463514.077183-2.3463514 4.978278-9.2426181.563433-18.7746709.563433-18.7746709-2.666659-4.7814629-6.579818-6.2209187-10.296161-6.2209187-5.584162 0-10.755397 3.2262333-10.755397 3.2262333-7.181842 4.4804507-.713939 23.4712329-.713939 23.4712329-1.462611.679207-2.909785.914614-4.214171.914614-2.952235 0-5.175094-1.2001897-5.175094-1.2001897l-20.696518-14.7264427c-18.415772-12.3067678-27.446138-24.32796-27.446138-24.32796-2.060776-9.46258847-4.337663-11.87840429-4.337663-11.87840429-.474673-.50554612-1.068979-.71008005-1.701876-.71008005-2.388802 0-5.406642 2.8403202-5.406642 2.8403202-2.419675 2.27688712-.285576 9.39312414-.285576 9.39312414 2.203563 4.7621673 13.510816 19.2030344 13.510816 19.2030344 13.792534 9.8176285 38.826714 36.4224755 38.826714 36.4224755 6.830662 7.2590249 5.252277 58.8941941 5.252277 58.8941941l-4.04051 62.189891c-141.0821 6.761197-263.3355013 68.831455-332.69565745 159.227733 84.13290845-75.970847 236.20967245-121.50859 381.18949445-121.50859 144.972104 0 251.414647 45.541602 335.547555 121.50859-70.490881-91.870466-195.611617-154.477143-339.603501-159.513309l.632897-20.719673c.21997-7.039054.081042-79.8685686.081042-79.8685686.428363-14.085827 2.990826-21.0515579 2.990826-21.0515579 14.367544-8.9609015 43.527135-40.9608133 43.527135-40.9608133 12.16398-13.7307871 12.457274-23.11619294 12.457274-23.11619294.138929-4.69656207-2.203564-4.76602642-2.203564-4.76602642-.011577-.00385913-.023154-.00385913-.038591-.00385913m-87.629281 190.27829829 3.145192-37.800185c.212252-7.039054 4.982138-9.242618 4.982138-9.242618.493968-.227689.964782-.331885 1.400864-.331885 3.770371 0 5.422079 7.587051 5.422079 7.587051 1.547511 5.19053 1.3314 27.820473 1.092134 39.6873-1.543653-.007718-3.087305-.030873-4.630957-.030873-3.81668 0-7.617924.050168-11.41145.13121" fill="#a6c87f"/></svg>