<svg height="30" viewBox="0 0 30 30" width="30" xmlns="http://www.w3.org/2000/svg"><g fill="#fff"><path d="m14.9996667 29.867c-8.1971667 0-14.86583337-6.6688333-14.86583337-14.8658333 0-8.19833337 6.66883334-14.8681667 14.86583337-14.8681667 8.1976666 0 14.8665 6.66983333 14.8665 14.8681667 0 8.197-6.6688334 14.8658333-14.8665 14.8658333zm0-28.40066667c-7.46183337 0-13.53250003 6.07183334-13.53250003 13.53483337 0 7.4618333 6.07066666 13.5325 13.53250003 13.5325 7.4621666 0 13.5331666-6.0708334 13.5331666-13.5325 0-7.46300003-6.071-13.53483337-13.5331666-13.53483337z"/><path d="m19.9896667 9.94833333c-3.3948334-1.32966666-6.7888334-1.294-10.1951667-.0275 2.7506667.44466667 4.4625 1.99566667 5.1386667 4.76233337.6693333-2.722 2.3383333-4.2768334 5.0565-4.73483337zm-6.1754509 5.63299997c.0112842-2.4835-1.9388825-4.4431666-4.43038247-4.4530318-2.42383333-.0091348-4.39516666 1.9596985-4.42616666 4.4210318-.02933334 2.3918334 1.986 4.4166667 4.42216666 4.4423334 2.41416667.0271666 4.42216667-1.9716667 4.43438247-4.4103334zm2.22878-.0143333c.0033375 2.4411667 1.9801709 4.4396667 4.3993375 4.4491897 2.4541667.0078103 4.457-1.9818564 4.4668697-4.439523.009797-2.4571667-1.977203-4.4313334-4.459703-4.4301672-2.4471667.0003338-4.4098333 1.9703338-4.4065042 4.4205005zm9.9891709.5196667c-.2773334.7991666-.4283334 1.6721666-.8531667 2.3825-1.848 3.0923333-6.1058333 3.5608333-8.6543333 1.0078333-.137-.1365-.277-.2718333-.442-.434-.3851667.5695-.761 1.1245-1.17 1.7271667-.3965-.5818334-.7728334-1.133-1.18-1.7291667-.1471667.1516667-.2711667.2961667-.4095.4258333-1.6373334 1.5378334-3.55183337 2.0403334-5.6816667 1.332-2.0925-.6951666-3.32166667-2.2081666-3.724-4.3825-.0195-.1113333-.05866667-.2185-.0885-.3298333v-1.0848333c.194-.9245.44366667-1.8275.9945-2.6173334.05533333-.0788333.0765-.2356666.03516667-.3145-.33233334-.6413333-.68416667-1.2708333-1.02966667-1.904v-.0983333c1.01816667-.0013333 2.03783333.033 3.05433333-.0153333 1.03283334-.0478334 1.77566667-.84500003 2.724-1.15450003 4.25549997-1.39016667 8.38099997-1.29283334 12.36433337.9165.2455.13633333.5523333.21350003.8336666.22200003 1.001.0306666 2.0038334.0176666 3.0048334.0251666.0266666 0 .0543333.0243334.0738333.0346667-.2883333.6173333-.5851667 1.2303333-.8538333 1.8556667-.0565.1296666-.0646667.3456666.0071666.4528333.5306667.7928333.8141667 1.674.9948334 2.5971667z"/><path d="m20.4723333 13.7164905c-.9873333-.0031572-1.8005.7818428-1.8241666 1.7578428-.0218334.9795.8166666 1.82 1.8145 1.8158488.9833333-.0026821 1.7893333-.8026821 1.7945113-1.7828488.0034887-.9741666-.805678-1.7871666-1.7848447-1.7908428m2.7131736 1.7926762c-.0035069 1.513-1.2083402 2.7295-2.7100069 2.7367009-1.5301667.0074657-2.7531667-1.2163676-2.7473541-2.7465343.0058541-1.5215 1.2050208-2.733 2.7083541-2.7341666 1.5416667-.0001667 2.7523333 1.2081666 2.7490069 2.744m-13.8290069-1.7901667c-.986-.0148333-1.80333333.761-1.835 1.7393333-.0325.9825.794 1.8268334 1.79333333 1.8348334.97366667.0086666 1.79433337-.7956667 1.80899997-1.7706667.0145-.9733333-.7853333-1.7888333-1.7673333-1.8035m2.6893333 1.8281667c-.0211666 1.5178333-1.235 2.7118333-2.74316663 2.6985-1.52283334-.0146667-2.736-1.2561667-2.71816667-2.7838334.017-1.5 1.2675-2.7235 2.7545-2.6968333 1.5555.03 2.729 1.2346667 2.7068333 2.7821667"/><path d="m20.4408333 16.3956667c-.5078333-.0085-.903-.4206667-.8841666-.9226667.0201666-.4838333.4111666-.8645.8928333-.867.499-.0031667.9208333.413.9143333.9011667-.0063333.502-.4168333.897-.923.8885m-11.0968333.0025c-.53483333.0078333-.9075-.3496667-.91833333-.8768334-.01033334-.5213333.36716666-.9153333.88083333-.9208333.50883333-.0041667.9238333.3873333.9351667.8848333.0116666.4925-.3946667.9053334-.8976667.9128334"/></g></svg>