<svg height="30" viewBox="0 0 30 30" width="30" xmlns="http://www.w3.org/2000/svg"><g fill="#fff"><path d="m15.0013333 29.867c-8.19799997 0-14.86766663-6.6688333-14.86766663-14.8658333 0-8.19833337 6.66966666-14.8681667 14.86766663-14.8681667 8.197 0 14.8651667 6.66983333 14.8651667 14.8681667 0 8.197-6.6685 14.8658333-14.8651667 14.8658333zm0-28.40066667c-7.4628333 0-13.5343333 6.07183334-13.5343333 13.53483337 0 7.4618333 6.0715 13.5325 13.5343333 13.5325 7.4616667 0 13.5318334-6.0708334 13.5318334-13.5325 0-7.46300003-6.0703334-13.53483337-13.5318334-13.53483337z"/><path d="m14.7543333 11.2465v.0868333c0 .2253334.0375.4936667.1073334.8045h-.0206667c-.2813333 0-.8265-.0655-1.6325-.192-.679-.1535-1.2871667-.339-1.823-.5518333-.566-.224-1.1726667-.5416667-1.82433333-.9526667-.494-.3115-1.04733334-.74949997-1.654-1.3148333-.31116667-.3255-.60083334-.63616667-.8685-.933-.32816667.6215-.48766667 1.22916667-.48766667 1.8226667v.1505c0 .8161666.29616667 1.6103333.8885 2.3738333.29866667.3376667.54533333.5655.74316667.678v.0213333c-.50833334 0-1.06683334-.1558333-1.67683334-.4668333v.1051667c0 .992.3835 1.8735 1.14733334 2.653.4795.4371666.927.7183333 1.33466666.8466666.269.099.43883334.1481667.5095.1481667 0 .0288333-.13966666.0643333-.42533333.1046667-.16783333.03-.297.044-.38033333.044h-.08483334-.06466666-.0635-.01983334c-.18483333 0-.3945-.0208334-.63566666-.0641667.3095.8771667.8255 1.5405 1.5475 1.9931667.64933333.4111666 1.30733333.6146666 1.97300003.6146666-.3695.3121667-.723.5525-1.0608334.7203334-1.1733333.5951666-2.3333333.892-3.47816663.892h-.2535c-.2555 0-.516-.0146667-.7845-.0423334.706.4676667 1.47683333.8415 2.30966666 1.124 1.145.394 2.31299997.593 3.49883337.593 1.9201666 0 3.6961666-.4461666 5.3221666-1.3358333.5226667-.2825 1.0865-.6875 1.6975-1.2086667.5776667-.5215.9745-.9258333 1.1865-1.208.5081667-.624.9313334-1.2598333 1.2705-1.9098333.2411667-.435.469-.946.6816667-1.5246667.4075-1.2163333.6125-2.3605.6125-3.4348333v-.5501667-.1088333c.2126667-.1265.566-.4313333 1.059-.9103333.3518333-.38183337.6295-.72800003.8288333-1.0376667h-.0196666c-.4813334.197-.9763334.361-1.4846667.48633333-.3835.05566667-.5938333.085-.6365.085v-.022c.155-.05566666.4186667-.26183333.7848333-.61616666.4235-.493.7061667-.97466667.849-1.44016667-.4955.29483333-1.013.52983333-1.5488333.69916667-.4826667.1415-.7711667.2125-.8726667.2125-.3493333-.33916667-.6191666-.54883334-.802-.63566667-.6065-.36783333-1.2496666-.55066667-1.9306666-.55066667h-.0198334c-1.0058333 0-1.8886666.35983334-2.65 1.07983334-.7641666.777-1.1485 1.66966663-1.1485 2.67183333"/></g></svg>